AndadaPro-BoldItalic.ufo
<glyph name="exclam" format="2">
  <advance width="313.59999999999997"/>
  <unicode hex="0021"/>
  <outline>
    <contour>
      <point x="177.45454545454547" y="222.36363636363637" type="line"/>
      <point x="194.45454545454544" y="234.36363636363637" type="line"/>
      <point x="204.63636363636363" y="314.6363636363636" type="line" smooth="yes"/>
      <point x="211.72727272727272" y="371.45454545454544"/>
      <point x="263.6363636363636" y="608.1818181818181"/>
      <point x="297.3636363636364" y="747.6363636363636" type="curve"/>
      <point x="275.0" y="771.6363636363636" type="line"/>
      <point x="176.36363636363637" y="763.3636363636364" type="line"/>
      <point x="110.9090909090909" y="292.6363636363636" type="line"/>
      <point x="99.45454545454545" y="226.63636363636363" type="line"/>
    </contour>
    <contour>
      <point x="113.0" y="-12.545454545454545" type="curve" smooth="yes"/>
      <point x="158.36363636363637" y="-12.545454545454545"/>
      <point x="190.54545454545456" y="24.636363636363637"/>
      <point x="190.54545454545456" y="76.9090909090909" type="curve" smooth="yes"/>
      <point x="190.54545454545456" y="112.9090909090909"/>
      <point x="170.0909090909091" y="134.45454545454544"/>
      <point x="136.0909090909091" y="134.45454545454544" type="curve" smooth="yes"/>
      <point x="90.36363636363636" y="134.45454545454544"/>
      <point x="57.90909090909091" y="97.36363636363636"/>
      <point x="57.90909090909091" y="44.36363636363636" type="curve" smooth="yes"/>
      <point x="57.90909090909091" y="9.90909090909091"/>
      <point x="76.72727272727272" y="-12.545454545454545"/>
    </contour>
  </outline>
</glyph>
<glyph name="numbersign" format="2">
  <advance width="635.1999999999999"/>
  <unicode hex="0023"/>
  <outline>
    <contour>
      <point x="182.72727272727272" y="-15.0" type="line"/>
      <point x="346.1818181818182" y="562.0" type="line"/>
      <point x="275.1818181818182" y="572.0" type="line"/>
      <point x="112.0909090909091" y="-5.0" type="line"/>
    </contour>
    <contour>
      <point x="52.0" y="144.0" type="line"/>
      <point x="536.6363636363636" y="144.0" type="line"/>
      <point x="547.5454545454545" y="227.0" type="line"/>
      <point x="62.27272727272727" y="222.0" type="line"/>
    </contour>
    <contour>
      <point x="363.72727272727275" y="-15.0" type="line"/>
      <point x="526.5454545454545" y="562.0" type="line"/>
      <point x="456.1818181818182" y="572.0" type="line"/>
      <point x="293.09090909090907" y="-5.0" type="line"/>
    </contour>
    <contour>
      <point x="95.36363636363636" y="331.0" type="line"/>
      <point x="581.0" y="336.0" type="line"/>
      <point x="590.9090909090909" y="414.0" type="line"/>
      <point x="106.63636363636364" y="414.0" type="line"/>
    </contour>
  </outline>
</glyph>
<glyph name="dollar" format="2">
  <advance width="564.8000000000001"/>
  <unicode hex="0024"/>
  <outline>
    <contour>
      <point x="240.36363636363637" y="-13.636363636363637" type="curve" smooth="yes"/>
      <point x="383.90909090909093" y="-13.636363636363637"/>
      <point x="488.72727272727275" y="78.54545454545455"/>
      <point x="488.72727272727275" y="204.1818181818182" type="curve" smooth="yes"/>
      <point x="488.72727272727275" y="376.45454545454544"/>
      <point x="246.45454545454544" y="371.72727272727275"/>
      <point x="246.45454545454544" y="480.6363636363636" type="curve" smooth="yes"/>
      <point x="246.45454545454544" y="532.4545454545455"/>
      <point x="288.45454545454544" y="570.2727272727273"/>
      <point x="346.3636363636364" y="570.2727272727273" type="curve" smooth="yes"/>
      <point x="393.3636363636364" y="570.2727272727273"/>
      <point x="441.27272727272725" y="545.1818181818181"/>
      <point x="472.54545454545456" y="527.1818181818181" type="curve"/>
      <point x="410.1818181818182" y="589.9090909090909" type="line"/>
      <point x="415.72727272727275" y="558.1818181818181"/>
      <point x="428.09090909090907" y="515.5454545454545"/>
      <point x="426.72727272727275" y="505.09090909090907" type="curve"/>
      <point x="421.72727272727275" y="453.6363636363636" type="line"/>
      <point x="486.09090909090907" y="449.90909090909093" type="line"/>
      <point x="519.7272727272727" y="613.9090909090909" type="line"/>
      <point x="463.09090909090907" y="631.0909090909091"/>
      <point x="394.72727272727275" y="645.0909090909091"/>
      <point x="334.6363636363636" y="645.0909090909091" type="curve" smooth="yes"/>
      <point x="201.63636363636363" y="645.0909090909091"/>
      <point x="106.9090909090909" y="561.3636363636364"/>
      <point x="106.9090909090909" y="442.45454545454544" type="curve" smooth="yes"/>
      <point x="106.9090909090909" y="268.27272727272725"/>
      <point x="348.09090909090907" y="278.90909090909093"/>
      <point x="348.09090909090907" y="161.45454545454547" type="curve" smooth="yes"/>
      <point x="348.09090909090907" y="105.0909090909091"/>
      <point x="304.0" y="65.54545454545455"/>
      <point x="241.72727272727272" y="65.54545454545455" type="curve" smooth="yes"/>
      <point x="182.72727272727272" y="65.54545454545455"/>
      <point x="140.0" y="93.0"/>
      <point x="105.27272727272727" y="109.9090909090909" type="curve"/>
      <point x="160.9090909090909" y="45.09090909090909" type="line"/>
      <point x="152.1818181818182" y="66.36363636363636"/>
      <point x="141.27272727272728" y="124.54545454545455"/>
      <point x="142.27272727272728" y="132.54545454545453" type="curve" smooth="yes"/>
      <point x="150.9090909090909" y="190.54545454545456" type="line"/>
      <point x="79.0909090909091" y="194.9090909090909" type="line"/>
      <point x="44.54545454545455" y="30.454545454545453" type="line"/>
      <point x="44.54545454545455" y="30.454545454545453"/>
      <point x="123.45454545454545" y="-13.636363636363637"/>
    </contour>
    <contour>
      <point x="238.63636363636363" y="-154.0" type="line"/>
      <point x="268.0" y="15.0" type="line"/>
      <point x="211.0" y="15.0" type="line"/>
      <point x="181.63636363636363" y="-151.0" type="line"/>
    </contour>
    <contour>
      <point x="311.90909090909093" y="616.0" type="line"/>
      <point x="367.90909090909093" y="616.0" type="line"/>
      <point x="397.27272727272725" y="785.0" type="line"/>
      <point x="341.27272727272725" y="788.0" type="line"/>
    </contour>
  </outline>
</glyph>
<glyph name="ampersand" format="2">
  <advance width="844.0"/>
  <unicode hex="0026"/>
  <outline>
    <contour>
      <point x="205.1818181818182" y="-15.09090909090909" type="curve" smooth="yes"/>
      <point x="435.54545454545456" y="-15.09090909090909"/>
      <point x="637.4545454545455" y="232.54545454545453"/>
      <point x="637.4545454545455" y="512.0" type="curve" smooth="yes"/>
      <point x="637.4545454545455" y="561.7272727272727"/>
      <point x="630.4545454545455" y="615.1818181818181"/>
      <point x="619.0" y="659.9090909090909" type="curve"/>
      <point x="503.0" y="618.6363636363636" type="line"/>
      <point x="526.9090909090909" y="562.0"/>
      <point x="539.2727272727273" y="495.3636363636364"/>
      <point x="539.2727272727273" y="435.54545454545456" type="curve" smooth="yes"/>
      <point x="539.2727272727273" y="251.72727272727272"/>
      <point x="397.54545454545456" y="71.45454545454545"/>
      <point x="256.45454545454544" y="71.45454545454545" type="curve" smooth="yes"/>
      <point x="205.63636363636363" y="71.45454545454545"/>
      <point x="182.63636363636363" y="98.18181818181819"/>
      <point x="182.63636363636363" y="156.45454545454547" type="curve" smooth="yes"/>
      <point x="182.63636363636363" y="274.27272727272725"/>
      <point x="243.0" y="426.0"/>
      <point x="289.72727272727275" y="426.0" type="curve" smooth="yes"/>
      <point x="334.3636363636364" y="426.0"/>
      <point x="351.09090909090907" y="415.90909090909093"/>
      <point x="351.09090909090907" y="389.3636363636364" type="curve" smooth="yes"/>
      <point x="351.09090909090907" y="326.45454545454544"/>
      <point x="275.45454545454544" y="270.6363636363636"/>
      <point x="163.36363636363637" y="252.1818181818182" type="curve"/>
      <point x="185.1818181818182" y="245.1818181818182"/>
      <point x="206.36363636363637" y="238.1818181818182"/>
      <point x="228.1818181818182" y="231.1818181818182" type="curve"/>
      <point x="370.9090909090909" y="263.1818181818182"/>
      <point x="457.0" y="334.54545454545456"/>
      <point x="457.0" y="420.72727272727275" type="curve" smooth="yes"/>
      <point x="457.0" y="475.6363636363636"/>
      <point x="405.54545454545456" y="503.0"/>
      <point x="304.90909090909093" y="503.0" type="curve" smooth="yes"/>
      <point x="203.9090909090909" y="503.0"/>
      <point x="69.18181818181819" y="296.0"/>
      <point x="69.18181818181819" y="141.54545454545453" type="curve" smooth="yes"/>
      <point x="69.18181818181819" y="40.54545454545455"/>
      <point x="117.9090909090909" y="-15.09090909090909"/>
    </contour>
    <contour>
      <point x="151.0909090909091" y="192.27272727272728" type="line"/>
      <point x="393.0" y="236.63636363636363"/>
      <point x="562.3636363636364" y="358.3636363636364"/>
      <point x="802.0909090909091" y="455.09090909090907" type="curve"/>
      <point x="812.5454545454545" y="490.1818181818182" type="line"/>
      <point x="753.0909090909091" y="559.2727272727273" type="line"/>
      <point x="629.0909090909091" y="440.27272727272725"/>
      <point x="392.09090909090907" y="289.27272727272725"/>
      <point x="153.0909090909091" y="249.27272727272728" type="curve"/>
    </contour>
  </outline>
</glyph>
<glyph name="quotesingle" format="2">
  <advance width="300.2"/>
  <unicode hex="0027"/>
  <outline>
    <contour>
      <point x="207.45454545454544" y="462.3636363636364" type="line"/>
      <point x="258.1818181818182" y="706.0" type="line"/>
      <point x="160.27272727272728" y="706.0" type="line"/>
      <point x="158.1818181818182" y="651.0"/>
      <point x="150.72727272727272" y="573.1818181818181"/>
      <point x="148.72727272727272" y="560.0" type="curve" smooth="yes"/>
      <point x="133.27272727272728" y="466.6363636363636" type="line"/>
    </contour>
  </outline>
</glyph>
<glyph name="parenleft" format="2">
  <advance width="399.27272727272725"/>
  <unicode hex="0028"/>
  <outline>
    <contour>
      <point x="254.1818181818182" y="-101.72727272727273" type="curve"/>
      <point x="284.8181818181818" y="-82.0" type="line"/>
      <point x="230.72727272727272" y="17.636363636363637"/>
      <point x="204.63636363636363" y="133.1818181818182"/>
      <point x="204.63636363636363" y="250.8181818181818" type="curve" smooth="yes"/>
      <point x="204.63636363636363" y="441.6363636363636"/>
      <point x="274.90909090909093" y="643.6363636363636"/>
      <point x="393.54545454545456" y="792.7272727272727" type="curve"/>
      <point x="363.90909090909093" y="821.0" type="line"/>
      <point x="193.63636363636363" y="679.4545454545455"/>
      <point x="97.72727272727273" y="498.09090909090907"/>
      <point x="97.72727272727273" y="280.1818181818182" type="curve" smooth="yes"/>
      <point x="97.72727272727273" y="135.0909090909091"/>
      <point x="147.54545454545453" y="8.636363636363637"/>
    </contour>
  </outline>
</glyph>
<glyph name="parenright" format="2">
  <advance width="398.96363636363634"/>
  <unicode hex="0029"/>
  <outline>
    <contour>
      <point x="171.45454545454547" y="816.7272727272727" type="curve"/>
      <point x="140.8181818181818" y="797.0" type="line"/>
      <point x="194.9090909090909" y="697.3636363636364"/>
      <point x="221.0" y="581.8181818181819"/>
      <point x="221.0" y="464.1818181818182" type="curve" smooth="yes"/>
      <point x="221.0" y="273.3636363636364"/>
      <point x="150.72727272727272" y="71.36363636363636"/>
      <point x="32.09090909090909" y="-77.72727272727272" type="curve"/>
      <point x="61.72727272727273" y="-106.0" type="line"/>
      <point x="232.0" y="35.54545454545455"/>
      <point x="327.90909090909093" y="216.9090909090909"/>
      <point x="327.90909090909093" y="434.8181818181818" type="curve" smooth="yes"/>
      <point x="327.90909090909093" y="579.9090909090909"/>
      <point x="278.09090909090907" y="706.3636363636364"/>
    </contour>
  </outline>
</glyph>
<glyph name="asterisk" format="2">
  <advance width="462.2"/>
  <unicode hex="002A"/>
  <outline>
    <contour>
      <point x="178.0" y="427.09090909090907" type="line"/>
      <point x="297.90909090909093" y="574.2727272727273" type="line"/>
      <point x="255.63636363636363" y="610.2727272727273" type="line"/>
      <point x="120.36363636363636" y="476.09090909090907" type="line"/>
    </contour>
    <contour>
      <point x="273.1818181818182" y="553.6363636363636" type="line"/>
      <point x="297.0" y="609.4545454545455" type="line"/>
      <point x="141.54545454545453" y="678.1818181818181" type="line"/>
      <point x="108.72727272727273" y="599.3636363636364" type="line"/>
    </contour>
    <contour>
      <point x="327.6363636363636" y="424.09090909090907" type="line"/>
      <point x="394.54545454545456" y="476.72727272727275" type="line"/>
      <point x="297.0" y="609.2727272727273" type="line"/>
      <point x="246.0909090909091" y="570.2727272727273" type="line"/>
    </contour>
    <contour>
      <point x="239.63636363636363" y="575.6363636363636" type="line"/>
      <point x="299.72727272727275" y="578.2727272727273" type="line"/>
      <point x="330.72727272727275" y="757.7272727272727" type="line"/>
      <point x="250.0" y="753.0909090909091" type="line"/>
    </contour>
    <contour>
      <point x="265.27272727272725" y="554.6363636363636" type="line"/>
      <point x="442.09090909090907" y="601.3636363636364" type="line"/>
      <point x="425.27272727272725" y="678.1818181818181" type="line"/>
      <point x="253.72727272727272" y="610.4545454545455" type="line"/>
    </contour>
  </outline>
</glyph>
<glyph name="plus" format="2">
  <advance width="691.4"/>
  <unicode hex="002B"/>
  <outline>
    <contour>
      <point x="269.45454545454544" y="0.0" type="line"/>
      <point x="362.45454545454544" y="0.0" type="line"/>
      <point x="419.27272727272725" y="511.0" type="line"/>
      <point x="331.27272727272725" y="511.0" type="line"/>
    </contour>
    <contour>
      <point x="88.72727272727273" y="209.1818181818182" type="line"/>
      <point x="594.0909090909091" y="214.1818181818182" type="line"/>
      <point x="604.6363636363636" y="302.1818181818182" type="line"/>
      <point x="100.27272727272727" y="302.1818181818182" type="line"/>
    </contour>
  </outline>
</glyph>
<glyph name="comma" format="2">
  <advance width="310.09090909090907"/>
  <unicode hex="002C"/>
  <outline>
    <contour>
      <point x="31.90909090909091" y="-150.0" type="line"/>
      <point x="126.72727272727272" y="-131.63636363636363"/>
      <point x="206.9090909090909" y="-29.363636363636363"/>
      <point x="206.9090909090909" y="76.54545454545455" type="curve" smooth="yes"/>
      <point x="206.9090909090909" y="114.27272727272728"/>
      <point x="193.36363636363637" y="144.1818181818182"/>
      <point x="153.0909090909091" y="144.1818181818182" type="curve" smooth="yes"/>
      <point x="107.72727272727273" y="144.1818181818182"/>
      <point x="74.18181818181819" y="105.27272727272728"/>
      <point x="74.18181818181819" y="52.0" type="curve" smooth="yes"/>
      <point x="74.18181818181819" y="16.454545454545453"/>
      <point x="93.45454545454545" y="-10.363636363636363"/>
      <point x="134.45454545454547" y="-10.363636363636363" type="curve" smooth="yes"/>
      <point x="146.8181818181818" y="-10.363636363636363"/>
      <point x="160.8181818181818" y="-8.09090909090909"/>
      <point x="177.72727272727272" y="-2.2727272727272725" type="curve"/>
      <point x="127.27272727272728" y="27.636363636363637" type="line"/>
      <point x="128.9090909090909" y="-42.09090909090909"/>
      <point x="89.0909090909091" y="-95.72727272727273"/>
      <point x="26.363636363636363" y="-118.0" type="curve"/>
    </contour>
  </outline>
</glyph>
<glyph name="hyphen" format="2">
  <advance width="351.59999999999997"/>
  <unicode hex="002D"/>
  <outline>
    <contour>
      <point x="65.72727272727273" y="212.9090909090909" type="line"/>
      <point x="274.3636363636364" y="212.9090909090909" type="line"/>
      <point x="290.27272727272725" y="295.54545454545456" type="line"/>
      <point x="74.63636363636364" y="295.54545454545456" type="line"/>
    </contour>
  </outline>
</glyph>
<glyph name="slash" format="2">
  <advance width="406.40000000000003"/>
  <unicode hex="002F"/>
  <outline>
    <contour>
      <point x="54.36363636363636" y="-65.72727272727273" type="line"/>
      <point x="457.54545454545456" y="747.0" type="line"/>
      <point x="379.1818181818182" y="773.0" type="line"/>
      <point x="-25.0" y="-39.72727272727273" type="line"/>
    </contour>
  </outline>
</glyph>
<glyph name="two" format="2">
  <advance width="547.4"/>
  <unicode hex="0032"/>
  <outline>
    <contour>
      <point x="432.54545454545456" y="-3.0" type="line"/>
      <point x="461.1818181818182" y="17.0" type="line"/>
      <point x="491.72727272727275" y="189.63636363636363" type="line"/>
      <point x="423.45454545454544" y="194.9090909090909" type="line"/>
      <point x="412.1818181818182" y="153.9090909090909" type="line"/>
      <point x="405.1818181818182" y="138.1818181818182"/>
      <point x="385.3636363636364" y="94.45454545454545"/>
      <point x="367.54545454545456" y="59.63636363636364" type="curve"/>
      <point x="445.3636363636364" y="115.36363636363636" type="line"/>
      <point x="398.72727272727275" y="108.72727272727272"/>
      <point x="333.0" y="100.18181818181819"/>
      <point x="306.72727272727275" y="100.18181818181819" type="curve" smooth="yes"/>
      <point x="117.72727272727272" y="100.18181818181819" type="line"/>
      <point x="113.54545454545455" y="56.54545454545455" type="line"/>
      <point x="409.3636363636364" y="291.09090909090907"/>
      <point x="502.0909090909091" y="391.27272727272725"/>
      <point x="502.0909090909091" y="520.0" type="curve" smooth="yes"/>
      <point x="502.0909090909091" y="610.0909090909091"/>
      <point x="433.3636363636364" y="662.0"/>
      <point x="309.09090909090907" y="662.0" type="curve" smooth="yes"/>
      <point x="240.45454545454547" y="662.0"/>
      <point x="182.36363636363637" y="651.7272727272727"/>
      <point x="113.63636363636364" y="626.6363636363636" type="curve"/>
      <point x="100.9090909090909" y="464.1818181818182" type="line"/>
      <point x="170.72727272727272" y="468.09090909090907" type="line"/>
      <point x="175.72727272727272" y="512.1818181818181" type="line" smooth="yes"/>
      <point x="177.36363636363637" y="524.0909090909091"/>
      <point x="195.0" y="573.0"/>
      <point x="207.9090909090909" y="606.7272727272727" type="curve"/>
      <point x="152.36363636363637" y="532.6363636363636" type="line"/>
      <point x="198.54545454545453" y="565.9090909090909"/>
      <point x="240.1818181818182" y="580.7272727272727"/>
      <point x="281.27272727272725" y="580.7272727272727" type="curve" smooth="yes"/>
      <point x="331.3636363636364" y="580.7272727272727"/>
      <point x="363.27272727272725" y="549.9090909090909"/>
      <point x="363.27272727272725" y="498.09090909090907" type="curve" smooth="yes"/>
      <point x="363.27272727272725" y="401.72727272727275"/>
      <point x="289.6363636363636" y="326.45454545454544"/>
      <point x="21.09090909090909" y="88.45454545454545" type="curve"/>
      <point x="23.18181818181818" y="0.0" type="line"/>
      <point x="324.1818181818182" y="0.0" type="line"/>
    </contour>
  </outline>
</glyph>
<glyph name="three" format="2">
  <advance width="481.4"/>
  <unicode hex="0033"/>
  <outline>
    <contour>
      <point x="1.0" y="-105.0" type="line"/>
      <point x="240.1818181818182" y="-83.0909090909091"/>
      <point x="427.54545454545456" y="45.63636363636363"/>
      <point x="427.54545454545456" y="191.63636363636363" type="curve" smooth="yes"/>
      <point x="427.54545454545456" y="269.27272727272725"/>
      <point x="363.72727272727275" y="333.09090909090907"/>
      <point x="271.90909090909093" y="338.54545454545456" type="curve"/>
      <point x="268.09090909090907" y="317.09090909090907" type="line"/>
      <point x="371.45454545454544" y="349.72727272727275"/>
      <point x="443.3636363636364" y="420.27272727272725"/>
      <point x="443.3636363636364" y="520.3636363636364" type="curve" smooth="yes"/>
      <point x="443.3636363636364" y="613.0909090909091"/>
      <point x="377.6363636363636" y="662.0"/>
      <point x="254.27272727272728" y="662.0" type="curve" smooth="yes"/>
      <point x="198.54545454545453" y="662.0"/>
      <point x="141.45454545454547" y="652.7272727272727"/>
      <point x="83.63636363636364" y="633.0" type="curve"/>
      <point x="75.63636363636364" y="474.09090909090907" type="line"/>
      <point x="145.1818181818182" y="478.3636363636364" type="line"/>
      <point x="151.72727272727272" y="528.0909090909091" type="line" smooth="yes"/>
      <point x="153.36363636363637" y="541.6363636363636"/>
      <point x="172.0" y="588.9090909090909"/>
      <point x="184.27272727272728" y="623.2727272727273" type="curve"/>
      <point x="138.0" y="557.0" type="line"/>
      <point x="163.0909090909091" y="576.5454545454545"/>
      <point x="201.27272727272728" y="587.4545454545455"/>
      <point x="239.45454545454547" y="587.4545454545455" type="curve" smooth="yes"/>
      <point x="286.6363636363636" y="587.4545454545455"/>
      <point x="311.90909090909093" y="560.7272727272727"/>
      <point x="311.90909090909093" y="511.72727272727275" type="curve" smooth="yes"/>
      <point x="311.90909090909093" y="414.1818181818182"/>
      <point x="240.0" y="354.72727272727275"/>
      <point x="125.45454545454545" y="337.1818181818182" type="curve"/>
      <point x="130.9090909090909" y="274.0" type="line"/>
      <point x="130.9090909090909" y="274.0"/>
      <point x="165.0" y="277.6363636363636"/>
      <point x="193.0909090909091" y="277.6363636363636" type="curve" smooth="yes"/>
      <point x="254.27272727272728" y="277.6363636363636"/>
      <point x="287.1818181818182" y="244.54545454545453"/>
      <point x="287.1818181818182" y="187.54545454545453" type="curve" smooth="yes"/>
      <point x="287.1818181818182" y="64.72727272727273"/>
      <point x="148.63636363636363" y="-16.090909090909093"/>
      <point x="-10.272727272727273" y="-38.09090909090909" type="curve"/>
    </contour>
  </outline>
</glyph>
<glyph name="nine" format="2">
  <advance width="553.1999999999999"/>
  <unicode hex="0039"/>
  <outline>
    <contour>
      <point x="34.54545454545455" y="-105.72727272727273" type="line"/>
      <point x="320.90909090909093" y="-51.54545454545455"/>
      <point x="527.4545454545455" y="202.0"/>
      <point x="527.4545454545455" y="450.3636363636364" type="curve" smooth="yes"/>
      <point x="527.4545454545455" y="575.6363636363636"/>
      <point x="456.09090909090907" y="662.0"/>
      <point x="318.1818181818182" y="662.0" type="curve" smooth="yes"/>
      <point x="185.63636363636363" y="662.0"/>
      <point x="60.09090909090909" y="558.0"/>
      <point x="60.09090909090909" y="410.09090909090907" type="curve" smooth="yes"/>
      <point x="60.09090909090909" y="304.45454545454544"/>
      <point x="128.72727272727272" y="242.0"/>
      <point x="240.9090909090909" y="242.0" type="curve" smooth="yes"/>
      <point x="269.45454545454544" y="242.0"/>
      <point x="295.0" y="247.36363636363637"/>
      <point x="312.54545454545456" y="254.1818181818182" type="curve"/>
      <point x="314.09090909090907" y="316.0" type="line"/>
      <point x="301.3636363636364" y="314.27272727272725"/>
      <point x="288.72727272727275" y="313.0"/>
      <point x="272.1818181818182" y="313.0" type="curve" smooth="yes"/>
      <point x="224.27272727272728" y="313.0"/>
      <point x="197.0" y="359.45454545454544"/>
      <point x="197.0" y="418.1818181818182" type="curve" smooth="yes"/>
      <point x="197.0" y="510.3636363636364"/>
      <point x="245.45454545454544" y="584.1818181818181"/>
      <point x="308.1818181818182" y="584.1818181818181" type="curve" smooth="yes"/>
      <point x="367.45454545454544" y="584.1818181818181"/>
      <point x="391.1818181818182" y="522.2727272727273"/>
      <point x="391.1818181818182" y="450.72727272727275" type="curve" smooth="yes"/>
      <point x="391.1818181818182" y="242.36363636363637"/>
      <point x="264.0" y="28.09090909090909"/>
      <point x="23.727272727272727" y="-40.45454545454545" type="curve"/>
    </contour>
  </outline>
</glyph>
<glyph name="colon" format="2">
  <advance width="283.40000000000003"/>
  <unicode hex="003A"/>
  <outline>
    <contour>
      <point x="155.45454545454547" y="334.1818181818182" type="curve" smooth="yes"/>
      <point x="201.54545454545453" y="334.1818181818182"/>
      <point x="233.36363636363637" y="371.27272727272725"/>
      <point x="233.36363636363637" y="423.6363636363636" type="curve" smooth="yes"/>
      <point x="233.36363636363637" y="459.3636363636364"/>
      <point x="213.9090909090909" y="481.1818181818182"/>
      <point x="179.27272727272728" y="481.1818181818182" type="curve" smooth="yes"/>
      <point x="133.54545454545453" y="481.1818181818182"/>
      <point x="100.72727272727272" y="443.3636363636364"/>
      <point x="100.72727272727272" y="390.72727272727275" type="curve" smooth="yes"/>
      <point x="100.72727272727272" y="357.0"/>
      <point x="119.54545454545455" y="334.1818181818182"/>
    </contour>
    <contour>
      <point x="100.27272727272728" y="-13.181818181818182" type="curve" smooth="yes"/>
      <point x="146.63636363636363" y="-13.181818181818182"/>
      <point x="178.45454545454544" y="24.272727272727273"/>
      <point x="178.45454545454544" y="76.63636363636364" type="curve" smooth="yes"/>
      <point x="178.45454545454544" y="113.0"/>
      <point x="158.0" y="134.1818181818182"/>
      <point x="124.36363636363636" y="134.1818181818182" type="curve" smooth="yes"/>
      <point x="78.63636363636364" y="134.1818181818182"/>
      <point x="46.18181818181818" y="96.36363636363636"/>
      <point x="46.18181818181818" y="43.72727272727273" type="curve" smooth="yes"/>
      <point x="46.18181818181818" y="10.0"/>
      <point x="64.63636363636364" y="-13.181818181818182"/>
    </contour>
  </outline>
</glyph>
<glyph name="less" format="2">
  <advance width="522.6"/>
  <unicode hex="003C"/>
  <outline>
    <contour>
      <point x="339.0" y="-15.0" type="line"/>
      <point x="406.54545454545456" y="51.27272727272727" type="line"/>
      <point x="175.27272727272728" y="283.0" type="line"/>
      <point x="167.36363636363637" y="214.27272727272728" type="line"/>
      <point x="451.6363636363636" y="446.72727272727275" type="line"/>
      <point x="400.0" y="513.0" type="line"/>
      <point x="82.45454545454545" y="248.27272727272728" type="line"/>
    </contour>
  </outline>
</glyph>
<glyph name="equal" format="2">
  <advance width="681.0"/>
  <unicode hex="003D"/>
  <outline>
    <contour>
      <point x="124.63636363636364" y="295.6363636363636" type="line"/>
      <point x="567.7272727272727" y="300.6363636363636" type="line"/>
      <point x="578.6363636363636" y="387.45454545454544" type="line"/>
      <point x="136.1818181818182" y="387.45454545454544" type="line"/>
    </contour>
    <contour>
      <point x="102.54545454545455" y="106.36363636363636" type="line"/>
      <point x="545.6363636363636" y="109.54545454545455" type="line"/>
      <point x="556.5454545454545" y="198.54545454545453" type="line"/>
      <point x="113.36363636363636" y="196.36363636363637" type="line"/>
    </contour>
  </outline>
</glyph>
<glyph name="greater" format="2">
  <advance width="524.0"/>
  <unicode hex="003E"/>
  <outline>
    <contour>
      <point x="123.54545454545455" y="-15.636363636363637" type="line"/>
      <point x="441.3636363636364" y="247.63636363636363" type="line"/>
      <point x="185.1818181818182" y="512.3636363636364" type="line"/>
      <point x="117.63636363636364" y="446.09090909090907" type="line"/>
      <point x="348.27272727272725" y="213.63636363636363" type="line"/>
      <point x="356.45454545454544" y="282.3636363636364" type="line"/>
      <point x="72.18181818181819" y="50.63636363636364" type="line"/>
    </contour>
  </outline>
</glyph>
<glyph name="question" format="2">
  <advance width="472.40000000000003"/>
  <unicode hex="003F"/>
  <outline>
    <contour>
      <point x="189.9090909090909" y="221.72727272727272" type="line"/>
      <point x="203.54545454545456" y="233.72727272727272" type="line"/>
      <point x="218.0909090909091" y="409.09090909090907" type="line"/>
      <point x="177.1818181818182" y="358.6363636363636" type="line"/>
      <point x="189.72727272727272" y="357.0"/>
      <point x="201.27272727272728" y="357.0"/>
      <point x="213.8181818181818" y="357.0" type="curve" smooth="yes"/>
      <point x="359.54545454545456" y="357.0"/>
      <point x="455.27272727272725" y="450.3636363636364"/>
      <point x="455.27272727272725" y="594.0" type="curve" smooth="yes"/>
      <point x="455.27272727272725" y="706.0909090909091"/>
      <point x="383.09090909090907" y="767.0"/>
      <point x="272.54545454545456" y="767.0" type="curve" smooth="yes"/>
      <point x="234.27272727272728" y="767.0"/>
      <point x="188.36363636363637" y="760.0"/>
      <point x="138.45454545454547" y="744.3636363636364" type="curve"/>
      <point x="130.1818181818182" y="591.0" type="line"/>
      <point x="191.45454545454547" y="594.1818181818181" type="line"/>
      <point x="194.1818181818182" y="627.5454545454545" type="line" smooth="yes"/>
      <point x="195.54545454545453" y="645.2727272727273"/>
      <point x="211.36363636363637" y="695.9090909090909"/>
      <point x="220.63636363636363" y="732.2727272727273" type="curve"/>
      <point x="144.45454545454547" y="677.9090909090909" type="line"/>
      <point x="181.54545454545453" y="693.5454545454545"/>
      <point x="216.1818181818182" y="702.5454545454545"/>
      <point x="247.1818181818182" y="702.5454545454545" type="curve" smooth="yes"/>
      <point x="309.0" y="702.5454545454545"/>
      <point x="344.54545454545456" y="665.3636363636364"/>
      <point x="344.54545454545456" y="598.5454545454545" type="curve" smooth="yes"/>
      <point x="344.54545454545456" y="502.6363636363636"/>
      <point x="292.27272727272725" y="424.6363636363636"/>
      <point x="204.45454545454547" y="424.6363636363636" type="curve" smooth="yes"/>
      <point x="194.45454545454547" y="424.6363636363636"/>
      <point x="169.27272727272728" y="426.0"/>
      <point x="154.0" y="428.0" type="curve"/>
      <point x="124.18181818181819" y="398.0" type="line"/>
      <point x="103.9090909090909" y="225.36363636363637" type="line"/>
    </contour>
    <contour>
      <point x="120.9090909090909" y="-13.181818181818182" type="curve" smooth="yes"/>
      <point x="164.9090909090909" y="-13.181818181818182"/>
      <point x="190.72727272727272" y="21.0"/>
      <point x="190.72727272727272" y="68.72727272727273" type="curve" smooth="yes"/>
      <point x="190.72727272727272" y="109.0"/>
      <point x="168.63636363636363" y="134.1818181818182"/>
      <point x="130.9090909090909" y="134.1818181818182" type="curve" smooth="yes"/>
      <point x="86.54545454545455" y="134.1818181818182"/>
      <point x="61.0" y="99.72727272727272"/>
      <point x="61.0" y="51.36363636363636" type="curve" smooth="yes"/>
      <point x="61.0" y="12.272727272727273"/>
      <point x="81.9090909090909" y="-13.181818181818182"/>
    </contour>
  </outline>
</glyph>
<glyph name="at" format="2">
  <advance width="1011.1999999999999"/>
  <unicode hex="0040"/>
  <outline>
    <contour>
      <point x="424.45454545454544" y="-210.1818181818182" type="curve" smooth="yes"/>
      <point x="498.3636363636364" y="-210.1818181818182"/>
      <point x="620.0909090909091" y="-174.54545454545456"/>
      <point x="679.1818181818181" y="-157.45454545454547" type="curve"/>
      <point x="672.9090909090909" y="-113.18181818181819" type="line"/>
      <point x="672.9090909090909" y="-113.18181818181819"/>
      <point x="507.09090909090907" y="-136.1818181818182"/>
      <point x="457.09090909090907" y="-136.1818181818182" type="curve" smooth="yes"/>
      <point x="277.27272727272725" y="-136.1818181818182"/>
      <point x="186.36363636363637" y="-33.36363636363637"/>
      <point x="186.36363636363637" y="144.0" type="curve" smooth="yes"/>
      <point x="186.36363636363637" y="388.0"/>
      <point x="314.90909090909093" y="609.1818181818181"/>
      <point x="558.9090909090909" y="609.1818181818181" type="curve" smooth="yes"/>
      <point x="731.0909090909091" y="609.1818181818181"/>
      <point x="847.7272727272727" y="512.6363636363636"/>
      <point x="847.7272727272727" y="342.0" type="curve" smooth="yes"/>
      <point x="847.7272727272727" y="180.0"/>
      <point x="771.5454545454545" y="84.0909090909091"/>
      <point x="670.1818181818181" y="56.09090909090909" type="curve"/>
      <point x="683.0909090909091" y="29.454545454545453" type="line"/>
      <point x="684.1818181818181" y="205.9090909090909"/>
      <point x="709.1818181818181" y="341.3636363636364"/>
      <point x="745.2727272727273" y="485.54545454545456" type="curve"/>
      <point x="713.4545454545455" y="506.45454545454544" type="line"/>
      <point x="616.0909090909091" y="484.1818181818182" type="line"/>
      <point x="614.0909090909091" y="435.72727272727275" type="line" smooth="yes"/>
      <point x="607.4545454545455" y="275.3636363636364"/>
      <point x="495.54545454545456" y="81.45454545454545"/>
      <point x="439.45454545454544" y="81.45454545454545" type="curve" smooth="yes"/>
      <point x="415.0" y="81.45454545454545"/>
      <point x="403.90909090909093" y="113.9090909090909"/>
      <point x="403.90909090909093" y="160.27272727272728" type="curve" smooth="yes"/>
      <point x="403.90909090909093" y="279.09090909090907"/>
      <point x="457.45454545454544" y="425.72727272727275"/>
      <point x="500.27272727272725" y="425.72727272727275" type="curve" smooth="yes"/>
      <point x="553.5454545454545" y="425.72727272727275"/>
      <point x="627.7272727272727" y="387.1818181818182"/>
      <point x="639.1818181818181" y="383.3636363636364" type="curve"/>
      <point x="652.9090909090909" y="489.0" type="line"/>
      <point x="632.9090909090909" y="490.0"/>
      <point x="551.7272727272727" y="506.45454545454544"/>
      <point x="516.1818181818181" y="506.45454545454544" type="curve" smooth="yes"/>
      <point x="410.1818181818182" y="506.45454545454544"/>
      <point x="289.54545454545456" y="300.1818181818182"/>
      <point x="289.54545454545456" y="137.72727272727272" type="curve" smooth="yes"/>
      <point x="289.54545454545456" y="50.72727272727273"/>
      <point x="317.90909090909093" y="-14.09090909090909"/>
      <point x="379.1818181818182" y="-14.09090909090909" type="curve" smooth="yes"/>
      <point x="473.09090909090907" y="-14.09090909090909"/>
      <point x="560.0909090909091" y="97.18181818181819"/>
      <point x="616.7272727272727" y="233.45454545454544" type="curve"/>
      <point x="606.9090909090909" y="250.54545454545456" type="line"/>
      <point x="599.5454545454545" y="158.0"/>
      <point x="575.6363636363636" y="72.72727272727272"/>
      <point x="554.1818181818181" y="0.0" type="curve"/>
      <point x="584.5454545454545" y="-16.90909090909091" type="line"/>
      <point x="796.0" y="-0.9090909090909092"/>
      <point x="946.7272727272727" y="161.27272727272728"/>
      <point x="946.7272727272727" y="349.0" type="curve" smooth="yes"/>
      <point x="946.7272727272727" y="567.1818181818181"/>
      <point x="796.3636363636364" y="667.0"/>
      <point x="578.5454545454545" y="667.0" type="curve" smooth="yes"/>
      <point x="265.8181818181818" y="667.0"/>
      <point x="74.0909090909091" y="456.90909090909093"/>
      <point x="74.0909090909091" y="144.1818181818182" type="curve" smooth="yes"/>
      <point x="74.0909090909091" y="-102.72727272727272"/>
      <point x="215.72727272727272" y="-210.1818181818182"/>
    </contour>
  </outline>
</glyph>
<glyph name="A" format="2">
  <advance width="696.0"/>
  <unicode hex="0041"/>
  <anchor x="317.1818181818182" y="0.0" name="bottom"/>
  <anchor x="581.0" y="10.0" name="ogonek"/>
  <anchor x="414.1818181818182" y="705.0" name="top"/>
  <outline>
    <contour>
      <point x="1.0" y="-5.0" type="line"/>
      <point x="43.72727272727273" y="-3.0"/>
      <point x="106.0909090909091" y="0.0"/>
      <point x="129.1818181818182" y="0.0" type="curve" smooth="yes"/>
      <point x="227.72727272727272" y="0.0" type="line"/>
      <point x="241.0" y="61.90909090909091" type="line"/>
      <point x="131.72727272727272" y="75.63636363636364" type="line"/>
      <point x="176.36363636363637" y="37.90909090909091" type="line"/>
      <point x="178.72727272727272" y="64.18181818181819"/>
      <point x="187.0909090909091" y="105.0"/>
      <point x="196.72727272727272" y="126.9090909090909" type="curve" smooth="yes"/>
      <point x="406.0" y="591.9090909090909" type="line"/>
      <point x="371.1818181818182" y="583.0" type="line"/>
      <point x="439.3636363636364" y="150.27272727272728" type="line" smooth="yes"/>
      <point x="444.45454545454544" y="119.9090909090909"/>
      <point x="441.72727272727275" y="61.36363636363637"/>
      <point x="441.1818181818182" y="40.0" type="curve"/>
      <point x="490.0" y="80.63636363636364" type="line"/>
      <point x="376.6363636363636" y="54.09090909090909" type="line"/>
      <point x="371.3636363636364" y="-5.0" type="line"/>
      <point x="419.6363636363636" y="-3.0"/>
      <point x="487.6363636363636" y="0.0"/>
      <point x="516.5454545454545" y="0.0" type="curve" smooth="yes"/>
      <point x="631.2727272727273" y="0.0" type="line"/>
      <point x="644.5454545454545" y="61.90909090909091" type="line"/>
      <point x="540.0909090909091" y="75.36363636363636" type="line"/>
      <point x="598.0" y="43.54545454545455" type="line"/>
      <point x="591.7272727272727" y="57.18181818181818"/>
      <point x="575.1818181818181" y="108.45454545454545"/>
      <point x="570.5454545454545" y="132.9090909090909" type="curve" smooth="yes"/>
      <point x="453.54545454545456" y="715.6363636363636" type="line"/>
      <point x="368.90909090909093" y="705.0" type="line"/>
      <point x="115.9090909090909" y="164.1818181818182" type="line" smooth="yes"/>
      <point x="97.0" y="123.63636363636364"/>
      <point x="56.54545454545455" y="62.72727272727273"/>
      <point x="46.90909090909091" y="48.18181818181818" type="curve"/>
      <point x="106.0909090909091" y="76.63636363636364" type="line"/>
      <point x="4.636363636363637" y="53.45454545454545" type="line"/>
    </contour>
    <contour>
      <point x="214.63636363636363" y="208.0" type="line"/>
      <point x="448.45454545454544" y="208.0" type="line"/>
      <point x="441.0" y="275.90909090909093" type="line"/>
      <point x="242.63636363636363" y="272.54545454545456" type="line"/>
    </contour>
  </outline>
</glyph>
<glyph name="B" format="2">
  <advance width="622.8000000000001"/>
  <unicode hex="0042"/>
  <anchor x="279.45454545454544" y="0.0" name="bottom"/>
  <anchor x="377.72727272727275" y="705.0" name="top"/>
  <outline>
    <contour>
      <point x="9.636363636363637" y="-5.0" type="line"/>
      <point x="57.18181818181818" y="-3.0"/>
      <point x="123.72727272727273" y="0.0"/>
      <point x="151.27272727272728" y="0.0" type="curve" smooth="yes"/>
      <point x="197.1818181818182" y="0.0"/>
      <point x="274.09090909090907" y="-5.0"/>
      <point x="319.3636363636364" y="-5.0" type="curve" smooth="yes"/>
      <point x="451.6363636363636" y="-5.0"/>
      <point x="566.2727272727273" y="73.0"/>
      <point x="566.2727272727273" y="211.1818181818182" type="curve" smooth="yes"/>
      <point x="566.2727272727273" y="309.72727272727275"/>
      <point x="489.54545454545456" y="364.1818181818182"/>
      <point x="383.1818181818182" y="366.6363636363636" type="curve"/>
      <point x="413.72727272727275" y="315.6363636363636" type="line"/>
      <point x="428.54545454545456" y="418.0" type="line"/>
      <point x="387.45454545454544" y="365.0" type="line"/>
      <point x="496.90909090909093" y="375.54545454545456"/>
      <point x="588.2727272727273" y="456.09090909090907"/>
      <point x="588.2727272727273" y="563.4545454545455" type="curve" smooth="yes"/>
      <point x="588.2727272727273" y="656.6363636363636"/>
      <point x="501.1818181818182" y="710.0"/>
      <point x="399.90909090909093" y="710.0" type="curve" smooth="yes"/>
      <point x="358.0" y="710.0"/>
      <point x="273.45454545454544" y="705.0"/>
      <point x="232.54545454545453" y="705.0" type="curve" smooth="yes"/>
      <point x="213.9090909090909" y="705.0"/>
      <point x="154.27272727272728" y="708.0"/>
      <point x="115.0" y="710.0" type="curve"/>
      <point x="100.72727272727273" y="646.5454545454545" type="line"/>
      <point x="216.36363636363637" y="626.0" type="line"/>
      <point x="168.72727272727272" y="666.5454545454545" type="line"/>
      <point x="168.36363636363637" y="646.5454545454545"/>
      <point x="169.0" y="585.1818181818181"/>
      <point x="163.1818181818182" y="542.7272727272727" type="curve" smooth="yes"/>
      <point x="105.54545454545455" y="148.36363636363637" type="line" smooth="yes"/>
      <point x="101.27272727272727" y="121.0909090909091"/>
      <point x="83.9090909090909" y="62.0"/>
      <point x="76.27272727272727" y="37.36363636363636" type="curve"/>
      <point x="133.27272727272728" y="77.18181818181819" type="line"/>
      <point x="12.90909090909091" y="54.18181818181818" type="line"/>
    </contour>
    <contour>
      <point x="218.36363636363637" y="48.0" type="line"/>
      <point x="217.63636363636363" y="60.63636363636364"/>
      <point x="224.0" y="136.0909090909091"/>
      <point x="230.27272727272728" y="179.0" type="curve" smooth="yes"/>
      <point x="282.3636363636364" y="539.9090909090909" type="line" smooth="yes"/>
      <point x="287.72727272727275" y="575.0909090909091"/>
      <point x="304.72727272727275" y="640.0"/>
      <point x="310.0" y="661.9090909090909" type="curve"/>
      <point x="278.45454545454544" y="638.6363636363636" type="line"/>
      <point x="302.3636363636364" y="640.3636363636364"/>
      <point x="344.90909090909093" y="643.3636363636364"/>
      <point x="374.3636363636364" y="643.3636363636364" type="curve" smooth="yes"/>
      <point x="432.54545454545456" y="643.3636363636364"/>
      <point x="469.6363636363636" y="603.2727272727273"/>
      <point x="469.6363636363636" y="548.9090909090909" type="curve" smooth="yes"/>
      <point x="469.6363636363636" y="454.1818181818182"/>
      <point x="403.72727272727275" y="400.0"/>
      <point x="323.90909090909093" y="400.0" type="curve" smooth="yes"/>
      <point x="317.54545454545456" y="400.0" type="line"/>
      <point x="300.6363636363636" y="329.09090909090907" type="line"/>
      <point x="311.0" y="329.09090909090907" type="line" smooth="yes"/>
      <point x="381.90909090909093" y="329.09090909090907"/>
      <point x="441.90909090909093" y="296.72727272727275"/>
      <point x="441.90909090909093" y="216.72727272727272" type="curve" smooth="yes"/>
      <point x="441.90909090909093" y="121.0909090909091"/>
      <point x="377.72727272727275" y="63.72727272727273"/>
      <point x="292.54545454545456" y="63.72727272727273" type="curve" smooth="yes"/>
      <point x="259.0" y="63.72727272727273"/>
      <point x="215.27272727272728" y="67.45454545454545"/>
      <point x="198.1818181818182" y="70.18181818181819" type="curve"/>
    </contour>
  </outline>
</glyph>
<glyph name="C" format="2">
  <advance width="648.8000000000001"/>
  <unicode hex="0043"/>
  <anchor x="316.54545454545456" y="0.0" name="bottom"/>
  <anchor x="453.09090909090907" y="720.0" name="top"/>
  <outline>
    <contour>
      <point x="345.45454545454544" y="-15.0" type="curve" smooth="yes"/>
      <point x="426.3636363636364" y="-15.0"/>
      <point x="492.45454545454544" y="3.0"/>
      <point x="557.7272727272727" y="19.0" type="curve"/>
      <point x="573.7272727272727" y="179.45454545454547" type="line"/>
      <point x="508.45454545454544" y="177.45454545454547" type="line"/>
      <point x="506.45454545454544" y="165.72727272727272"/>
      <point x="503.45454545454544" y="147.72727272727272"/>
      <point x="499.1818181818182" y="129.54545454545453" type="curve" smooth="yes"/>
      <point x="494.45454545454544" y="113.0909090909091"/>
      <point x="471.45454545454544" y="63.54545454545455"/>
      <point x="457.54545454545456" y="33.54545454545455" type="curve"/>
      <point x="525.1818181818181" y="84.9090909090909" type="line"/>
      <point x="467.3636363636364" y="71.54545454545455"/>
      <point x="407.45454545454544" y="58.45454545454545"/>
      <point x="353.09090909090907" y="58.45454545454545" type="curve" smooth="yes"/>
      <point x="249.54545454545456" y="58.45454545454545"/>
      <point x="198.9090909090909" y="154.9090909090909"/>
      <point x="198.9090909090909" y="280.45454545454544" type="curve" smooth="yes"/>
      <point x="198.9090909090909" y="462.6363636363636"/>
      <point x="274.09090909090907" y="646.5454545454545"/>
      <point x="434.45454545454544" y="646.5454545454545" type="curve" smooth="yes"/>
      <point x="487.09090909090907" y="646.5454545454545"/>
      <point x="541.9090909090909" y="632.0909090909091"/>
      <point x="595.0909090909091" y="620.0" type="curve"/>
      <point x="541.9090909090909" y="675.0" type="line"/>
      <point x="546.1818181818181" y="643.4545454545455"/>
      <point x="553.7272727272727" y="593.0"/>
      <point x="552.3636363636364" y="581.0909090909091" type="curve" smooth="yes"/>
      <point x="546.0" y="528.0909090909091" type="line"/>
      <point x="611.2727272727273" y="524.0909090909091" type="line"/>
      <point x="645.7272727272727" y="686.0" type="line"/>
      <point x="585.4545454545455" y="702.0"/>
      <point x="526.2727272727273" y="720.0"/>
      <point x="444.3636363636364" y="720.0" type="curve" smooth="yes"/>
      <point x="195.9090909090909" y="720.0"/>
      <point x="61.45454545454545" y="530.9090909090909"/>
      <point x="61.45454545454545" y="284.1818181818182" type="curve" smooth="yes"/>
      <point x="61.45454545454545" y="106.27272727272727"/>
      <point x="159.36363636363637" y="-15.0"/>
    </contour>
  </outline>
</glyph>
<glyph name="D" format="2">
  <advance width="729.6"/>
  <unicode hex="0044"/>
  <anchor x="296.90909090909093" y="0.0" name="bottom"/>
  <anchor x="210.1818181818182" y="353.0" name="center"/>
  <anchor x="398.0" y="720.0" name="top"/>
  <outline>
    <contour>
      <point x="9.636363636363637" y="-5.0" type="line"/>
      <point x="49.45454545454545" y="-3.0"/>
      <point x="124.36363636363636" y="0.0"/>
      <point x="151.27272727272728" y="0.0" type="curve" smooth="yes"/>
      <point x="206.27272727272728" y="0.0"/>
      <point x="250.45454545454547" y="-5.0"/>
      <point x="305.54545454545456" y="-5.0" type="curve" smooth="yes"/>
      <point x="552.3636363636364" y="-5.0"/>
      <point x="694.5454545454545" y="173.54545454545453"/>
      <point x="694.5454545454545" y="416.72727272727275" type="curve" smooth="yes"/>
      <point x="694.5454545454545" y="592.1818181818181"/>
      <point x="589.3636363636364" y="710.0"/>
      <point x="396.54545454545456" y="710.0" type="curve" smooth="yes"/>
      <point x="354.6363636363636" y="710.0"/>
      <point x="275.3636363636364" y="705.0"/>
      <point x="232.54545454545453" y="705.0" type="curve" smooth="yes"/>
      <point x="208.0" y="705.0"/>
      <point x="150.0909090909091" y="708.0"/>
      <point x="115.0" y="710.0" type="curve"/>
      <point x="100.72727272727273" y="646.5454545454545" type="line"/>
      <point x="216.36363636363637" y="626.0" type="line"/>
      <point x="170.9090909090909" y="680.7272727272727" type="line"/>
      <point x="169.0" y="647.7272727272727"/>
      <point x="167.0909090909091" y="570.6363636363636"/>
      <point x="163.1818181818182" y="542.7272727272727" type="curve" smooth="yes"/>
      <point x="105.54545454545455" y="148.36363636363637" type="line" smooth="yes"/>
      <point x="101.54545454545455" y="121.36363636363636"/>
      <point x="84.9090909090909" y="65.0909090909091"/>
      <point x="76.0" y="35.27272727272727" type="curve"/>
      <point x="133.27272727272728" y="77.18181818181819" type="line"/>
      <point x="12.90909090909091" y="54.18181818181818" type="line"/>
    </contour>
    <contour>
      <point x="218.0" y="45.54545454545455" type="line"/>
      <point x="217.63636363636363" y="67.45454545454545"/>
      <point x="224.0" y="133.45454545454547"/>
      <point x="230.27272727272728" y="178.36363636363637" type="curve" smooth="yes"/>
      <point x="282.3636363636364" y="539.9090909090909" type="line" smooth="yes"/>
      <point x="286.72727272727275" y="569.9090909090909"/>
      <point x="304.09090909090907" y="639.0"/>
      <point x="312.54545454545456" y="674.0909090909091" type="curve"/>
      <point x="260.0" y="635.9090909090909" type="line"/>
      <point x="301.0" y="638.6363636363636"/>
      <point x="352.6363636363636" y="639.9090909090909"/>
      <point x="387.45454545454544" y="639.9090909090909" type="curve" smooth="yes"/>
      <point x="513.7272727272727" y="639.9090909090909"/>
      <point x="565.5454545454545" y="538.9090909090909"/>
      <point x="565.5454545454545" y="416.72727272727275" type="curve" smooth="yes"/>
      <point x="565.5454545454545" y="243.36363636363637"/>
      <point x="496.27272727272725" y="64.72727272727272"/>
      <point x="307.27272727272725" y="64.72727272727272" type="curve" smooth="yes"/>
      <point x="275.6363636363636" y="64.72727272727272"/>
      <point x="199.0909090909091" y="68.36363636363636"/>
      <point x="178.27272727272728" y="70.0" type="curve"/>
    </contour>
  </outline>
</glyph>
<glyph name="E" format="2">
  <advance width="598.6"/>
  <unicode hex="0045"/>
  <anchor x="265.3636363636364" y="0.0" name="bottom"/>
  <anchor x="482.90909090909093" y="0.0" name="ogonek"/>
  <anchor x="366.3636363636364" y="720.0" name="top"/>
  <anchor x="95.9090909090909" y="705.0" name="topleft"/>
  <outline>
    <contour>
      <point x="9.636363636363637" y="-5.0" type="line"/>
      <point x="60.63636363636364" y="-2.3636363636363638"/>
      <point x="121.18181818181819" y="0.0"/>
      <point x="151.27272727272728" y="0.0" type="curve" smooth="yes"/>
      <point x="367.6363636363636" y="0.0" type="line" smooth="yes"/>
      <point x="394.6363636363636" y="0.0"/>
      <point x="443.3636363636364" y="0.0"/>
      <point x="482.90909090909093" y="0.0" type="curve"/>
      <point x="498.6363636363636" y="14.0" type="line"/>
      <point x="537.5454545454545" y="176.36363636363637" type="line"/>
      <point x="477.27272727272725" y="181.36363636363637" type="line"/>
      <point x="472.90909090909093" y="165.36363636363637"/>
      <point x="461.1818181818182" y="131.9090909090909"/>
      <point x="455.09090909090907" y="119.0909090909091" type="curve" smooth="yes"/>
      <point x="449.09090909090907" y="105.0909090909091"/>
      <point x="427.1818181818182" y="72.45454545454545"/>
      <point x="402.0" y="44.0" type="curve"/>
      <point x="450.1818181818182" y="83.54545454545455" type="line"/>
      <point x="432.45454545454544" y="79.54545454545455"/>
      <point x="390.0" y="70.9090909090909"/>
      <point x="349.1818181818182" y="70.9090909090909" type="curve" smooth="yes"/>
      <point x="172.0" y="70.9090909090909" type="line"/>
      <point x="218.0" y="38.45454545454545" type="line"/>
      <point x="218.0" y="58.90909090909091"/>
      <point x="224.0" y="136.1818181818182"/>
      <point x="230.27272727272728" y="178.36363636363637" type="curve" smooth="yes"/>
      <point x="259.0" y="375.90909090909093" type="line"/>
      <point x="204.0909090909091" y="328.54545454545456" type="line"/>
      <point x="328.27272727272725" y="328.54545454545456" type="line" smooth="yes"/>
      <point x="346.54545454545456" y="328.54545454545456"/>
      <point x="406.09090909090907" y="322.27272727272725"/>
      <point x="445.0" y="317.6363636363636" type="curve"/>
      <point x="397.72727272727275" y="370.54545454545456" type="line"/>
      <point x="395.27272727272725" y="258.3636363636364" type="line"/>
      <point x="450.54545454545456" y="264.3636363636364" type="line"/>
      <point x="457.1818181818182" y="328.90909090909093"/>
      <point x="466.90909090909093" y="388.45454545454544"/>
      <point x="479.90909090909093" y="465.27272727272725" type="curve"/>
      <point x="427.6363636363636" y="470.27272727272725" type="line"/>
      <point x="393.72727272727275" y="355.54545454545456" type="line"/>
      <point x="455.27272727272725" y="408.09090909090907" type="line"/>
      <point x="414.45454545454544" y="401.90909090909093"/>
      <point x="368.1818181818182" y="395.90909090909093"/>
      <point x="357.1818181818182" y="395.90909090909093" type="curve" smooth="yes"/>
      <point x="213.36363636363637" y="395.90909090909093" type="line"/>
      <point x="254.45454545454544" y="348.54545454545456" type="line"/>
      <point x="283.0" y="539.9090909090909" type="line" smooth="yes"/>
      <point x="287.3636363636364" y="570.4545454545455"/>
      <point x="306.09090909090907" y="647.4545454545455"/>
      <point x="310.72727272727275" y="668.0" type="curve"/>
      <point x="255.1818181818182" y="637.6363636363636" type="line"/>
      <point x="418.72727272727275" y="637.6363636363636" type="line" smooth="yes"/>
      <point x="443.54545454545456" y="637.6363636363636"/>
      <point x="509.45454545454544" y="632.6363636363636"/>
      <point x="538.9090909090909" y="630.6363636363636" type="curve"/>
      <point x="478.72727272727275" y="677.9090909090909" type="line"/>
      <point x="490.54545454545456" y="652.7272727272727"/>
      <point x="505.6363636363636" y="609.3636363636364"/>
      <point x="506.0" y="598.6363636363636" type="curve" smooth="yes"/>
      <point x="506.3636363636364" y="586.1818181818181"/>
      <point x="507.3636363636364" y="563.1818181818181"/>
      <point x="507.72727272727275" y="547.1818181818181" type="curve"/>
      <point x="570.7272727272727" y="552.1818181818181" type="line"/>
      <point x="585.6363636363636" y="692.0" type="line"/>
      <point x="569.6363636363636" y="710.0" type="line"/>
      <point x="532.0" y="708.0"/>
      <point x="480.6363636363636" y="705.0"/>
      <point x="457.6363636363636" y="705.0" type="curve" smooth="yes"/>
      <point x="232.54545454545453" y="705.0" type="line" smooth="yes"/>
      <point x="206.63636363636363" y="705.0"/>
      <point x="154.27272727272728" y="708.0"/>
      <point x="115.0" y="710.0" type="curve"/>
      <point x="100.72727272727273" y="646.5454545454545" type="line"/>
      <point x="216.36363636363637" y="626.0" type="line"/>
      <point x="169.63636363636363" y="660.2727272727273" type="line"/>
      <point x="169.63636363636363" y="647.9090909090909"/>
      <point x="167.0909090909091" y="571.2727272727273"/>
      <point x="163.1818181818182" y="542.7272727272727" type="curve" smooth="yes"/>
      <point x="105.54545454545455" y="148.36363636363637" type="line" smooth="yes"/>
      <point x="101.9090909090909" y="124.27272727272728"/>
      <point x="82.54545454545455" y="56.18181818181818"/>
      <point x="74.63636363636364" y="33.18181818181818" type="curve"/>
      <point x="133.27272727272728" y="77.18181818181819" type="line"/>
      <point x="12.90909090909091" y="54.18181818181818" type="line"/>
    </contour>
  </outline>
</glyph>
<glyph name="F" format="2">
  <advance width="571.4"/>
  <unicode hex="0046"/>
  <anchor x="247.36363636363637" y="0.0" name="bottom"/>
  <anchor x="348.3636363636364" y="720.0" name="top"/>
  <outline>
    <contour>
      <point x="9.636363636363637" y="-5.0" type="line"/>
      <point x="57.18181818181818" y="-3.0"/>
      <point x="123.72727272727273" y="0.0"/>
      <point x="151.27272727272728" y="0.0" type="curve" smooth="yes"/>
      <point x="286.45454545454544" y="0.0" type="line"/>
      <point x="301.09090909090907" y="61.27272727272727" type="line"/>
      <point x="173.27272727272728" y="73.18181818181819" type="line"/>
      <point x="220.9090909090909" y="31.0" type="line"/>
      <point x="220.9090909090909" y="59.72727272727273"/>
      <point x="222.72727272727272" y="128.9090909090909"/>
      <point x="230.27272727272728" y="178.36363636363637" type="curve" smooth="yes"/>
      <point x="259.0" y="375.90909090909093" type="line"/>
      <point x="201.72727272727272" y="318.54545454545456" type="line"/>
      <point x="325.90909090909093" y="318.54545454545456" type="line" smooth="yes"/>
      <point x="344.45454545454544" y="318.54545454545456"/>
      <point x="403.72727272727275" y="312.27272727272725"/>
      <point x="442.6363636363636" y="307.6363636363636" type="curve"/>
      <point x="396.0" y="360.54545454545456" type="line"/>
      <point x="392.90909090909093" y="248.36363636363637" type="line"/>
      <point x="448.1818181818182" y="254.36363636363637" type="line"/>
      <point x="454.45454545454544" y="317.0"/>
      <point x="465.1818181818182" y="382.27272727272725"/>
      <point x="478.1818181818182" y="455.27272727272725" type="curve"/>
      <point x="425.90909090909093" y="460.27272727272725" type="line"/>
      <point x="392.0" y="345.54545454545456" type="line"/>
      <point x="453.54545454545456" y="398.09090909090907" type="line"/>
      <point x="419.3636363636364" y="393.1818181818182"/>
      <point x="366.72727272727275" y="385.90909090909093"/>
      <point x="354.45454545454544" y="385.90909090909093" type="curve" smooth="yes"/>
      <point x="211.63636363636363" y="385.90909090909093" type="line"/>
      <point x="254.45454545454544" y="348.54545454545456" type="line"/>
      <point x="282.3636363636364" y="539.9090909090909" type="line" smooth="yes"/>
      <point x="286.72727272727275" y="571.0909090909091"/>
      <point x="306.09090909090907" y="647.4545454545455"/>
      <point x="310.72727272727275" y="668.0" type="curve"/>
      <point x="255.1818181818182" y="637.6363636363636" type="line"/>
      <point x="418.72727272727275" y="637.6363636363636" type="line" smooth="yes"/>
      <point x="443.54545454545456" y="637.6363636363636"/>
      <point x="509.45454545454544" y="632.6363636363636"/>
      <point x="538.9090909090909" y="630.6363636363636" type="curve"/>
      <point x="478.72727272727275" y="677.9090909090909" type="line"/>
      <point x="490.54545454545456" y="652.7272727272727"/>
      <point x="505.6363636363636" y="609.3636363636364"/>
      <point x="506.0" y="598.6363636363636" type="curve" smooth="yes"/>
      <point x="506.3636363636364" y="586.1818181818181"/>
      <point x="507.3636363636364" y="563.1818181818181"/>
      <point x="507.72727272727275" y="547.1818181818181" type="curve"/>
      <point x="570.7272727272727" y="552.1818181818181" type="line"/>
      <point x="585.6363636363636" y="692.0" type="line"/>
      <point x="569.6363636363636" y="710.0" type="line"/>
      <point x="532.0" y="708.0"/>
      <point x="480.6363636363636" y="705.0"/>
      <point x="457.6363636363636" y="705.0" type="curve" smooth="yes"/>
      <point x="232.54545454545453" y="705.0" type="line" smooth="yes"/>
      <point x="206.63636363636363" y="705.0"/>
      <point x="154.27272727272728" y="708.0"/>
      <point x="115.0" y="710.0" type="curve"/>
      <point x="100.72727272727273" y="646.5454545454545" type="line"/>
      <point x="216.36363636363637" y="626.0" type="line"/>
      <point x="169.63636363636363" y="660.2727272727273" type="line"/>
      <point x="169.63636363636363" y="647.9090909090909"/>
      <point x="167.0909090909091" y="571.2727272727273"/>
      <point x="163.1818181818182" y="542.7272727272727" type="curve" smooth="yes"/>
      <point x="105.54545454545455" y="148.36363636363637" type="line" smooth="yes"/>
      <point x="101.9090909090909" y="124.9090909090909"/>
      <point x="85.45454545454545" y="67.0"/>
      <point x="75.63636363636364" y="38.36363636363636" type="curve"/>
      <point x="133.27272727272728" y="77.18181818181819" type="line"/>
      <point x="12.90909090909091" y="54.18181818181818" type="line"/>
    </contour>
  </outline>
</glyph>
<glyph name="G" format="2">
  <advance width="694.8000000000001"/>
  <unicode hex="0047"/>
  <anchor x="371.3636363636364" y="0.0" name="bottom"/>
  <anchor x="525.0" y="181.0" name="center"/>
  <anchor x="453.54545454545456" y="720.0" name="top"/>
  <outline>
    <contour>
      <point x="360.45454545454544" y="-15.0" type="curve" smooth="yes"/>
      <point x="447.0" y="-15.0"/>
      <point x="518.3636363636364" y="2.3636363636363638"/>
      <point x="585.7272727272727" y="19.0" type="curve"/>
      <point x="609.2727272727273" y="179.9090909090909" type="line" smooth="yes"/>
      <point x="612.9090909090909" y="205.0"/>
      <point x="628.3636363636364" y="275.90909090909093"/>
      <point x="639.0" y="329.09090909090907" type="curve"/>
      <point x="619.9090909090909" y="349.90909090909093" type="line"/>
      <point x="587.3636363636364" y="348.27272727272725"/>
      <point x="543.6363636363636" y="346.90909090909093"/>
      <point x="529.0" y="346.90909090909093" type="curve" smooth="yes"/>
      <point x="421.0" y="346.90909090909093" type="line"/>
      <point x="405.45454545454544" y="270.90909090909093" type="line"/>
      <point x="555.0909090909091" y="258.6363636363636" type="line"/>
      <point x="506.45454545454544" y="310.90909090909093" type="line"/>
      <point x="508.72727272727275" y="254.27272727272728"/>
      <point x="508.45454545454544" y="208.27272727272728"/>
      <point x="507.09090909090907" y="196.0" type="curve" smooth="yes"/>
      <point x="481.3636363636364" y="27.09090909090909" type="line"/>
      <point x="517.5454545454545" y="81.0909090909091" type="line"/>
      <point x="474.72727272727275" y="70.27272727272728"/>
      <point x="416.0" y="58.45454545454545"/>
      <point x="368.3636363636364" y="58.45454545454545" type="curve" smooth="yes"/>
      <point x="252.45454545454544" y="58.45454545454545"/>
      <point x="198.1818181818182" y="157.54545454545453"/>
      <point x="198.1818181818182" y="285.09090909090907" type="curve" smooth="yes"/>
      <point x="198.1818181818182" y="469.45454545454544"/>
      <point x="278.6363636363636" y="646.5454545454545"/>
      <point x="449.0" y="646.5454545454545" type="curve" smooth="yes"/>
      <point x="498.0" y="646.5454545454545"/>
      <point x="556.5454545454545" y="634.3636363636364"/>
      <point x="605.2727272727273" y="617.7272727272727" type="curve"/>
      <point x="569.4545454545455" y="654.9090909090909" type="line"/>
      <point x="574.1818181818181" y="634.7272727272727"/>
      <point x="580.7272727272727" y="592.7272727272727"/>
      <point x="579.7272727272727" y="581.0909090909091" type="curve" smooth="yes"/>
      <point x="573.7272727272727" y="529.1818181818181" type="line"/>
      <point x="638.9090909090909" y="524.0909090909091" type="line"/>
      <point x="673.0909090909091" y="686.0" type="line"/>
      <point x="611.7272727272727" y="702.0"/>
      <point x="543.0909090909091" y="720.0"/>
      <point x="459.3636363636364" y="720.0" type="curve" smooth="yes"/>
      <point x="200.9090909090909" y="720.0"/>
      <point x="61.09090909090909" y="532.9090909090909"/>
      <point x="61.09090909090909" y="287.1818181818182" type="curve" smooth="yes"/>
      <point x="61.09090909090909" y="107.27272727272727"/>
      <point x="164.0" y="-15.0"/>
    </contour>
  </outline>
</glyph>
<glyph name="H" format="2">
  <advance width="780.4"/>
  <unicode hex="0048"/>
  <anchor x="353.3636363636364" y="0.0" name="bottom"/>
  <anchor x="425.72727272727275" y="520.0" name="center"/>
  <anchor x="454.3636363636364" y="720.0" name="top"/>
  <anchor x="95.9090909090909" y="705.0" name="topleft"/>
  <outline>
    <contour>
      <point x="423.3636363636364" y="-5.0" type="line"/>
      <point x="470.90909090909093" y="-3.0"/>
      <point x="538.0909090909091" y="0.0"/>
      <point x="565.6363636363636" y="0.0" type="curve" smooth="yes"/>
      <point x="695.2727272727273" y="0.0" type="line"/>
      <point x="709.9090909090909" y="61.27272727272727" type="line"/>
      <point x="587.0" y="73.18181818181819" type="line"/>
      <point x="635.6363636363636" y="34.63636363636364" type="line"/>
      <point x="634.2727272727273" y="60.90909090909091"/>
      <point x="637.0909090909091" y="131.27272727272728"/>
      <point x="644.0" y="178.36363636363637" type="curve" smooth="yes"/>
      <point x="696.0909090909091" y="539.9090909090909" type="line" smooth="yes"/>
      <point x="701.4545454545455" y="576.4545454545455"/>
      <point x="721.3636363636364" y="649.0"/>
      <point x="727.7272727272727" y="671.4545454545455" type="curve"/>
      <point x="670.0909090909091" y="630.2727272727273" type="line"/>
      <point x="788.7272727272727" y="641.5454545454545" type="line"/>
      <point x="794.3636363636364" y="710.0" type="line"/>
      <point x="745.0" y="708.0"/>
      <point x="686.2727272727273" y="705.0"/>
      <point x="646.2727272727273" y="705.0" type="curve" smooth="yes"/>
      <point x="627.6363636363636" y="705.0"/>
      <point x="568.0" y="708.0"/>
      <point x="529.3636363636364" y="710.0" type="curve"/>
      <point x="514.4545454545455" y="646.5454545454545" type="line"/>
      <point x="630.0909090909091" y="626.0" type="line"/>
      <point x="582.0909090909091" y="671.4545454545455" type="line"/>
      <point x="582.4545454545455" y="646.5454545454545"/>
      <point x="582.7272727272727" y="580.0909090909091"/>
      <point x="577.5454545454545" y="542.7272727272727" type="curve" smooth="yes"/>
      <point x="519.2727272727273" y="148.36363636363637" type="line" smooth="yes"/>
      <point x="516.2727272727273" y="127.0909090909091"/>
      <point x="497.90909090909093" y="63.0"/>
      <point x="490.90909090909093" y="37.90909090909091" type="curve"/>
      <point x="547.6363636363636" y="77.18181818181819" type="line"/>
      <point x="427.27272727272725" y="54.18181818181818" type="line"/>
    </contour>
    <contour>
      <point x="9.636363636363637" y="-5.0" type="line"/>
      <point x="57.18181818181818" y="-3.0"/>
      <point x="123.72727272727273" y="0.0"/>
      <point x="151.27272727272728" y="0.0" type="curve" smooth="yes"/>
      <point x="281.54545454545456" y="0.0" type="line"/>
      <point x="295.54545454545456" y="61.27272727272727" type="line"/>
      <point x="173.27272727272728" y="73.18181818181819" type="line"/>
      <point x="221.27272727272728" y="34.63636363636364" type="line"/>
      <point x="220.54545454545456" y="59.0"/>
      <point x="223.36363636363637" y="130.0"/>
      <point x="230.27272727272728" y="178.36363636363637" type="curve" smooth="yes"/>
      <point x="282.3636363636364" y="539.9090909090909" type="line" smooth="yes"/>
      <point x="287.72727272727275" y="576.1818181818181"/>
      <point x="306.3636363636364" y="645.5454545454545"/>
      <point x="313.3636363636364" y="671.4545454545455" type="curve"/>
      <point x="255.72727272727272" y="630.2727272727273" type="line"/>
      <point x="375.0" y="641.5454545454545" type="line"/>
      <point x="380.6363636363636" y="710.0" type="line"/>
      <point x="331.27272727272725" y="708.0"/>
      <point x="271.90909090909093" y="705.0"/>
      <point x="232.54545454545453" y="705.0" type="curve" smooth="yes"/>
      <point x="213.9090909090909" y="705.0"/>
      <point x="154.27272727272728" y="708.0"/>
      <point x="115.0" y="710.0" type="curve"/>
      <point x="100.72727272727273" y="646.5454545454545" type="line"/>
      <point x="216.36363636363637" y="626.0" type="line"/>
      <point x="168.36363636363637" y="671.4545454545455" type="line"/>
      <point x="168.72727272727272" y="647.1818181818181"/>
      <point x="168.36363636363637" y="579.1818181818181"/>
      <point x="163.1818181818182" y="542.7272727272727" type="curve" smooth="yes"/>
      <point x="105.54545454545455" y="148.36363636363637" type="line" smooth="yes"/>
      <point x="101.9090909090909" y="124.9090909090909"/>
      <point x="84.18181818181819" y="64.27272727272728"/>
      <point x="77.18181818181819" y="37.90909090909091" type="curve"/>
      <point x="133.27272727272728" y="77.18181818181819" type="line"/>
      <point x="12.90909090909091" y="54.18181818181818" type="line"/>
    </contour>
    <contour>
      <point x="224.72727272727272" y="315.6363636363636" type="line"/>
      <point x="569.0909090909091" y="315.6363636363636" type="line"/>
      <point x="579.6363636363636" y="387.72727272727275" type="line"/>
      <point x="234.63636363636363" y="382.72727272727275" type="line"/>
    </contour>
  </outline>
</glyph>
<glyph name="I" format="2">
  <advance width="366.0"/>
  <unicode hex="0049"/>
  <anchor x="147.1818181818182" y="0.0" name="bottom"/>
  <anchor x="284.54545454545456" y="10.0" name="ogonek"/>
  <anchor x="248.1818181818182" y="720.0" name="top"/>
  <anchor x="95.9090909090909" y="705.0" name="topleft"/>
  <outline>
    <contour>
      <point x="9.636363636363637" y="-5.0" type="line"/>
      <point x="57.18181818181818" y="-3.0"/>
      <point x="123.72727272727273" y="0.0"/>
      <point x="151.27272727272728" y="0.0" type="curve" smooth="yes"/>
      <point x="281.54545454545456" y="0.0" type="line"/>
      <point x="295.54545454545456" y="61.27272727272727" type="line"/>
      <point x="173.27272727272728" y="73.18181818181819" type="line"/>
      <point x="221.27272727272728" y="34.63636363636364" type="line"/>
      <point x="220.54545454545456" y="59.0"/>
      <point x="223.36363636363637" y="130.0"/>
      <point x="230.27272727272728" y="178.36363636363637" type="curve" smooth="yes"/>
      <point x="282.3636363636364" y="539.9090909090909" type="line" smooth="yes"/>
      <point x="287.72727272727275" y="576.1818181818181"/>
      <point x="306.3636363636364" y="645.5454545454545"/>
      <point x="313.3636363636364" y="671.4545454545455" type="curve"/>
      <point x="255.72727272727272" y="630.2727272727273" type="line"/>
      <point x="375.0" y="641.5454545454545" type="line"/>
      <point x="380.6363636363636" y="710.0" type="line"/>
      <point x="331.27272727272725" y="708.0"/>
      <point x="271.90909090909093" y="705.0"/>
      <point x="232.54545454545453" y="705.0" type="curve" smooth="yes"/>
      <point x="213.9090909090909" y="705.0"/>
      <point x="154.27272727272728" y="708.0"/>
      <point x="115.0" y="710.0" type="curve"/>
      <point x="100.72727272727273" y="646.5454545454545" type="line"/>
      <point x="216.36363636363637" y="626.0" type="line"/>
      <point x="168.36363636363637" y="671.4545454545455" type="line"/>
      <point x="168.72727272727272" y="647.1818181818181"/>
      <point x="168.36363636363637" y="579.1818181818181"/>
      <point x="163.1818181818182" y="542.7272727272727" type="curve" smooth="yes"/>
      <point x="105.54545454545455" y="148.36363636363637" type="line" smooth="yes"/>
      <point x="101.9090909090909" y="124.9090909090909"/>
      <point x="84.18181818181819" y="64.27272727272728"/>
      <point x="77.18181818181819" y="37.90909090909091" type="curve"/>
      <point x="133.27272727272728" y="77.18181818181819" type="line"/>
      <point x="12.90909090909091" y="54.18181818181818" type="line"/>
    </contour>
  </outline>
</glyph>
<glyph name="J" format="2">
  <advance width="339.0"/>
  <unicode hex="004A"/>
  <anchor x="134.36363636363637" y="0.0" name="bottom"/>
  <anchor x="220.36363636363637" y="705.0" name="top"/>
  <outline>
    <contour>
      <point x="4.909090909090908" y="-200.0" type="line"/>
      <point x="84.54545454545455" y="-129.1818181818182"/>
      <point x="181.54545454545456" y="-30.363636363636363"/>
      <point x="186.1818181818182" y="-1.1818181818181817" type="curve" smooth="yes"/>
      <point x="264.90909090909093" y="539.9090909090909" type="line" smooth="yes"/>
      <point x="270.27272727272725" y="576.1818181818181"/>
      <point x="288.90909090909093" y="645.5454545454545"/>
      <point x="295.90909090909093" y="671.4545454545455" type="curve"/>
      <point x="238.27272727272728" y="630.2727272727273" type="line"/>
      <point x="357.54545454545456" y="641.5454545454545" type="line"/>
      <point x="363.1818181818182" y="710.0" type="line"/>
      <point x="313.45454545454544" y="708.0"/>
      <point x="254.0909090909091" y="705.0"/>
      <point x="214.72727272727272" y="705.0" type="curve" smooth="yes"/>
      <point x="196.0909090909091" y="705.0"/>
      <point x="136.45454545454547" y="708.0"/>
      <point x="97.54545454545455" y="710.0" type="curve"/>
      <point x="83.27272727272727" y="646.5454545454545" type="line"/>
      <point x="198.9090909090909" y="626.0" type="line"/>
      <point x="150.9090909090909" y="671.4545454545455" type="line"/>
      <point x="151.27272727272728" y="650.0"/>
      <point x="151.54545454545453" y="580.7272727272727"/>
      <point x="145.36363636363637" y="542.7272727272727" type="curve" smooth="yes"/>
      <point x="68.18181818181819" y="11.0" type="line" smooth="yes"/>
      <point x="65.18181818181819" y="-9.0"/>
      <point x="-34.63636363636363" y="-173.9090909090909"/>
      <point x="-34.63636363636363" y="-173.9090909090909" type="curve"/>
    </contour>
  </outline>
</glyph>
<glyph name="K" format="2">
  <advance width="729.6"/>
  <unicode hex="004B"/>
  <anchor x="328.09090909090907" y="0.0" name="bottom"/>
  <anchor x="429.09090909090907" y="720.0" name="top"/>
  <outline>
    <contour>
      <point x="382.6363636363636" y="-5.0" type="line"/>
      <point x="430.1818181818182" y="-3.0"/>
      <point x="496.72727272727275" y="0.0"/>
      <point x="524.2727272727273" y="0.0" type="curve" smooth="yes"/>
      <point x="657.6363636363636" y="0.0" type="line"/>
      <point x="672.2727272727273" y="61.90909090909091" type="line"/>
      <point x="568.3636363636364" y="74.45454545454545" type="line"/>
      <point x="633.1818181818181" y="51.45454545454545" type="line"/>
      <point x="620.3636363636364" y="62.36363636363637"/>
      <point x="576.1818181818181" y="108.36363636363636"/>
      <point x="561.5454545454545" y="129.0" type="curve" smooth="yes"/>
      <point x="371.27272727272725" y="404.54545454545456" type="line"/>
      <point x="362.45454545454544" y="333.54545454545456" type="line"/>
      <point x="550.6363636363636" y="546.0" type="line" smooth="yes"/>
      <point x="568.9090909090909" y="566.5454545454545"/>
      <point x="635.9090909090909" y="627.9090909090909"/>
      <point x="666.1818181818181" y="651.1818181818181" type="curve"/>
      <point x="598.5454545454545" y="629.6363636363636" type="line"/>
      <point x="712.0" y="641.5454545454545" type="line"/>
      <point x="717.2727272727273" y="710.0" type="line"/>
      <point x="673.3636363636364" y="708.0"/>
      <point x="620.4545454545455" y="705.0"/>
      <point x="586.9090909090909" y="705.0" type="curve" smooth="yes"/>
      <point x="566.9090909090909" y="705.0"/>
      <point x="513.5454545454545" y="708.0"/>
      <point x="477.0" y="710.0" type="curve"/>
      <point x="462.09090909090907" y="646.5454545454545" type="line"/>
      <point x="550.0" y="627.5454545454545" type="line"/>
      <point x="523.6363636363636" y="667.7272727272727" type="line"/>
      <point x="498.1818181818182" y="628.0909090909091"/>
      <point x="474.90909090909093" y="593.4545454545455"/>
      <point x="461.0" y="577.0" type="curve" smooth="yes"/>
      <point x="262.45454545454544" y="353.0" type="line"/>
      <point x="386.54545454545456" y="164.0" type="line" smooth="yes"/>
      <point x="403.90909090909093" y="137.36363636363637"/>
      <point x="437.27272727272725" y="61.27272727272727"/>
      <point x="441.3636363636364" y="51.72727272727273" type="curve"/>
      <point x="482.72727272727275" y="75.54545454545455" type="line"/>
      <point x="385.90909090909093" y="54.18181818181818" type="line"/>
    </contour>
    <contour>
      <point x="9.636363636363637" y="-5.0" type="line"/>
      <point x="57.18181818181818" y="-3.0"/>
      <point x="123.72727272727273" y="0.0"/>
      <point x="151.27272727272728" y="0.0" type="curve" smooth="yes"/>
      <point x="281.54545454545456" y="0.0" type="line"/>
      <point x="295.54545454545456" y="61.27272727272727" type="line"/>
      <point x="173.27272727272728" y="73.18181818181819" type="line"/>
      <point x="221.27272727272728" y="34.63636363636364" type="line"/>
      <point x="220.54545454545456" y="59.0"/>
      <point x="223.36363636363637" y="130.0"/>
      <point x="230.27272727272728" y="178.36363636363637" type="curve" smooth="yes"/>
      <point x="282.3636363636364" y="539.9090909090909" type="line" smooth="yes"/>
      <point x="287.72727272727275" y="576.1818181818181"/>
      <point x="306.3636363636364" y="645.5454545454545"/>
      <point x="313.3636363636364" y="671.4545454545455" type="curve"/>
      <point x="255.72727272727272" y="630.2727272727273" type="line"/>
      <point x="375.0" y="641.5454545454545" type="line"/>
      <point x="380.6363636363636" y="710.0" type="line"/>
      <point x="331.27272727272725" y="708.0"/>
      <point x="271.90909090909093" y="705.0"/>
      <point x="232.54545454545453" y="705.0" type="curve" smooth="yes"/>
      <point x="213.9090909090909" y="705.0"/>
      <point x="154.27272727272728" y="708.0"/>
      <point x="115.0" y="710.0" type="curve"/>
      <point x="100.72727272727273" y="646.5454545454545" type="line"/>
      <point x="216.36363636363637" y="626.0" type="line"/>
      <point x="168.36363636363637" y="671.4545454545455" type="line"/>
      <point x="168.72727272727272" y="647.1818181818181"/>
      <point x="168.36363636363637" y="579.1818181818181"/>
      <point x="163.1818181818182" y="542.7272727272727" type="curve" smooth="yes"/>
      <point x="105.54545454545455" y="148.36363636363637" type="line" smooth="yes"/>
      <point x="101.9090909090909" y="124.9090909090909"/>
      <point x="84.18181818181819" y="64.27272727272728"/>
      <point x="77.18181818181819" y="37.90909090909091" type="curve"/>
      <point x="133.27272727272728" y="77.18181818181819" type="line"/>
      <point x="12.90909090909091" y="54.18181818181818" type="line"/>
    </contour>
  </outline>
</glyph>
<glyph name="L" format="2">
  <advance width="558.1999999999999"/>
  <unicode hex="004C"/>
  <anchor x="264.45454545454544" y="0.0" name="bottom"/>
  <anchor x="200.0909090909091" y="355.0" name="center"/>
  <anchor x="550.5454545454545" y="423.0" name="centerright"/>
  <anchor x="292.90909090909093" y="720.0" name="top"/>
  <anchor x="483.45454545454544" y="494.0" name="topright"/>
  <outline>
    <contour>
      <point x="9.636363636363637" y="-5.0" type="line"/>
      <point x="57.18181818181818" y="-3.0"/>
      <point x="99.0" y="0.0"/>
      <point x="126.54545454545455" y="0.0" type="curve" smooth="yes"/>
      <point x="342.90909090909093" y="0.0" type="line" smooth="yes"/>
      <point x="368.6363636363636" y="0.0"/>
      <point x="415.90909090909093" y="-2.0"/>
      <point x="452.90909090909093" y="-4.0" type="curve"/>
      <point x="473.90909090909093" y="14.0" type="line"/>
      <point x="512.1818181818181" y="176.36363636363637" type="line"/>
      <point x="452.54545454545456" y="181.36363636363637" type="line"/>
      <point x="445.6363636363636" y="158.72727272727272"/>
      <point x="437.3636363636364" y="136.63636363636363"/>
      <point x="429.72727272727275" y="118.45454545454545" type="curve" smooth="yes"/>
      <point x="422.45454545454544" y="101.63636363636364"/>
      <point x="402.09090909090907" y="72.45454545454545"/>
      <point x="377.27272727272725" y="44.0" type="curve"/>
      <point x="425.09090909090907" y="83.54545454545455" type="line"/>
      <point x="407.72727272727275" y="79.54545454545455"/>
      <point x="364.6363636363636" y="70.9090909090909"/>
      <point x="324.09090909090907" y="70.9090909090909" type="curve" smooth="yes"/>
      <point x="161.27272727272728" y="70.9090909090909" type="line"/>
      <point x="221.27272727272728" y="34.63636363636364" type="line"/>
      <point x="220.54545454545456" y="59.0"/>
      <point x="223.36363636363637" y="130.0"/>
      <point x="230.27272727272728" y="178.36363636363637" type="curve" smooth="yes"/>
      <point x="282.3636363636364" y="539.9090909090909" type="line" smooth="yes"/>
      <point x="287.72727272727275" y="576.1818181818181"/>
      <point x="306.3636363636364" y="645.5454545454545"/>
      <point x="313.3636363636364" y="671.4545454545455" type="curve"/>
      <point x="255.72727272727272" y="630.2727272727273" type="line"/>
      <point x="375.0" y="641.5454545454545" type="line"/>
      <point x="380.6363636363636" y="710.0" type="line"/>
      <point x="331.27272727272725" y="708.0"/>
      <point x="271.90909090909093" y="705.0"/>
      <point x="232.54545454545453" y="705.0" type="curve" smooth="yes"/>
      <point x="213.9090909090909" y="705.0"/>
      <point x="154.27272727272728" y="708.0"/>
      <point x="115.0" y="710.0" type="curve"/>
      <point x="100.72727272727273" y="646.5454545454545" type="line"/>
      <point x="216.36363636363637" y="626.0" type="line"/>
      <point x="168.36363636363637" y="671.4545454545455" type="line"/>
      <point x="168.72727272727272" y="647.1818181818181"/>
      <point x="168.72727272727272" y="579.1818181818181"/>
      <point x="163.1818181818182" y="542.7272727272727" type="curve" smooth="yes"/>
      <point x="105.54545454545455" y="148.36363636363637" type="line" smooth="yes"/>
      <point x="101.9090909090909" y="124.9090909090909"/>
      <point x="84.18181818181819" y="64.27272727272728"/>
      <point x="77.18181818181819" y="37.90909090909091" type="curve"/>
      <point x="133.27272727272728" y="77.18181818181819" type="line"/>
      <point x="12.90909090909091" y="54.18181818181818" type="line"/>
    </contour>
  </outline>
</glyph>
<glyph name="M" format="2">
  <advance width="929.0"/>
  <unicode hex="004D"/>
  <anchor x="435.88218181818183" y="0.0" name="bottom"/>
  <anchor x="522.2404545454546" y="705.0" name="top"/>
  <outline>
    <contour>
      <point x="4.636363636363637" y="-5.0" type="line"/>
      <point x="47.09090909090909" y="-3.0"/>
      <point x="108.63636363636364" y="0.0"/>
      <point x="135.54545454545453" y="0.0" type="curve" smooth="yes"/>
      <point x="241.27272727272728" y="0.0" type="line"/>
      <point x="255.27272727272728" y="61.27272727272727" type="line"/>
      <point x="135.0909090909091" y="73.18181818181819" type="line"/>
      <point x="185.54545454545456" y="34.63636363636364" type="line"/>
      <point x="185.1818181818182" y="60.90909090909091"/>
      <point x="189.36363636363637" y="136.9090909090909"/>
      <point x="196.27272727272728" y="179.0" type="curve" smooth="yes"/>
      <point x="280.27272727272725" y="602.0" type="line"/>
      <point x="261.45454545454544" y="602.0" type="line"/>
      <point x="383.1818181818182" y="0.0" type="line"/>
      <point x="445.09090909090907" y="0.0" type="line"/>
      <point x="742.9090909090909" y="598.3636363636364" type="line"/>
      <point x="726.0909090909091" y="602.6363636363636" type="line"/>
      <point x="683.5454545454545" y="149.0" type="line" smooth="yes"/>
      <point x="681.5454545454545" y="126.36363636363636"/>
      <point x="664.5454545454545" y="63.63636363636364"/>
      <point x="657.5454545454545" y="37.90909090909091" type="curve"/>
      <point x="709.5454545454545" y="77.18181818181819" type="line"/>
      <point x="593.2727272727273" y="54.18181818181818" type="line"/>
      <point x="590.0" y="-5.0" type="line"/>
      <point x="636.9090909090909" y="-3.0"/>
      <point x="700.6363636363636" y="0.0"/>
      <point x="727.5454545454545" y="0.0" type="curve" smooth="yes"/>
      <point x="857.1818181818181" y="0.0" type="line"/>
      <point x="871.4545454545455" y="61.27272727272727" type="line"/>
      <point x="749.5454545454545" y="73.18181818181819" type="line"/>
      <point x="803.7272727272727" y="34.63636363636364" type="line"/>
      <point x="801.7272727272727" y="60.90909090909091"/>
      <point x="796.3636363636364" y="136.27272727272728"/>
      <point x="799.3636363636364" y="178.0" type="curve" smooth="yes"/>
      <point x="825.7272727272727" y="539.9090909090909" type="line" smooth="yes"/>
      <point x="828.7272727272727" y="577.5454545454545"/>
      <point x="845.0909090909091" y="650.2727272727273"/>
      <point x="852.2727272727273" y="675.6363636363636" type="curve"/>
      <point x="793.7272727272727" y="630.2727272727273" type="line"/>
      <point x="912.3636363636364" y="641.5454545454545" type="line"/>
      <point x="918.6363636363636" y="710.0" type="line"/>
      <point x="866.0909090909091" y="708.0"/>
      <point x="795.5454545454545" y="705.0"/>
      <point x="763.0" y="705.0" type="curve" smooth="yes"/>
      <point x="717.0" y="705.0" type="line"/>
      <point x="695.0" y="685.0" type="line"/>
      <point x="628.6363636363636" y="542.3636363636364" type="line"/>
      <point x="436.90909090909093" y="152.0909090909091" type="line"/>
      <point x="466.90909090909093" y="148.1818181818182" type="line"/>
      <point x="393.0" y="531.5454545454545" type="line"/>
      <point x="368.45454545454544" y="685.0" type="line"/>
      <point x="353.45454545454544" y="705.0" type="line"/>
      <point x="258.27272727272725" y="705.0" type="line" smooth="yes"/>
      <point x="238.63636363636363" y="705.0"/>
      <point x="180.0" y="708.0"/>
      <point x="140.36363636363637" y="710.0" type="curve"/>
      <point x="126.0909090909091" y="646.5454545454545" type="line"/>
      <point x="241.0909090909091" y="626.0" type="line"/>
      <point x="194.1818181818182" y="671.2727272727273" type="line"/>
      <point x="194.1818181818182" y="654.7272727272727"/>
      <point x="195.1818181818182" y="583.9090909090909"/>
      <point x="186.0909090909091" y="542.7272727272727" type="curve" smooth="yes"/>
      <point x="104.36363636363636" y="149.0" type="line" smooth="yes"/>
      <point x="100.36363636363636" y="127.18181818181819"/>
      <point x="78.0909090909091" y="64.27272727272728"/>
      <point x="69.0" y="37.90909090909091" type="curve"/>
      <point x="128.27272727272728" y="77.18181818181819" type="line"/>
      <point x="7.909090909090909" y="54.18181818181818" type="line"/>
    </contour>
  </outline>
</glyph>
<glyph name="N" format="2">
  <advance width="780.0"/>
  <unicode hex="004E"/>
  <anchor x="351.1818181818182" y="0.0" name="bottom"/>
  <anchor x="452.1818181818182" y="720.0" name="top"/>
  <outline>
    <contour>
      <point x="9.636363636363637" y="-5.0" type="line"/>
      <point x="52.09090909090909" y="-3.0"/>
      <point x="111.9090909090909" y="0.0"/>
      <point x="139.0909090909091" y="0.0" type="curve" smooth="yes"/>
      <point x="251.1818181818182" y="0.0" type="line"/>
      <point x="265.45454545454544" y="61.27272727272727" type="line"/>
      <point x="145.63636363636363" y="73.18181818181819" type="line"/>
      <point x="194.36363636363637" y="34.63636363636364" type="line"/>
      <point x="194.72727272727272" y="70.54545454545455"/>
      <point x="199.45454545454544" y="141.72727272727272"/>
      <point x="204.72727272727272" y="178.36363636363637" type="curve" smooth="yes"/>
      <point x="259.09090909090907" y="556.0" type="line"/>
      <point x="230.1818181818182" y="550.7272727272727" type="line"/>
      <point x="523.7272727272727" y="0.0" type="line"/>
      <point x="622.0" y="0.0" type="line"/>
      <point x="701.3636363636364" y="539.9090909090909" type="line" smooth="yes"/>
      <point x="706.3636363636364" y="573.6363636363636"/>
      <point x="727.6363636363636" y="636.0909090909091"/>
      <point x="738.1818181818181" y="662.9090909090909" type="curve"/>
      <point x="679.2727272727273" y="630.2727272727273" type="line"/>
      <point x="798.5454545454545" y="641.5454545454545" type="line"/>
      <point x="804.1818181818181" y="710.0" type="line"/>
      <point x="766.7272727272727" y="708.0"/>
      <point x="697.2727272727273" y="705.0"/>
      <point x="665.6363636363636" y="705.0" type="curve" smooth="yes"/>
      <point x="650.9090909090909" y="705.0"/>
      <point x="594.2727272727273" y="708.0"/>
      <point x="558.9090909090909" y="710.0" type="curve"/>
      <point x="544.6363636363636" y="646.5454545454545" type="line"/>
      <point x="660.2727272727273" y="626.0" type="line"/>
      <point x="612.2727272727273" y="673.7272727272727" type="line"/>
      <point x="612.6363636363636" y="647.0"/>
      <point x="613.9090909090909" y="584.5454545454545"/>
      <point x="607.7272727272727" y="542.7272727272727" type="curve" smooth="yes"/>
      <point x="549.3636363636364" y="145.63636363636363" type="line"/>
      <point x="579.2727272727273" y="150.9090909090909" type="line"/>
      <point x="372.09090909090907" y="533.1818181818181" type="line"/>
      <point x="304.90909090909093" y="685.0" type="line"/>
      <point x="288.90909090909093" y="705.0" type="line"/>
      <point x="232.9090909090909" y="705.0" type="line" smooth="yes"/>
      <point x="213.9090909090909" y="705.0"/>
      <point x="154.0" y="708.0"/>
      <point x="115.0" y="710.0" type="curve"/>
      <point x="100.0909090909091" y="646.5454545454545" type="line"/>
      <point x="215.72727272727272" y="626.0" type="line"/>
      <point x="167.72727272727272" y="673.0" type="line"/>
      <point x="167.72727272727272" y="656.0909090909091"/>
      <point x="169.36363636363637" y="585.1818181818181"/>
      <point x="163.54545454545453" y="542.7272727272727" type="curve" smooth="yes"/>
      <point x="105.9090909090909" y="149.0" type="line" smooth="yes"/>
      <point x="102.9090909090909" y="129.36363636363637"/>
      <point x="82.72727272727273" y="60.63636363636364"/>
      <point x="77.18181818181819" y="39.63636363636364" type="curve"/>
      <point x="132.1818181818182" y="77.18181818181819" type="line"/>
      <point x="12.90909090909091" y="54.18181818181818" type="line"/>
    </contour>
  </outline>
</glyph>
<glyph name="P" format="2">
  <advance width="608.6"/>
  <unicode hex="0050"/>
  <anchor x="272.2458181818182" y="0.0" name="bottom"/>
  <anchor x="358.9677272727273" y="705.0" name="top"/>
  <outline>
    <contour>
      <point x="9.636363636363637" y="-5.0" type="line"/>
      <point x="57.18181818181818" y="-3.0"/>
      <point x="123.72727272727273" y="0.0"/>
      <point x="151.27272727272728" y="0.0" type="curve" smooth="yes"/>
      <point x="291.54545454545456" y="0.0" type="line"/>
      <point x="305.54545454545456" y="61.27272727272727" type="line"/>
      <point x="173.27272727272728" y="73.18181818181819" type="line"/>
      <point x="221.27272727272728" y="34.63636363636364" type="line"/>
      <point x="220.54545454545456" y="59.0"/>
      <point x="223.36363636363637" y="130.0"/>
      <point x="230.27272727272728" y="178.36363636363637" type="curve" smooth="yes"/>
      <point x="282.3636363636364" y="539.9090909090909" type="line" smooth="yes"/>
      <point x="287.72727272727275" y="575.5454545454545"/>
      <point x="304.45454545454544" y="645.5454545454545"/>
      <point x="311.45454545454544" y="671.4545454545455" type="curve"/>
      <point x="246.45454545454547" y="639.7272727272727" type="line" smooth="yes"/>
      <point x="286.09090909090907" y="642.7272727272727"/>
      <point x="331.27272727272725" y="645.4545454545455"/>
      <point x="347.72727272727275" y="645.4545454545455" type="curve" smooth="yes"/>
      <point x="430.72727272727275" y="645.4545454545455"/>
      <point x="475.90909090909093" y="605.1818181818181"/>
      <point x="475.90909090909093" y="527.4545454545455" type="curve" smooth="yes"/>
      <point x="475.90909090909093" y="408.1818181818182"/>
      <point x="402.6363636363636" y="344.1818181818182"/>
      <point x="295.90909090909093" y="344.1818181818182" type="curve" smooth="yes"/>
      <point x="257.45454545454544" y="344.1818181818182"/>
      <point x="204.0909090909091" y="347.09090909090907"/>
      <point x="169.1818181818182" y="349.27272727272725" type="curve"/>
      <point x="159.27272727272728" y="282.72727272727275" type="line"/>
      <point x="213.0" y="281.0"/>
      <point x="266.09090909090907" y="279.6363636363636"/>
      <point x="320.1818181818182" y="279.6363636363636" type="curve" smooth="yes"/>
      <point x="466.0" y="279.6363636363636"/>
      <point x="600.9090909090909" y="370.09090909090907"/>
      <point x="600.9090909090909" y="532.3636363636364" type="curve" smooth="yes"/>
      <point x="600.9090909090909" y="647.5454545454545"/>
      <point x="520.5454545454545" y="710.0"/>
      <point x="400.6363636363636" y="710.0" type="curve" smooth="yes"/>
      <point x="356.54545454545456" y="710.0"/>
      <point x="277.27272727272725" y="705.0"/>
      <point x="232.54545454545453" y="705.0" type="curve" smooth="yes"/>
      <point x="213.9090909090909" y="705.0"/>
      <point x="154.27272727272728" y="708.0"/>
      <point x="115.0" y="710.0" type="curve"/>
      <point x="100.72727272727273" y="646.5454545454545" type="line"/>
      <point x="216.36363636363637" y="626.0" type="line"/>
      <point x="168.36363636363637" y="671.4545454545455" type="line"/>
      <point x="168.72727272727272" y="647.1818181818181"/>
      <point x="168.36363636363637" y="579.1818181818181"/>
      <point x="163.1818181818182" y="542.7272727272727" type="curve" smooth="yes"/>
      <point x="105.54545454545455" y="148.36363636363637" type="line" smooth="yes"/>
      <point x="101.9090909090909" y="124.9090909090909"/>
      <point x="84.18181818181819" y="64.27272727272728"/>
      <point x="77.18181818181819" y="37.90909090909091" type="curve"/>
      <point x="133.27272727272728" y="77.18181818181819" type="line"/>
      <point x="12.90909090909091" y="54.18181818181818" type="line"/>
    </contour>
  </outline>
</glyph>
<glyph name="Q" format="2">
  <advance width="773.8000000000001"/>
  <unicode hex="0051"/>
  <anchor x="354.45454545454544" y="0.0" name="bottom"/>
  <anchor x="440.45454545454544" y="705.0" name="top"/>
  <outline>
    <contour>
      <point x="348.09090909090907" y="-15.0" type="curve" smooth="yes"/>
      <point x="589.2727272727273" y="-15.0"/>
      <point x="737.7272727272727" y="168.0"/>
      <point x="737.7272727272727" y="416.54545454545456" type="curve" smooth="yes"/>
      <point x="737.7272727272727" y="598.0"/>
      <point x="634.6363636363636" y="720.0"/>
      <point x="450.09090909090907" y="720.0" type="curve" smooth="yes"/>
      <point x="209.27272727272728" y="720.0"/>
      <point x="60.45454545454545" y="537.0"/>
      <point x="60.45454545454545" y="287.45454545454544" type="curve" smooth="yes"/>
      <point x="60.45454545454545" y="107.0"/>
      <point x="163.9090909090909" y="-15.0"/>
    </contour>
    <contour>
      <point x="607.7272727272727" y="-224.0" type="line"/>
      <point x="695.5454545454545" y="-117.45454545454545" type="line"/>
      <point x="647.5454545454545" y="-95.0909090909091"/>
      <point x="565.9090909090909" y="-58.09090909090909"/>
      <point x="552.5454545454545" y="-47.36363636363636" type="curve" smooth="yes"/>
      <point x="480.3636363636364" y="10.454545454545455" type="line"/>
      <point x="368.27272727272725" y="-9.545454545454547" type="line"/>
    </contour>
    <contour>
      <point x="356.27272727272725" y="57.90909090909091" type="curve" smooth="yes"/>
      <point x="249.27272727272728" y="57.90909090909091"/>
      <point x="199.36363636363637" y="145.63636363636363"/>
      <point x="199.36363636363637" y="277.6363636363636" type="curve" smooth="yes"/>
      <point x="199.36363636363637" y="479.72727272727275"/>
      <point x="278.1818181818182" y="647.0909090909091"/>
      <point x="442.90909090909093" y="647.0909090909091" type="curve" smooth="yes"/>
      <point x="549.2727272727273" y="647.0909090909091"/>
      <point x="599.1818181818181" y="559.3636363636364"/>
      <point x="599.1818181818181" y="426.3636363636364" type="curve" smooth="yes"/>
      <point x="599.1818181818181" y="224.27272727272728"/>
      <point x="519.3636363636364" y="57.90909090909091"/>
    </contour>
  </outline>
</glyph>
<glyph name="R" format="2">
  <advance width="661.8000000000001"/>
  <unicode hex="0052"/>
  <anchor x="315.1818181818182" y="0.0" name="bottom"/>
  <anchor x="359.27272727272725" y="720.0" name="top"/>
  <outline>
    <contour>
      <point x="9.636363636363637" y="-5.0" type="line"/>
      <point x="57.18181818181818" y="-3.0"/>
      <point x="123.72727272727273" y="0.0"/>
      <point x="151.27272727272728" y="0.0" type="curve" smooth="yes"/>
      <point x="281.54545454545456" y="0.0" type="line"/>
      <point x="295.54545454545456" y="61.27272727272727" type="line"/>
      <point x="173.27272727272728" y="73.18181818181819" type="line"/>
      <point x="221.27272727272728" y="34.63636363636364" type="line"/>
      <point x="220.54545454545456" y="59.0"/>
      <point x="223.36363636363637" y="130.0"/>
      <point x="230.27272727272728" y="178.36363636363637" type="curve" smooth="yes"/>
      <point x="282.3636363636364" y="539.9090909090909" type="line" smooth="yes"/>
      <point x="287.72727272727275" y="576.1818181818181"/>
      <point x="306.3636363636364" y="645.5454545454545"/>
      <point x="313.3636363636364" y="671.4545454545455" type="curve"/>
      <point x="226.1818181818182" y="638.5454545454545" type="line"/>
      <point x="260.27272727272725" y="640.5454545454545"/>
      <point x="328.1818181818182" y="645.4545454545455"/>
      <point x="348.3636363636364" y="645.4545454545455" type="curve" smooth="yes"/>
      <point x="431.3636363636364" y="645.4545454545455"/>
      <point x="479.09090909090907" y="606.4545454545455"/>
      <point x="479.09090909090907" y="531.4545454545455" type="curve" smooth="yes"/>
      <point x="479.09090909090907" y="421.54545454545456"/>
      <point x="424.09090909090907" y="355.72727272727275"/>
      <point x="308.54545454545456" y="355.72727272727275" type="curve" smooth="yes"/>
      <point x="264.27272727272725" y="355.72727272727275"/>
      <point x="218.45454545454547" y="359.27272727272725"/>
      <point x="166.0" y="362.72727272727275" type="curve"/>
      <point x="161.1818181818182" y="297.45454545454544" type="line"/>
      <point x="213.63636363636363" y="295.1818181818182"/>
      <point x="275.6363636363636" y="290.27272727272725"/>
      <point x="319.27272727272725" y="290.27272727272725" type="curve" smooth="yes"/>
      <point x="466.6363636363636" y="290.27272727272725"/>
      <point x="603.4545454545455" y="382.90909090909093"/>
      <point x="603.4545454545455" y="539.2727272727273" type="curve" smooth="yes"/>
      <point x="603.4545454545455" y="648.5454545454545"/>
      <point x="522.4545454545455" y="710.0"/>
      <point x="401.90909090909093" y="710.0" type="curve" smooth="yes"/>
      <point x="357.1818181818182" y="710.0"/>
      <point x="277.27272727272725" y="705.0"/>
      <point x="232.54545454545453" y="705.0" type="curve" smooth="yes"/>
      <point x="213.9090909090909" y="705.0"/>
      <point x="154.27272727272728" y="708.0"/>
      <point x="115.0" y="710.0" type="curve"/>
      <point x="100.72727272727273" y="646.5454545454545" type="line"/>
      <point x="216.36363636363637" y="626.0" type="line"/>
      <point x="168.36363636363637" y="671.4545454545455" type="line"/>
      <point x="168.72727272727272" y="647.1818181818181"/>
      <point x="168.36363636363637" y="579.1818181818181"/>
      <point x="163.1818181818182" y="542.7272727272727" type="curve" smooth="yes"/>
      <point x="105.54545454545455" y="148.36363636363637" type="line" smooth="yes"/>
      <point x="101.9090909090909" y="124.9090909090909"/>
      <point x="84.18181818181819" y="64.27272727272728"/>
      <point x="77.18181818181819" y="37.90909090909091" type="curve"/>
      <point x="133.27272727272728" y="77.18181818181819" type="line"/>
      <point x="12.90909090909091" y="54.18181818181818" type="line"/>
    </contour>
    <contour>
      <point x="421.90909090909093" y="0.0" type="curve"/>
      <point x="594.0" y="0.0" type="line"/>
      <point x="608.0" y="61.90909090909091" type="line"/>
      <point x="500.45454545454544" y="71.63636363636364" type="line"/>
      <point x="562.5454545454545" y="42.45454545454545" type="line"/>
      <point x="552.2727272727273" y="60.36363636363637"/>
      <point x="524.9090909090909" y="112.9090909090909"/>
      <point x="517.1818181818181" y="129.72727272727272" type="curve" smooth="yes"/>
      <point x="511.9090909090909" y="142.27272727272728"/>
      <point x="465.1818181818182" y="243.72727272727272"/>
      <point x="428.27272727272725" y="349.0" type="curve"/>
      <point x="303.72727272727275" y="345.0" type="line"/>
      <point x="387.45454545454544" y="116.0" type="line" smooth="yes"/>
      <point x="399.54545454545456" y="83.54545454545455"/>
      <point x="411.45454545454544" y="37.63636363636364"/>
    </contour>
  </outline>
</glyph>
<glyph name="S" format="2">
  <advance width="570.1999999999999"/>
  <unicode hex="0053"/>
  <anchor x="242.54545454545453" y="0.0" name="bottom"/>
  <anchor x="355.72727272727275" y="720.0" name="top"/>
  <outline>
    <contour>
      <point x="244.54545454545453" y="-15.0" type="curve" smooth="yes"/>
      <point x="390.90909090909093" y="-15.0"/>
      <point x="514.3636363636364" y="68.18181818181819"/>
      <point x="514.3636363636364" y="218.36363636363637" type="curve" smooth="yes"/>
      <point x="514.3636363636364" y="412.3636363636364"/>
      <point x="231.0909090909091" y="410.6363636363636"/>
      <point x="231.0909090909091" y="539.4545454545455" type="curve" smooth="yes"/>
      <point x="231.0909090909091" y="607.7272727272727"/>
      <point x="284.1818181818182" y="648.2727272727273"/>
      <point x="349.90909090909093" y="648.2727272727273" type="curve" smooth="yes"/>
      <point x="403.54545454545456" y="648.2727272727273"/>
      <point x="438.27272727272725" y="629.2727272727273"/>
      <point x="474.3636363636364" y="606.9090909090909" type="curve"/>
      <point x="434.90909090909093" y="670.7272727272727" type="line"/>
      <point x="439.72727272727275" y="644.1818181818181"/>
      <point x="449.1818181818182" y="596.2727272727273"/>
      <point x="449.1818181818182" y="582.1818181818181" type="curve" smooth="yes"/>
      <point x="449.1818181818182" y="574.4545454545455"/>
      <point x="443.54545454545456" y="542.9090909090909"/>
      <point x="440.27272727272725" y="522.1818181818181" type="curve"/>
      <point x="508.6363636363636" y="516.4545454545455" type="line"/>
      <point x="547.1818181818181" y="686.0909090909091" type="line"/>
      <point x="484.6363636363636" y="704.6363636363636"/>
      <point x="408.54545454545456" y="720.0"/>
      <point x="344.27272727272725" y="720.0" type="curve" smooth="yes"/>
      <point x="205.27272727272728" y="720.0"/>
      <point x="97.45454545454545" y="638.6363636363636"/>
      <point x="97.45454545454545" y="503.1818181818182" type="curve" smooth="yes"/>
      <point x="97.45454545454545" y="311.54545454545456"/>
      <point x="378.27272727272725" y="316.54545454545456"/>
      <point x="378.27272727272725" y="181.45454545454547" type="curve" smooth="yes"/>
      <point x="378.27272727272725" y="105.27272727272728"/>
      <point x="321.45454545454544" y="61.72727272727273"/>
      <point x="247.72727272727272" y="61.72727272727273" type="curve" smooth="yes"/>
      <point x="187.0" y="61.72727272727273"/>
      <point x="141.36363636363637" y="86.0909090909091"/>
      <point x="120.18181818181819" y="97.36363636363636" type="curve"/>
      <point x="140.36363636363637" y="74.27272727272728" type="line"/>
      <point x="137.45454545454544" y="84.54545454545455"/>
      <point x="131.36363636363637" y="119.45454545454545"/>
      <point x="131.36363636363637" y="135.0" type="curve" smooth="yes"/>
      <point x="131.36363636363637" y="143.27272727272728"/>
      <point x="140.0" y="201.45454545454544"/>
      <point x="140.0" y="201.45454545454544" type="curve"/>
      <point x="68.72727272727273" y="207.45454545454544" type="line"/>
      <point x="28.90909090909091" y="35.45454545454545" type="line"/>
      <point x="91.27272727272727" y="2.2727272727272725"/>
      <point x="168.0909090909091" y="-15.0"/>
    </contour>
  </outline>
</glyph>
<glyph name="T" format="2">
  <advance width="652.6"/>
  <unicode hex="0054"/>
  <anchor x="286.6363636363636" y="0.0" name="bottom"/>
  <anchor x="336.6363636363636" y="353.0" name="center"/>
  <anchor x="391.6363636363636" y="720.0" name="top"/>
  <outline>
    <contour>
      <point x="139.45454545454547" y="-5.0" type="line"/>
      <point x="186.36363636363637" y="-3.0"/>
      <point x="264.54545454545456" y="0.0"/>
      <point x="291.09090909090907" y="0.0" type="curve" smooth="yes"/>
      <point x="430.72727272727275" y="0.0" type="line"/>
      <point x="445.3636363636364" y="61.27272727272727" type="line"/>
      <point x="313.09090909090907" y="73.18181818181819" type="line"/>
      <point x="361.09090909090907" y="34.63636363636364" type="line"/>
      <point x="359.72727272727275" y="60.90909090909091"/>
      <point x="364.1818181818182" y="132.54545454545453"/>
      <point x="370.09090909090907" y="178.36363636363637" type="curve" smooth="yes"/>
      <point x="422.54545454545456" y="539.9090909090909" type="line"/>
      <point x="428.54545454545456" y="580.9090909090909"/>
      <point x="447.45454545454544" y="649.0"/>
      <point x="453.54545454545456" y="671.4545454545455" type="curve"/>
      <point x="308.54545454545456" y="671.4545454545455" type="line"/>
      <point x="308.90909090909093" y="646.5454545454545"/>
      <point x="308.54545454545456" y="579.4545454545455"/>
      <point x="303.0" y="542.7272727272727" type="curve" smooth="yes"/>
      <point x="245.36363636363637" y="148.36363636363637" type="line" smooth="yes"/>
      <point x="241.72727272727272" y="125.54545454545455"/>
      <point x="223.36363636363637" y="63.0"/>
      <point x="217.0" y="37.90909090909091" type="curve"/>
      <point x="273.09090909090907" y="77.18181818181819" type="line"/>
      <point x="142.72727272727272" y="54.18181818181818" type="line"/>
    </contour>
    <contour>
      <point x="134.72727272727272" y="515.7272727272727" type="line"/>
      <point x="139.45454545454547" y="537.6363636363636"/>
      <point x="152.72727272727272" y="585.0909090909091"/>
      <point x="158.1818181818182" y="596.9090909090909" type="curve" smooth="yes"/>
      <point x="161.9090909090909" y="604.7272727272727"/>
      <point x="189.0909090909091" y="653.0"/>
      <point x="202.45454545454547" y="677.3636363636364" type="curve"/>
      <point x="134.0909090909091" y="631.0" type="line"/>
      <point x="161.54545454545453" y="633.0"/>
      <point x="223.0" y="637.6363636363636"/>
      <point x="257.3636363636364" y="637.6363636363636" type="curve" smooth="yes"/>
      <point x="496.0" y="637.6363636363636" type="line" smooth="yes"/>
      <point x="524.1818181818181" y="637.6363636363636"/>
      <point x="571.3636363636364" y="633.6363636363636"/>
      <point x="595.7272727272727" y="631.0" type="curve"/>
      <point x="557.3636363636364" y="675.4545454545455" type="line"/>
      <point x="569.2727272727273" y="651.7272727272727"/>
      <point x="583.2727272727273" y="605.1818181818181"/>
      <point x="583.9090909090909" y="596.2727272727273" type="curve" smooth="yes"/>
      <point x="584.5454545454545" y="583.1818181818181"/>
      <point x="583.6363636363636" y="537.6363636363636"/>
      <point x="583.2727272727273" y="515.7272727272727" type="curve"/>
      <point x="646.2727272727273" y="520.7272727272727" type="line"/>
      <point x="662.9090909090909" y="692.0" type="line"/>
      <point x="646.9090909090909" y="710.0" type="line"/>
      <point x="608.6363636363636" y="708.0"/>
      <point x="550.6363636363636" y="705.0"/>
      <point x="533.0" y="705.0" type="curve" smooth="yes"/>
      <point x="237.63636363636363" y="705.0" type="line" smooth="yes"/>
      <point x="220.63636363636363" y="705.0"/>
      <point x="163.36363636363637" y="708.0"/>
      <point x="126.36363636363636" y="710.0" type="curve"/>
      <point x="104.0909090909091" y="692.0" type="line"/>
      <point x="72.0909090909091" y="520.7272727272727" type="line"/>
    </contour>
  </outline>
</glyph>
<glyph name="U" format="2">
  <advance width="746.4"/>
  <unicode hex="0055"/>
  <anchor x="330.3636363636364" y="0.0" name="bottom"/>
  <anchor x="620.0" y="460.0" name="horn"/>
  <anchor x="444.6363636363636" y="0.0" name="ogonek"/>
  <anchor x="437.90909090909093" y="720.0" name="top"/>
  <anchor x="768.9090909090909" y="705.0" name="topright"/>
  <outline>
    <contour>
      <point x="326.72727272727275" y="-15.0" type="curve" smooth="yes"/>
      <point x="500.0" y="-15.0"/>
      <point x="606.5454545454545" y="93.72727272727273"/>
      <point x="632.1818181818181" y="267.27272727272725" type="curve" smooth="yes"/>
      <point x="672.1818181818181" y="539.9090909090909" type="line" smooth="yes"/>
      <point x="677.1818181818181" y="574.3636363636364"/>
      <point x="695.6363636363636" y="643.0909090909091"/>
      <point x="702.4545454545455" y="668.0" type="curve"/>
      <point x="645.9090909090909" y="630.2727272727273" type="line"/>
      <point x="764.9090909090909" y="641.5454545454545" type="line"/>
      <point x="770.4545454545455" y="710.0" type="line"/>
      <point x="724.0909090909091" y="708.0"/>
      <point x="663.2727272727273" y="705.0"/>
      <point x="632.0" y="705.0" type="curve" smooth="yes"/>
      <point x="613.3636363636364" y="705.0"/>
      <point x="559.3636363636364" y="708.0"/>
      <point x="523.3636363636364" y="710.0" type="curve"/>
      <point x="509.09090909090907" y="646.5454545454545" type="line"/>
      <point x="625.0909090909091" y="626.0" type="line"/>
      <point x="577.0909090909091" y="669.0909090909091" type="line"/>
      <point x="577.0909090909091" y="651.7272727272727"/>
      <point x="579.0909090909091" y="585.1818181818181"/>
      <point x="573.2727272727273" y="542.7272727272727" type="curve" smooth="yes"/>
      <point x="531.7272727272727" y="263.1818181818182" type="line" smooth="yes"/>
      <point x="514.6363636363636" y="149.1818181818182"/>
      <point x="458.6363636363636" y="71.72727272727272"/>
      <point x="349.90909090909093" y="71.72727272727272" type="curve" smooth="yes"/>
      <point x="263.54545454545456" y="71.72727272727272"/>
      <point x="219.45454545454544" y="131.36363636363637"/>
      <point x="219.45454545454544" y="217.9090909090909" type="curve" smooth="yes"/>
      <point x="219.8181818181818" y="245.54545454545453"/>
      <point x="224.1818181818182" y="271.1818181818182"/>
      <point x="264.0909090909091" y="539.9090909090909" type="curve" smooth="yes"/>
      <point x="269.0909090909091" y="575.0"/>
      <point x="288.45454545454544" y="644.6363636363636"/>
      <point x="294.3636363636364" y="669.0" type="curve"/>
      <point x="237.45454545454544" y="630.2727272727273" type="line"/>
      <point x="356.09090909090907" y="641.5454545454545" type="line"/>
      <point x="362.3636363636364" y="710.0" type="line"/>
      <point x="312.3636363636364" y="708.0"/>
      <point x="243.63636363636363" y="705.0"/>
      <point x="212.36363636363637" y="705.0" type="curve" smooth="yes"/>
      <point x="194.36363636363637" y="705.0"/>
      <point x="133.1818181818182" y="708.0"/>
      <point x="93.9090909090909" y="710.0" type="curve"/>
      <point x="79.63636363636364" y="646.5454545454545" type="line"/>
      <point x="195.27272727272728" y="626.0" type="line"/>
      <point x="147.27272727272728" y="668.0" type="line"/>
      <point x="147.27272727272728" y="655.0909090909091"/>
      <point x="147.9090909090909" y="585.1818181818181"/>
      <point x="141.72727272727272" y="542.7272727272727" type="curve" smooth="yes"/>
      <point x="102.18181818181819" y="272.1818181818182"/>
      <point x="96.45454545454545" y="243.0"/>
      <point x="97.0909090909091" y="206.1818181818182" type="curve" smooth="yes"/>
      <point x="97.0909090909091" y="72.27272727272727"/>
      <point x="171.63636363636363" y="-15.0"/>
    </contour>
  </outline>
</glyph>
<glyph name="V" format="2">
  <advance width="677.4"/>
  <unicode hex="0056"/>
  <anchor x="293.3636363636364" y="0.0" name="bottom"/>
  <anchor x="394.3636363636364" y="720.0" name="top"/>
  <outline>
    <contour>
      <point x="260.45454545454544" y="0.0" type="line"/>
      <point x="346.45454545454544" y="0.0" type="line"/>
      <point x="611.0909090909091" y="539.9090909090909" type="line" smooth="yes"/>
      <point x="630.0" y="578.0909090909091"/>
      <point x="676.0909090909091" y="645.2727272727273"/>
      <point x="687.9090909090909" y="660.0" type="curve"/>
      <point x="622.0" y="627.6363636363636" type="line"/>
      <point x="694.7272727272727" y="641.5454545454545" type="line"/>
      <point x="701.0" y="710.0" type="line"/>
      <point x="657.6363636363636" y="708.0"/>
      <point x="608.5454545454545" y="705.0"/>
      <point x="585.4545454545455" y="705.0" type="curve" smooth="yes"/>
      <point x="569.7272727272727" y="705.0"/>
      <point x="499.3636363636364" y="708.0"/>
      <point x="463.6363636363636" y="710.0" type="curve"/>
      <point x="448.3636363636364" y="646.1818181818181" type="line"/>
      <point x="594.7272727272727" y="625.3636363636364" type="line"/>
      <point x="556.5454545454545" y="661.4545454545455" type="line"/>
      <point x="551.2727272727273" y="642.6363636363636"/>
      <point x="524.4545454545455" y="567.5454545454545"/>
      <point x="513.5454545454545" y="543.3636363636364" type="curve" smooth="yes"/>
      <point x="318.6363636363636" y="130.45454545454544" type="line"/>
      <point x="348.0" y="127.18181818181819" type="line"/>
      <point x="268.54545454545456" y="540.2727272727273" type="line" smooth="yes"/>
      <point x="262.0909090909091" y="571.1818181818181"/>
      <point x="258.3636363636364" y="648.3636363636364"/>
      <point x="258.0" y="673.6363636363636" type="curve"/>
      <point x="211.36363636363637" y="630.2727272727273" type="line"/>
      <point x="351.0" y="641.5454545454545" type="line"/>
      <point x="356.27272727272725" y="710.0" type="line"/>
      <point x="305.54545454545456" y="708.0"/>
      <point x="220.0909090909091" y="705.0"/>
      <point x="188.72727272727272" y="705.0" type="curve" smooth="yes"/>
      <point x="170.45454545454547" y="705.0"/>
      <point x="131.27272727272728" y="708.0"/>
      <point x="92.36363636363636" y="710.0" type="curve"/>
      <point x="78.0909090909091" y="646.5454545454545" type="line"/>
      <point x="161.1818181818182" y="626.3636363636364" type="line"/>
      <point x="105.36363636363636" y="660.7272727272727" type="line"/>
      <point x="111.0909090909091" y="642.3636363636364"/>
      <point x="134.27272727272728" y="570.9090909090909"/>
      <point x="140.1818181818182" y="542.7272727272727" type="curve" smooth="yes"/>
    </contour>
  </outline>
</glyph>
<glyph name="W" format="2">
  <advance width="990.4"/>
  <unicode hex="0057"/>
  <anchor x="458.0" y="0.0" name="bottom"/>
  <anchor x="544.0" y="705.0" name="top"/>
  <outline>
    <contour>
      <point x="233.36363636363637" y="0.0" type="line"/>
      <point x="320.0" y="0.0" type="line"/>
      <point x="543.1818181818181" y="513.0909090909091" type="line"/>
      <point x="516.5454545454545" y="516.0909090909091" type="line"/>
      <point x="601.0909090909091" y="0.0" type="line"/>
      <point x="687.0909090909091" y="0.0" type="line"/>
      <point x="926.5454545454545" y="539.9090909090909" type="line" smooth="yes"/>
      <point x="941.9090909090909" y="574.6363636363636"/>
      <point x="985.3636363636364" y="640.5454545454545"/>
      <point x="1000.0909090909091" y="660.0" type="curve"/>
      <point x="936.7272727272727" y="627.6363636363636" type="line"/>
      <point x="1007.4545454545455" y="641.5454545454545" type="line"/>
      <point x="1013.7272727272727" y="710.0" type="line"/>
      <point x="970.3636363636364" y="708.0"/>
      <point x="923.2727272727273" y="705.0"/>
      <point x="900.5454545454545" y="705.0" type="curve" smooth="yes"/>
      <point x="884.4545454545455" y="705.0"/>
      <point x="818.0909090909091" y="708.0"/>
      <point x="782.3636363636364" y="710.0" type="curve"/>
      <point x="767.0909090909091" y="646.1818181818181" type="line"/>
      <point x="909.4545454545455" y="625.3636363636364" type="line"/>
      <point x="871.2727272727273" y="661.4545454545455" type="line"/>
      <point x="866.0" y="642.0"/>
      <point x="839.4545454545455" y="565.0"/>
      <point x="830.4545454545455" y="542.7272727272727" type="curve" smooth="yes"/>
      <point x="660.6363636363636" y="129.45454545454544" type="line"/>
      <point x="684.7272727272727" y="126.54545454545455" type="line"/>
      <point x="607.3636363636364" y="680.9090909090909" type="line"/>
      <point x="526.5454545454545" y="680.9090909090909" type="line"/>
      <point x="292.90909090909093" y="130.45454545454544" type="line"/>
      <point x="316.6363636363636" y="126.54545454545455" type="line"/>
      <point x="268.0" y="540.2727272727273" type="line" smooth="yes"/>
      <point x="264.27272727272725" y="571.7272727272727"/>
      <point x="262.0" y="647.4545454545455"/>
      <point x="261.6363636363636" y="673.6363636363636" type="curve"/>
      <point x="215.0" y="630.2727272727273" type="line"/>
      <point x="350.6363636363636" y="641.5454545454545" type="line"/>
      <point x="355.90909090909093" y="710.0" type="line"/>
      <point x="305.1818181818182" y="708.0"/>
      <point x="223.72727272727272" y="705.0"/>
      <point x="192.36363636363637" y="705.0" type="curve" smooth="yes"/>
      <point x="174.0909090909091" y="705.0"/>
      <point x="130.9090909090909" y="708.0"/>
      <point x="92.0" y="710.0" type="curve"/>
      <point x="77.72727272727273" y="646.5454545454545" type="line"/>
      <point x="164.45454545454547" y="626.3636363636364" type="line"/>
      <point x="109.0" y="660.7272727272727" type="line"/>
      <point x="115.36363636363636" y="640.4545454545455"/>
      <point x="134.72727272727272" y="570.2727272727273"/>
      <point x="139.63636363636363" y="542.7272727272727" type="curve" smooth="yes"/>
    </contour>
  </outline>
</glyph>
<glyph name="X" format="2">
  <advance width="741.6"/>
  <unicode hex="0058"/>
  <anchor x="341.9730909090909" y="0.0" name="bottom"/>
  <anchor x="427.9677272727273" y="705.0" name="top"/>
  <outline>
    <contour>
      <point x="9.272727272727273" y="-5.0" type="line"/>
      <point x="54.09090909090909" y="-3.0"/>
      <point x="119.63636363636364" y="0.0"/>
      <point x="144.45454545454547" y="0.0" type="curve" smooth="yes"/>
      <point x="249.63636363636363" y="0.0" type="line"/>
      <point x="263.54545454545456" y="61.90909090909091" type="line"/>
      <point x="154.0909090909091" y="75.63636363636364" type="line"/>
      <point x="186.45454545454547" y="44.54545454545455" type="line"/>
      <point x="199.27272727272728" y="66.63636363636364"/>
      <point x="229.72727272727272" y="115.18181818181819"/>
      <point x="245.36363636363637" y="135.0909090909091" type="curve" smooth="yes"/>
      <point x="390.1818181818182" y="318.0" type="line"/>
      <point x="337.54545454545456" y="322.27272727272725" type="line"/>
      <point x="425.27272727272725" y="155.63636363636363" type="line" smooth="yes"/>
      <point x="441.09090909090907" y="125.0"/>
      <point x="464.0" y="67.18181818181819"/>
      <point x="468.09090909090907" y="43.63636363636364" type="curve"/>
      <point x="508.3636363636364" y="79.0" type="line"/>
      <point x="401.54545454545456" y="54.09090909090909" type="line"/>
      <point x="397.6363636363636" y="-5.0" type="line"/>
      <point x="449.09090909090907" y="-3.0"/>
      <point x="521.5454545454545" y="0.0"/>
      <point x="553.0" y="0.0" type="curve" smooth="yes"/>
      <point x="666.6363636363636" y="0.0" type="line"/>
      <point x="679.9090909090909" y="61.90909090909091" type="line"/>
      <point x="577.5454545454545" y="76.0" type="line"/>
      <point x="635.9090909090909" y="54.09090909090909" type="line"/>
      <point x="609.0" y="90.9090909090909"/>
      <point x="587.0" y="121.45454545454545"/>
      <point x="577.0" y="139.54545454545453" type="curve" smooth="yes"/>
      <point x="427.3636363636364" y="415.1818181818182" type="line"/>
      <point x="420.45454545454544" y="334.27272727272725" type="line"/>
      <point x="587.0" y="550.0" type="line" smooth="yes"/>
      <point x="609.9090909090909" y="579.6363636363636"/>
      <point x="675.7272727272727" y="635.5454545454545"/>
      <point x="692.6363636363636" y="649.0909090909091" type="curve"/>
      <point x="625.5454545454545" y="628.6363636363636" type="line"/>
      <point x="743.4545454545455" y="641.5454545454545" type="line"/>
      <point x="749.0909090909091" y="710.0" type="line"/>
      <point x="706.1818181818181" y="708.0"/>
      <point x="648.1818181818181" y="705.0"/>
      <point x="619.6363636363636" y="705.0" type="curve" smooth="yes"/>
      <point x="595.6363636363636" y="705.0"/>
      <point x="544.0909090909091" y="708.0"/>
      <point x="506.0" y="710.0" type="curve"/>
      <point x="491.3636363636364" y="645.5454545454545" type="line"/>
      <point x="595.0" y="626.9090909090909" type="line"/>
      <point x="563.2727272727273" y="661.0909090909091" type="line"/>
      <point x="551.3636363636364" y="641.0909090909091"/>
      <point x="515.5454545454545" y="586.0909090909091"/>
      <point x="500.54545454545456" y="565.4545454545455" type="curve" smooth="yes"/>
      <point x="381.90909090909093" y="404.3636363636364" type="line"/>
      <point x="432.27272727272725" y="400.09090909090907" type="line"/>
      <point x="361.1818181818182" y="539.9090909090909" type="line" smooth="yes"/>
      <point x="342.45454545454544" y="576.5454545454545"/>
      <point x="323.45454545454544" y="637.6363636363636"/>
      <point x="320.54545454545456" y="655.0" type="curve"/>
      <point x="277.3636363636364" y="630.2727272727273" type="line"/>
      <point x="386.0" y="640.9090909090909" type="line"/>
      <point x="391.27272727272725" y="710.0" type="line"/>
      <point x="340.72727272727275" y="708.0"/>
      <point x="276.1818181818182" y="705.0"/>
      <point x="240.36363636363637" y="705.0" type="curve" smooth="yes"/>
      <point x="213.0909090909091" y="705.0"/>
      <point x="158.0" y="708.0"/>
      <point x="116.63636363636364" y="710.0" type="curve"/>
      <point x="101.72727272727273" y="646.5454545454545" type="line"/>
      <point x="212.63636363636363" y="628.3636363636364" type="line"/>
      <point x="151.54545454545456" y="657.4545454545455" type="line"/>
      <point x="169.0909090909091" y="631.1818181818181"/>
      <point x="195.27272727272728" y="583.1818181818181"/>
      <point x="210.1818181818182" y="556.6363636363636" type="curve" smooth="yes"/>
      <point x="343.72727272727275" y="306.90909090909093" type="line"/>
      <point x="351.6363636363636" y="387.09090909090907" type="line"/>
      <point x="170.9090909090909" y="165.72727272727272" type="line" smooth="yes"/>
      <point x="143.45454545454547" y="132.27272727272728"/>
      <point x="76.72727272727272" y="72.9090909090909"/>
      <point x="54.09090909090909" y="51.63636363636363" type="curve"/>
      <point x="117.45454545454545" y="77.63636363636364" type="line"/>
      <point x="12.90909090909091" y="53.45454545454545" type="line"/>
    </contour>
  </outline>
</glyph>
<glyph name="Y" format="2">
  <advance width="663.4"/>
  <unicode hex="0059"/>
  <anchor x="290.1818181818182" y="0.0" name="bottom"/>
  <anchor x="391.1818181818182" y="720.0" name="top"/>
  <anchor x="87.0" y="705.0" name="topleft"/>
  <outline>
    <contour>
      <point x="287.72727272727275" y="225.27272727272728" type="line"/>
      <point x="373.3636363636364" y="225.27272727272728" type="line"/>
      <point x="576.6363636363636" y="539.9090909090909" type="line" smooth="yes"/>
      <point x="599.3636363636364" y="575.0"/>
      <point x="658.1818181818181" y="643.6363636363636"/>
      <point x="670.5454545454545" y="660.0" type="curve"/>
      <point x="605.0" y="627.6363636363636" type="line"/>
      <point x="681.7272727272727" y="641.5454545454545" type="line"/>
      <point x="688.0" y="710.0" type="line"/>
      <point x="645.2727272727273" y="708.0"/>
      <point x="590.9090909090909" y="705.0"/>
      <point x="568.4545454545455" y="705.0" type="curve" smooth="yes"/>
      <point x="552.7272727272727" y="705.0"/>
      <point x="496.3636363636364" y="708.0"/>
      <point x="460.6363636363636" y="710.0" type="curve"/>
      <point x="446.0" y="646.1818181818181" type="line"/>
      <point x="578.3636363636364" y="625.3636363636364" type="line"/>
      <point x="538.4545454545455" y="661.4545454545455" type="line"/>
      <point x="533.5454545454545" y="642.0"/>
      <point x="492.0" y="564.0"/>
      <point x="479.3636363636364" y="543.3636363636364" type="curve" smooth="yes"/>
      <point x="335.90909090909093" y="314.27272727272725" type="line"/>
      <point x="378.0" y="310.0" type="line"/>
      <point x="289.72727272727275" y="549.0909090909091" type="line" smooth="yes"/>
      <point x="281.6363636363636" y="571.0"/>
      <point x="269.0909090909091" y="649.5454545454545"/>
      <point x="269.0909090909091" y="673.6363636363636" type="curve"/>
      <point x="220.36363636363637" y="630.2727272727273" type="line"/>
      <point x="346.0" y="641.5454545454545" type="line"/>
      <point x="351.27272727272725" y="710.0" type="line"/>
      <point x="300.54545454545456" y="708.0"/>
      <point x="228.1818181818182" y="705.0"/>
      <point x="197.72727272727272" y="705.0" type="curve" smooth="yes"/>
      <point x="179.1818181818182" y="705.0"/>
      <point x="130.9090909090909" y="708.0"/>
      <point x="92.0" y="710.0" type="curve"/>
      <point x="77.72727272727273" y="646.5454545454545" type="line"/>
      <point x="169.54545454545456" y="626.3636363636364" type="line"/>
      <point x="110.45454545454545" y="660.7272727272727" type="line"/>
      <point x="119.18181818181819" y="643.0"/>
      <point x="157.9090909090909" y="568.3636363636364"/>
      <point x="167.0909090909091" y="544.0" type="curve" smooth="yes"/>
    </contour>
    <contour>
      <point x="153.27272727272728" y="-5.0" type="line"/>
      <point x="200.45454545454544" y="-3.0"/>
      <point x="278.0" y="0.0"/>
      <point x="304.90909090909093" y="0.0" type="curve" smooth="yes"/>
      <point x="445.1818181818182" y="0.0" type="line"/>
      <point x="459.1818181818182" y="61.27272727272727" type="line"/>
      <point x="326.90909090909093" y="73.18181818181819" type="line"/>
      <point x="374.9090909090909" y="34.63636363636364" type="line"/>
      <point x="374.1818181818182" y="60.90909090909091"/>
      <point x="377.0" y="131.27272727272728"/>
      <point x="383.9090909090909" y="178.36363636363637" type="curve" smooth="yes"/>
      <point x="404.9090909090909" y="321.45454545454544" type="line"/>
      <point x="285.1818181818182" y="321.45454545454544" type="line"/>
      <point x="259.1818181818182" y="148.36363636363637" type="line" smooth="yes"/>
      <point x="255.54545454545453" y="124.9090909090909"/>
      <point x="237.45454545454547" y="64.27272727272728"/>
      <point x="230.45454545454547" y="37.90909090909091" type="curve"/>
      <point x="286.90909090909093" y="77.18181818181819" type="line"/>
      <point x="156.54545454545456" y="54.18181818181818" type="line"/>
    </contour>
  </outline>
</glyph>
<glyph name="Z" format="2">
  <advance width="608.1999999999999"/>
  <unicode hex="005A"/>
  <anchor x="264.72727272727275" y="0.0" name="bottom"/>
  <anchor x="318.72727272727275" y="353.0" name="center"/>
  <anchor x="359.72727272727275" y="720.0" name="top"/>
  <outline>
    <contour>
      <point x="492.1818181818182" y="-4.0" type="curve"/>
      <point x="514.0909090909091" y="14.0" type="line"/>
      <point x="551.3636363636364" y="185.0909090909091" type="line"/>
      <point x="492.3636363636364" y="190.0909090909091" type="line"/>
      <point x="488.0" y="173.72727272727272"/>
      <point x="476.6363636363636" y="136.0"/>
      <point x="470.27272727272725" y="121.63636363636364" type="curve" smooth="yes"/>
      <point x="464.90909090909093" y="108.27272727272728"/>
      <point x="440.09090909090907" y="72.45454545454545"/>
      <point x="420.6363636363636" y="46.54545454545455" type="curve"/>
      <point x="492.72727272727275" y="88.54545454545455" type="line"/>
      <point x="471.90909090909093" y="83.9090909090909"/>
      <point x="400.09090909090907" y="71.54545454545455"/>
      <point x="360.54545454545456" y="71.54545454545455" type="curve" smooth="yes"/>
      <point x="137.36363636363637" y="71.54545454545455" type="line"/>
      <point x="168.9090909090909" y="44.90909090909091" type="line"/>
      <point x="198.1818181818182" y="90.72727272727272"/>
      <point x="239.72727272727272" y="160.0909090909091"/>
      <point x="259.9090909090909" y="187.54545454545456" type="curve" smooth="yes"/>
      <point x="473.90909090909093" y="480.09090909090907" type="line" smooth="yes"/>
      <point x="505.09090909090907" y="523.2727272727273"/>
      <point x="555.2727272727273" y="584.3636363636364"/>
      <point x="598.6363636363636" y="638.2727272727273" type="curve"/>
      <point x="599.2727272727273" y="705.0" type="line"/>
      <point x="255.1818181818182" y="705.0" type="line" smooth="yes"/>
      <point x="238.45454545454547" y="705.0"/>
      <point x="183.0909090909091" y="709.2727272727273"/>
      <point x="145.1818181818182" y="712.5454545454545" type="curve"/>
      <point x="123.54545454545455" y="694.5454545454545" type="line"/>
      <point x="92.18181818181819" y="520.7272727272727" type="line"/>
      <point x="155.54545454545453" y="515.7272727272727" type="line"/>
      <point x="160.9090909090909" y="537.4545454545455"/>
      <point x="172.27272727272728" y="579.3636363636364"/>
      <point x="177.36363636363637" y="590.9090909090909" type="curve" smooth="yes"/>
      <point x="182.63636363636363" y="602.0909090909091"/>
      <point x="206.54545454545453" y="640.0909090909091"/>
      <point x="222.63636363636363" y="665.2727272727273" type="curve"/>
      <point x="177.36363636363637" y="628.1818181818181" type="line"/>
      <point x="188.36363636363637" y="628.5454545454545"/>
      <point x="239.63636363636363" y="634.1818181818181"/>
      <point x="279.0" y="634.1818181818181" type="curve" smooth="yes"/>
      <point x="493.1818181818182" y="634.1818181818181" type="line"/>
      <point x="461.6363636363636" y="662.0909090909091" type="line"/>
      <point x="436.27272727272725" y="618.4545454545455"/>
      <point x="401.90909090909093" y="559.9090909090909"/>
      <point x="378.54545454545456" y="528.5454545454545" type="curve" smooth="yes"/>
      <point x="155.45454545454547" y="226.9090909090909" type="line" smooth="yes"/>
      <point x="131.36363636363637" y="193.9090909090909"/>
      <point x="75.54545454545455" y="125.0909090909091"/>
      <point x="26.454545454545453" y="67.0909090909091" type="curve"/>
      <point x="25.454545454545453" y="0.0" type="line"/>
      <point x="382.1818181818182" y="0.0" type="line" smooth="yes"/>
      <point x="404.09090909090907" y="0.0"/>
      <point x="455.1818181818182" y="-2.0"/>
    </contour>
  </outline>
</glyph>
<glyph name="bracketleft" format="2">
  <advance width="424.0"/>
  <unicode hex="005B"/>
  <outline>
    <contour>
      <point x="302.6363636363636" y="-107.0" type="line"/>
      <point x="312.54545454545456" y="-50.09090909090909" type="line"/>
      <point x="153.72727272727272" y="-33.09090909090909" type="line"/>
      <point x="197.54545454545456" y="-92.72727272727273" type="line"/>
      <point x="196.45454545454544" y="-19.09090909090909"/>
      <point x="198.45454545454544" y="39.0"/>
      <point x="201.54545454545456" y="63.36363636363637" type="curve" smooth="yes"/>
      <point x="273.54545454545456" y="653.3636363636364" type="line" smooth="yes"/>
      <point x="276.27272727272725" y="677.0"/>
      <point x="294.72727272727275" y="757.3636363636364"/>
      <point x="308.1818181818182" y="810.4545454545455" type="curve"/>
      <point x="249.27272727272728" y="755.0909090909091" type="line"/>
      <point x="412.1818181818182" y="773.0909090909091" type="line"/>
      <point x="415.72727272727275" y="829.0" type="line"/>
      <point x="217.1818181818182" y="825.0" type="line"/>
      <point x="192.36363636363637" y="802.6363636363636" type="line"/>
      <point x="190.54545454545453" y="764.5454545454545"/>
      <point x="177.8181818181818" y="624.7272727272727"/>
      <point x="175.8181818181818" y="606.6363636363636" type="curve" smooth="yes"/>
      <point x="116.18181818181819" y="123.18181818181819" type="line" smooth="yes"/>
      <point x="114.18181818181819" y="103.18181818181819"/>
      <point x="88.81818181818181" y="-53.18181818181818"/>
      <point x="85.27272727272727" y="-75.36363636363636" type="curve"/>
      <point x="104.81818181818181" y="-103.0" type="line"/>
    </contour>
  </outline>
</glyph>
<glyph name="backslash" format="2">
  <advance width="398.0"/>
  <unicode hex="005C"/>
  <outline>
    <contour>
      <point x="266.27272727272725" y="-65.72727272727273" type="line"/>
      <point x="351.90909090909093" y="-39.72727272727273" type="line"/>
      <point x="156.72727272727272" y="773.0" type="line"/>
      <point x="72.0909090909091" y="747.0" type="line"/>
    </contour>
  </outline>
</glyph>
<glyph name="bracketright" format="2">
  <advance width="423.0"/>
  <unicode hex="005D"/>
  <outline>
    <contour>
      <point x="148.36363636363637" y="829.0" type="line"/>
      <point x="138.45454545454547" y="772.0909090909091" type="line"/>
      <point x="297.27272727272725" y="755.0909090909091" type="line"/>
      <point x="253.45454545454547" y="814.7272727272727" type="line"/>
      <point x="254.54545454545453" y="739.8181818181819"/>
      <point x="252.54545454545453" y="683.0"/>
      <point x="249.45454545454547" y="658.6363636363636" type="curve" smooth="yes"/>
      <point x="177.45454545454547" y="68.63636363636364" type="line" smooth="yes"/>
      <point x="174.0909090909091" y="45.0"/>
      <point x="157.1818181818182" y="-33.36363636363637"/>
      <point x="142.8181818181818" y="-88.45454545454545" type="curve"/>
      <point x="201.72727272727272" y="-33.09090909090909" type="line"/>
      <point x="38.81818181818182" y="-51.09090909090909" type="line"/>
      <point x="35.27272727272727" y="-107.0" type="line"/>
      <point x="233.8181818181818" y="-103.0" type="line"/>
      <point x="258.6363636363636" y="-80.63636363636364" type="line"/>
      <point x="260.45454545454544" y="-43.18181818181818"/>
      <point x="272.8181818181818" y="95.36363636363636"/>
      <point x="275.1818181818182" y="115.36363636363636" type="curve"/>
      <point x="334.8181818181818" y="598.8181818181819" type="line"/>
      <point x="337.1818181818182" y="618.8181818181819"/>
      <point x="362.1818181818182" y="775.1818181818181"/>
      <point x="365.72727272727275" y="797.3636363636364" type="curve"/>
      <point x="346.1818181818182" y="825.0" type="line"/>
    </contour>
  </outline>
</glyph>
<glyph name="asciicircum" format="2">
  <advance width="673.6"/>
  <unicode hex="005E"/>
  <outline>
    <contour>
      <point x="155.9090909090909" y="313.6363636363636" type="line"/>
      <point x="413.27272727272725" y="636.1818181818181" type="line"/>
      <point x="352.6363636363636" y="636.1818181818181" type="line"/>
      <point x="533.0" y="313.6363636363636" type="line"/>
      <point x="618.0909090909091" y="366.45454545454544" type="line"/>
      <point x="394.72727272727275" y="730.5454545454545" type="line"/>
      <point x="83.36363636363636" y="366.45454545454544" type="line"/>
    </contour>
  </outline>
</glyph>
<glyph name="underscore" format="2">
  <advance width="630.8000000000001"/>
  <unicode hex="005F"/>
  <outline>
    <contour>
      <point x="12.0" y="-232.0" type="line"/>
      <point x="499.0" y="-232.0" type="line"/>
      <point x="515.2727272727273" y="-145.0" type="line"/>
      <point x="21.272727272727273" y="-145.0" type="line"/>
    </contour>
  </outline>
</glyph>
<glyph name="a" format="2">
  <advance width="546.0"/>
  <unicode hex="0061"/>
  <anchor x="235.63636363636363" y="0.0" name="bottom"/>
  <anchor x="392.90909090909093" y="0.0" name="ogonek"/>
  <anchor x="305.27272727272725" y="494.0" name="top"/>
  <outline>
    <contour>
      <point x="118.0" y="-13.181818181818182" type="curve" smooth="yes"/>
      <point x="212.9090909090909" y="-13.181818181818182"/>
      <point x="303.27272727272725" y="101.0"/>
      <point x="359.72727272727275" y="240.54545454545456" type="curve"/>
      <point x="350.6363636363636" y="259.45454545454544" type="line"/>
      <point x="343.90909090909093" y="168.54545454545456"/>
      <point x="316.72727272727275" y="77.63636363636364"/>
      <point x="294.0" y="3.7272727272727275" type="curve"/>
      <point x="325.0" y="-13.181818181818182" type="line"/>
      <point x="504.9090909090909" y="29.90909090909091" type="line"/>
      <point x="508.54545454545456" y="75.63636363636364" type="line"/>
      <point x="374.45454545454544" y="86.0909090909091" type="line"/>
      <point x="424.1818181818182" y="40.54545454545455" type="line"/>
      <point x="427.45454545454544" y="215.72727272727272"/>
      <point x="455.45454545454544" y="348.09090909090907"/>
      <point x="490.54545454545456" y="488.6363636363636" type="curve"/>
      <point x="457.0909090909091" y="511.1818181818182" type="line"/>
      <point x="356.54545454545456" y="486.90909090909093" type="line"/>
      <point x="354.54545454545456" y="439.09090909090907" type="line" smooth="yes"/>
      <point x="347.90909090909093" y="277.72727272727275"/>
      <point x="235.0909090909091" y="88.18181818181819"/>
      <point x="182.45454545454544" y="88.18181818181819" type="curve" smooth="yes"/>
      <point x="158.0" y="88.18181818181819"/>
      <point x="148.54545454545456" y="120.36363636363636"/>
      <point x="148.54545454545456" y="164.45454545454544" type="curve" smooth="yes"/>
      <point x="148.54545454545456" y="282.90909090909093"/>
      <point x="200.1818181818182" y="426.6363636363636"/>
      <point x="241.0" y="426.6363636363636" type="curve" smooth="yes"/>
      <point x="294.6363636363636" y="426.6363636363636"/>
      <point x="368.1818181818182" y="388.0"/>
      <point x="379.27272727272725" y="384.54545454545456" type="curve"/>
      <point x="394.27272727272725" y="492.72727272727275" type="line"/>
      <point x="374.27272727272725" y="493.72727272727275"/>
      <point x="293.45454545454544" y="511.1818181818182"/>
      <point x="256.90909090909093" y="511.1818181818182" type="curve" smooth="yes"/>
      <point x="149.63636363636363" y="511.1818181818182"/>
      <point x="29.636363636363637" y="304.3636363636364"/>
      <point x="29.636363636363637" y="140.0" type="curve" smooth="yes"/>
      <point x="29.636363636363637" y="53.63636363636364"/>
      <point x="57.36363636363636" y="-13.181818181818182"/>
    </contour>
  </outline>
</glyph>
<glyph name="b" format="2">
  <advance width="511.8"/>
  <unicode hex="0062"/>
  <anchor x="221.0" y="0.0" name="bottom"/>
  <anchor x="315.27272727272725" y="651.2727272727273" name="top"/>
  <outline>
    <contour>
      <point x="54.54545454545455" y="-13.181818181818182" type="line"/>
      <point x="186.45454545454544" y="14.454545454545455" type="line"/>
      <point x="117.36363636363636" y="6.7272727272727275" type="line"/>
      <point x="128.72727272727272" y="7.363636363636363"/>
      <point x="217.36363636363637" y="-13.181818181818182"/>
      <point x="255.1818181818182" y="-13.181818181818182" type="curve" smooth="yes"/>
      <point x="361.72727272727275" y="-13.181818181818182"/>
      <point x="482.0909090909091" y="192.54545454545453"/>
      <point x="482.0909090909091" y="358.0" type="curve" smooth="yes"/>
      <point x="482.0909090909091" y="444.3636363636364"/>
      <point x="454.3636363636364" y="510.45454545454544"/>
      <point x="394.45454545454544" y="510.45454545454544" type="curve" smooth="yes"/>
      <point x="309.72727272727275" y="510.45454545454544"/>
      <point x="224.45454545454544" y="414.54545454545456"/>
      <point x="166.63636363636363" y="274.27272727272725" type="curve"/>
      <point x="177.63636363636363" y="281.9090909090909" type="line"/>
      <point x="196.63636363636363" y="408.45454545454544"/>
      <point x="232.0" y="579.4545454545455"/>
      <point x="265.72727272727275" y="745.6363636363636" type="curve"/>
      <point x="236.45454545454544" y="770.0" type="line"/>
      <point x="52.63636363636364" y="739.1818181818181" type="line"/>
      <point x="55.63636363636364" y="692.3636363636364" type="line"/>
      <point x="180.9090909090909" y="675.0" type="line"/>
      <point x="131.1818181818182" y="699.2727272727273" type="line"/>
      <point x="122.9090909090909" y="576.0909090909091"/>
      <point x="81.54545454545455" y="212.0"/>
      <point x="23.545454545454547" y="3.7272727272727275" type="curve"/>
    </contour>
    <contour>
      <point x="157.54545454545456" y="58.54545454545455" type="line"/>
      <point x="164.1818181818182" y="219.9090909090909"/>
      <point x="274.90909090909093" y="410.54545454545456"/>
      <point x="329.6363636363636" y="410.54545454545456" type="curve" smooth="yes"/>
      <point x="353.72727272727275" y="410.54545454545456"/>
      <point x="362.90909090909093" y="378.0"/>
      <point x="362.90909090909093" y="333.54545454545456" type="curve" smooth="yes"/>
      <point x="362.90909090909093" y="214.0"/>
      <point x="311.90909090909093" y="71.0909090909091"/>
      <point x="270.72727272727275" y="71.0909090909091" type="curve" smooth="yes"/>
      <point x="224.1818181818182" y="71.0909090909091"/>
      <point x="152.54545454545456" y="104.54545454545455"/>
      <point x="118.36363636363636" y="120.72727272727272" type="curve"/>
    </contour>
  </outline>
</glyph>
<glyph name="c" format="2">
  <advance width="425.2"/>
  <unicode hex="0063"/>
  <anchor x="152.54545454545453" y="0.0" name="bottom"/>
  <anchor x="281.1818181818182" y="494.0" name="top"/>
  <outline>
    <contour>
      <point x="152.45454545454547" y="-13.181818181818182" type="curve" smooth="yes"/>
      <point x="237.45454545454547" y="-13.181818181818182"/>
      <point x="322.27272727272725" y="40.90909090909091"/>
      <point x="377.0" y="126.36363636363636" type="curve"/>
      <point x="336.54545454545456" y="159.0909090909091" type="line"/>
      <point x="287.54545454545456" y="102.45454545454545"/>
      <point x="240.36363636363637" y="71.45454545454545"/>
      <point x="200.0909090909091" y="71.45454545454545" type="curve" smooth="yes"/>
      <point x="164.9090909090909" y="71.45454545454545"/>
      <point x="145.72727272727272" y="99.54545454545455"/>
      <point x="145.72727272727272" y="151.27272727272728" type="curve" smooth="yes"/>
      <point x="145.72727272727272" y="268.54545454545456"/>
      <point x="200.0909090909091" y="426.6363636363636"/>
      <point x="242.0" y="426.6363636363636" type="curve" smooth="yes"/>
      <point x="270.54545454545456" y="426.6363636363636"/>
      <point x="302.3636363636364" y="417.1818181818182"/>
      <point x="371.6363636363636" y="388.3636363636364" type="curve"/>
      <point x="320.90909090909093" y="459.09090909090907" type="line"/>
      <point x="324.1818181818182" y="313.3636363636364" type="line"/>
      <point x="371.1818181818182" y="310.72727272727275" type="line"/>
      <point x="407.27272727272725" y="467.54545454545456" type="line"/>
      <point x="386.6363636363636" y="500.0" type="line"/>
      <point x="339.1818181818182" y="506.1818181818182"/>
      <point x="278.3636363636364" y="511.1818181818182"/>
      <point x="246.54545454545456" y="511.1818181818182" type="curve" smooth="yes"/>
      <point x="153.36363636363637" y="511.1818181818182"/>
      <point x="27.454545454545453" y="296.1818181818182"/>
      <point x="27.454545454545453" y="139.0909090909091" type="curve" smooth="yes"/>
      <point x="27.454545454545453" y="42.09090909090909"/>
      <point x="72.72727272727273" y="-13.181818181818182"/>
    </contour>
  </outline>
</glyph>
<glyph name="d" format="2">
  <advance width="545.4"/>
  <unicode hex="0064"/>
  <anchor x="245.36363636363637" y="0.0" name="bottom"/>
  <anchor x="400.3636363636364" y="594.0909090909091" name="center"/>
  <anchor x="329.27272727272725" y="651.2727272727273" name="top"/>
  <anchor x="579.4545454545455" y="496.1818181818182" name="topright"/>
  <outline>
    <contour>
      <point x="118.0" y="-13.181818181818182" type="curve" smooth="yes"/>
      <point x="213.27272727272728" y="-13.181818181818182"/>
      <point x="303.27272727272725" y="101.0"/>
      <point x="359.72727272727275" y="240.54545454545456" type="curve"/>
      <point x="350.6363636363636" y="255.72727272727272" type="line"/>
      <point x="343.54545454545456" y="164.0909090909091"/>
      <point x="316.72727272727275" y="77.18181818181819"/>
      <point x="294.3636363636364" y="2.1818181818181817" type="curve"/>
      <point x="325.3636363636364" y="-14.727272727272727" type="line"/>
      <point x="504.9090909090909" y="29.90909090909091" type="line"/>
      <point x="508.54545454545456" y="75.63636363636364" type="line"/>
      <point x="374.09090909090907" y="84.54545454545455" type="line"/>
      <point x="417.9090909090909" y="47.09090909090909" type="line"/>
      <point x="425.27272727272725" y="220.36363636363637"/>
      <point x="470.6363636363636" y="478.3636363636364"/>
      <point x="521.3636363636364" y="745.6363636363636" type="curve"/>
      <point x="492.0909090909091" y="770.0" type="line"/>
      <point x="301.6363636363636" y="739.1818181818181" type="line"/>
      <point x="304.27272727272725" y="692.3636363636364" type="line"/>
      <point x="436.45454545454544" y="675.6363636363636" type="line"/>
      <point x="387.3636363636364" y="711.9090909090909" type="line"/>
      <point x="385.27272727272725" y="658.5454545454545"/>
      <point x="373.6363636363636" y="553.5454545454545"/>
      <point x="362.72727272727275" y="478.27272727272725" type="curve"/>
      <point x="354.54545454545456" y="439.09090909090907" type="line"/>
      <point x="347.90909090909093" y="278.09090909090907"/>
      <point x="237.9090909090909" y="88.18181818181819"/>
      <point x="182.45454545454544" y="88.18181818181819" type="curve" smooth="yes"/>
      <point x="158.0" y="88.18181818181819"/>
      <point x="148.54545454545456" y="120.36363636363636"/>
      <point x="148.54545454545456" y="164.45454545454544" type="curve" smooth="yes"/>
      <point x="148.54545454545456" y="282.90909090909093"/>
      <point x="200.1818181818182" y="426.6363636363636"/>
      <point x="241.0" y="426.6363636363636" type="curve" smooth="yes"/>
      <point x="294.6363636363636" y="426.6363636363636"/>
      <point x="368.1818181818182" y="388.0"/>
      <point x="379.27272727272725" y="384.54545454545456" type="curve"/>
      <point x="394.27272727272725" y="492.72727272727275" type="line"/>
      <point x="374.27272727272725" y="493.72727272727275"/>
      <point x="293.45454545454544" y="511.1818181818182"/>
      <point x="256.90909090909093" y="511.1818181818182" type="curve" smooth="yes"/>
      <point x="150.0" y="511.1818181818182"/>
      <point x="28.90909090909091" y="305.45454545454544"/>
      <point x="29.636363636363637" y="140.0" type="curve" smooth="yes"/>
      <point x="30.0" y="53.63636363636364"/>
      <point x="57.0" y="-13.181818181818182"/>
    </contour>
  </outline>
</glyph>
<glyph name="e" format="2">
  <advance width="433.2"/>
  <unicode hex="0065"/>
  <anchor x="143.1818181818182" y="0.0" name="bottom"/>
  <anchor x="243.27272727272728" y="0.0" name="ogonek"/>
  <anchor x="273.72727272727275" y="494.0" name="top"/>
  <outline>
    <contour>
      <point x="152.1818181818182" y="-13.181818181818182" type="curve" smooth="yes"/>
      <point x="236.1818181818182" y="-13.181818181818182"/>
      <point x="329.1818181818182" y="42.18181818181818"/>
      <point x="386.09090909090907" y="127.27272727272727" type="curve"/>
      <point x="345.90909090909093" y="160.0" type="line"/>
      <point x="304.45454545454544" y="110.63636363636364"/>
      <point x="243.9090909090909" y="69.27272727272728"/>
      <point x="199.72727272727272" y="69.27272727272728" type="curve" smooth="yes"/>
      <point x="165.0909090909091" y="69.27272727272728"/>
      <point x="143.1818181818182" y="95.45454545454545"/>
      <point x="143.1818181818182" y="152.54545454545453" type="curve" smooth="yes"/>
      <point x="143.1818181818182" y="270.0"/>
      <point x="200.9090909090909" y="433.90909090909093"/>
      <point x="249.63636363636363" y="433.90909090909093" type="curve" smooth="yes"/>
      <point x="291.1818181818182" y="433.90909090909093"/>
      <point x="307.3636363636364" y="422.09090909090907"/>
      <point x="307.3636363636364" y="398.27272727272725" type="curve" smooth="yes"/>
      <point x="307.3636363636364" y="335.72727272727275"/>
      <point x="233.27272727272728" y="270.0"/>
      <point x="115.45454545454545" y="257.09090909090907" type="curve"/>
      <point x="114.45454545454545" y="202.36363636363637" type="line"/>
      <point x="303.90909090909093" y="229.27272727272728"/>
      <point x="418.27272727272725" y="315.45454545454544"/>
      <point x="418.27272727272725" y="426.1818181818182" type="curve" smooth="yes"/>
      <point x="418.27272727272725" y="482.27272727272725"/>
      <point x="363.72727272727275" y="511.1818181818182"/>
      <point x="263.09090909090907" y="511.1818181818182" type="curve" smooth="yes"/>
      <point x="165.36363636363637" y="511.1818181818182"/>
      <point x="25.545454545454547" y="297.54545454545456"/>
      <point x="25.545454545454547" y="139.0909090909091" type="curve" smooth="yes"/>
      <point x="25.545454545454547" y="33.45454545454545"/>
      <point x="78.54545454545455" y="-13.181818181818182"/>
    </contour>
  </outline>
</glyph>
<glyph name="f" format="2">
  <advance width="336.40000000000003"/>
  <unicode hex="0066"/>
  <anchor x="137.63636363636363" y="0.0" name="bottom"/>
  <anchor x="217.27272727272728" y="651.2727272727273" name="top"/>
  <outline>
    <contour>
      <point x="-107.36363636363636" y="-234.63636363636363" type="line"/>
      <point x="17.909090909090907" y="-226.45454545454547"/>
      <point x="120.36363636363636" y="-161.0909090909091"/>
      <point x="161.9090909090909" y="-43.90909090909091" type="curve" smooth="yes"/>
      <point x="194.45454545454544" y="51.36363636363636"/>
      <point x="202.45454545454544" y="242.36363636363637"/>
      <point x="244.36363636363637" y="468.72727272727275" type="curve"/>
      <point x="185.1818181818182" y="422.1818181818182" type="line"/>
      <point x="333.72727272727275" y="422.1818181818182" type="line"/>
      <point x="351.45454545454544" y="489.72727272727275" type="line"/>
      <point x="197.63636363636363" y="489.72727272727275" type="line"/>
      <point x="240.9090909090909" y="440.0" type="line"/>
      <point x="247.45454545454544" y="564.0909090909091"/>
      <point x="246.27272727272728" y="639.9090909090909"/>
      <point x="260.3636363636364" y="659.4545454545455" type="curve" smooth="yes"/>
      <point x="276.45454545454544" y="681.7272727272727"/>
      <point x="337.27272727272725" y="694.1818181818181"/>
      <point x="403.45454545454544" y="691.5454545454545" type="curve"/>
      <point x="426.72727272727275" y="781.6363636363636" type="line"/>
      <point x="288.6363636363636" y="778.0909090909091"/>
      <point x="172.63636363636363" y="699.5454545454545"/>
      <point x="146.0" y="558.7272727272727" type="curve" smooth="yes"/>
      <point x="141.0" y="529.4545454545455"/>
      <point x="137.9090909090909" y="511.54545454545456"/>
      <point x="125.45454545454545" y="503.3636363636364" type="curve" smooth="yes"/>
      <point x="109.45454545454545" y="492.3636363636364"/>
      <point x="66.63636363636364" y="479.6363636363636"/>
      <point x="42.27272727272727" y="472.90909090909093" type="curve"/>
      <point x="37.0" y="422.1818181818182" type="line"/>
      <point x="176.36363636363637" y="422.1818181818182" type="line"/>
      <point x="128.63636363636363" y="451.6363636363636" type="line"/>
      <point x="109.45454545454545" y="276.54545454545456"/>
      <point x="71.72727272727273" y="-67.36363636363636"/>
      <point x="26.18181818181818" y="-114.0" type="curve" smooth="yes"/>
      <point x="11.636363636363637" y="-128.72727272727272"/>
      <point x="-34.36363636363636" y="-143.54545454545456"/>
      <point x="-79.18181818181819" y="-144.54545454545456" type="curve"/>
    </contour>
  </outline>
</glyph>
<glyph name="g" format="2">
  <advance width="519.8"/>
  <unicode hex="0067"/>
  <anchor x="305.6363636363636" y="-50.90909090909091" name="center"/>
  <anchor x="324.72727272727275" y="494.0" name="top"/>
  <outline>
    <contour>
      <point x="-22.90909090909091" y="-211.27272727272728" type="line"/>
      <point x="202.54545454545453" y="-282.6363636363636"/>
      <point x="387.27272727272725" y="-190.0909090909091"/>
      <point x="411.72727272727275" y="12.09090909090909" type="curve" smooth="yes"/>
      <point x="433.72727272727275" y="192.45454545454547"/>
      <point x="457.54545454545456" y="353.1818181818182"/>
      <point x="491.54545454545456" y="488.6363636363636" type="curve"/>
      <point x="458.45454545454544" y="511.1818181818182" type="line"/>
      <point x="357.27272727272725" y="485.0" type="line"/>
      <point x="355.27272727272725" y="437.54545454545456" type="line" smooth="yes"/>
      <point x="348.6363636363636" y="276.54545454545456"/>
      <point x="236.54545454545456" y="88.18181818181819"/>
      <point x="183.1818181818182" y="88.18181818181819" type="curve" smooth="yes"/>
      <point x="158.0" y="88.18181818181819"/>
      <point x="148.54545454545456" y="121.0909090909091"/>
      <point x="148.54545454545456" y="164.45454545454544" type="curve" smooth="yes"/>
      <point x="148.54545454545456" y="283.27272727272725"/>
      <point x="199.0909090909091" y="426.6363636363636"/>
      <point x="241.36363636363637" y="426.6363636363636" type="curve" smooth="yes"/>
      <point x="293.90909090909093" y="426.6363636363636"/>
      <point x="368.90909090909093" y="388.0"/>
      <point x="379.6363636363636" y="384.54545454545456" type="curve"/>
      <point x="395.0" y="492.72727272727275" type="line"/>
      <point x="375.0" y="493.72727272727275"/>
      <point x="293.09090909090907" y="511.1818181818182"/>
      <point x="256.90909090909093" y="511.1818181818182" type="curve" smooth="yes"/>
      <point x="149.27272727272728" y="511.1818181818182"/>
      <point x="29.636363636363637" y="304.3636363636364"/>
      <point x="29.636363636363637" y="140.0" type="curve" smooth="yes"/>
      <point x="29.636363636363637" y="54.0"/>
      <point x="57.36363636363636" y="-13.181818181818182"/>
      <point x="118.0" y="-13.181818181818182" type="curve" smooth="yes"/>
      <point x="213.27272727272728" y="-13.181818181818182"/>
      <point x="303.27272727272725" y="100.27272727272728"/>
      <point x="360.09090909090907" y="240.54545454545456" type="curve"/>
      <point x="350.6363636363636" y="255.72727272727272" type="line"/>
      <point x="341.6363636363636" y="163.72727272727272"/>
      <point x="321.72727272727275" y="70.54545454545455"/>
      <point x="302.90909090909093" y="-7.363636363636363" type="curve"/>
      <point x="301.45454545454544" y="-38.72727272727273"/>
      <point x="296.6363636363636" y="-100.0"/>
      <point x="281.45454545454544" y="-112.9090909090909" type="curve" smooth="yes"/>
      <point x="233.36363636363637" y="-155.0909090909091"/>
      <point x="116.45454545454545" y="-151.63636363636363"/>
      <point x="14.636363636363637" y="-110.0909090909091" type="curve"/>
    </contour>
  </outline>
</glyph>
<glyph name="h" format="2">
  <advance width="561.0"/>
  <unicode hex="0068"/>
  <anchor x="247.1818181818182" y="0.0" name="bottom"/>
  <anchor x="200.0" y="594.0909090909091" name="center"/>
  <anchor x="199.1818181818182" y="742.1818181818181" name="top"/>
  <outline>
    <contour>
      <point x="55.45454545454545" y="-13.181818181818182" type="line"/>
      <point x="150.0909090909091" y="3.7272727272727275" type="line"/>
      <point x="152.54545454545456" y="24.545454545454547"/>
      <point x="153.9090909090909" y="39.63636363636364"/>
      <point x="157.45454545454544" y="64.45454545454545" type="curve"/>
      <point x="192.63636363636363" y="241.9090909090909"/>
      <point x="284.72727272727275" y="405.3636363636364"/>
      <point x="344.27272727272725" y="405.3636363636364" type="curve" smooth="yes"/>
      <point x="366.1818181818182" y="405.3636363636364"/>
      <point x="370.0" y="380.0"/>
      <point x="370.0" y="357.3636363636364" type="curve" smooth="yes"/>
      <point x="370.0" y="284.90909090909093"/>
      <point x="330.90909090909093" y="127.18181818181819"/>
      <point x="298.45454545454544" y="3.7272727272727275" type="curve"/>
      <point x="328.45454545454544" y="-13.181818181818182" type="line"/>
      <point x="516.7272727272727" y="29.90909090909091" type="line"/>
      <point x="520.0" y="75.63636363636364" type="line"/>
      <point x="389.09090909090907" y="84.54545454545455" type="line"/>
      <point x="438.54545454545456" y="42.18181818181818" type="line"/>
      <point x="442.54545454545456" y="179.36363636363637"/>
      <point x="493.54545454545456" y="330.90909090909093"/>
      <point x="493.54545454545456" y="428.45454545454544" type="curve" smooth="yes"/>
      <point x="493.54545454545456" y="475.09090909090907"/>
      <point x="467.72727272727275" y="511.1818181818182"/>
      <point x="416.45454545454544" y="511.1818181818182" type="curve" smooth="yes"/>
      <point x="317.9090909090909" y="511.1818181818182"/>
      <point x="227.36363636363637" y="395.1818181818182"/>
      <point x="173.1818181818182" y="264.0" type="curve"/>
      <point x="176.72727272727272" y="262.9090909090909" type="line"/>
      <point x="197.1818181818182" y="398.9090909090909"/>
      <point x="233.0909090909091" y="588.5454545454545"/>
      <point x="265.72727272727275" y="745.6363636363636" type="curve"/>
      <point x="236.45454545454544" y="770.0" type="line"/>
      <point x="52.63636363636364" y="739.1818181818181" type="line"/>
      <point x="55.63636363636364" y="692.3636363636364" type="line"/>
      <point x="180.9090909090909" y="675.0" type="line"/>
      <point x="131.1818181818182" y="699.2727272727273" type="line"/>
      <point x="122.9090909090909" y="576.0909090909091"/>
      <point x="81.54545454545455" y="212.0"/>
      <point x="23.545454545454547" y="3.7272727272727275" type="curve"/>
    </contour>
  </outline>
</glyph>
<glyph name="k" format="2">
  <advance width="546.0"/>
  <unicode hex="006B"/>
  <anchor x="243.36363636363637" y="0.0" name="bottom"/>
  <anchor x="330.6363636363636" y="747.4545454545455" name="top"/>
  <outline>
    <contour>
      <point x="56.72727272727273" y="-13.181818181818182" type="line"/>
      <point x="152.0" y="3.7272727272727275" type="line"/>
      <point x="153.27272727272728" y="16.454545454545453"/>
      <point x="158.27272727272728" y="60.45454545454545"/>
      <point x="162.36363636363637" y="87.18181818181819" type="curve"/>
      <point x="194.54545454545456" y="257.6363636363636"/>
      <point x="292.90909090909093" y="417.27272727272725"/>
      <point x="363.45454545454544" y="417.27272727272725" type="curve" smooth="yes"/>
      <point x="379.09090909090907" y="417.27272727272725"/>
      <point x="389.45454545454544" y="406.27272727272725"/>
      <point x="389.45454545454544" y="388.1818181818182" type="curve" smooth="yes"/>
      <point x="389.45454545454544" y="324.90909090909093"/>
      <point x="326.09090909090907" y="265.90909090909093"/>
      <point x="218.63636363636363" y="230.45454545454547" type="curve"/>
      <point x="218.63636363636363" y="186.1818181818182" type="line"/>
      <point x="339.0909090909091" y="-13.181818181818182" type="line"/>
      <point x="497.54545454545456" y="29.90909090909091" type="line"/>
      <point x="501.54545454545456" y="75.63636363636364" type="line"/>
      <point x="372.3636363636364" y="85.18181818181819" type="line"/>
      <point x="445.0" y="61.0" type="line"/>
      <point x="398.54545454545456" y="99.72727272727273"/>
      <point x="342.6363636363636" y="178.54545454545453"/>
      <point x="307.0" y="245.54545454545456" type="curve"/>
      <point x="279.54545454545456" y="200.0909090909091" type="line"/>
      <point x="425.27272727272725" y="249.72727272727272"/>
      <point x="503.0" y="329.27272727272725"/>
      <point x="503.0" y="428.6363636363636" type="curve" smooth="yes"/>
      <point x="503.0" y="482.3636363636364"/>
      <point x="476.54545454545456" y="511.1818181818182"/>
      <point x="423.72727272727275" y="511.1818181818182" type="curve" smooth="yes"/>
      <point x="321.0" y="511.1818181818182"/>
      <point x="223.0909090909091" y="395.9090909090909"/>
      <point x="163.72727272727272" y="236.63636363636363" type="curve"/>
      <point x="173.36363636363637" y="238.72727272727275" type="line"/>
      <point x="194.36363636363637" y="380.6363636363636"/>
      <point x="226.27272727272728" y="543.2727272727273"/>
      <point x="266.0909090909091" y="745.6363636363636" type="curve"/>
      <point x="237.1818181818182" y="770.0" type="line"/>
      <point x="53.0" y="739.1818181818181" type="line"/>
      <point x="55.27272727272727" y="692.3636363636364" type="line"/>
      <point x="180.9090909090909" y="675.0" type="line"/>
      <point x="132.1818181818182" y="712.6363636363636" type="line"/>
      <point x="118.27272727272727" y="495.72727272727275"/>
      <point x="66.36363636363636" y="158.0909090909091"/>
      <point x="24.18181818181818" y="3.7272727272727275" type="curve"/>
    </contour>
  </outline>
</glyph>
<glyph name="l" format="2">
  <advance width="279.8"/>
  <unicode hex="006C"/>
  <anchor x="147.36363636363637" y="0.0" name="bottom"/>
  <anchor x="150.36363636363637" y="383.45454545454544" name="center"/>
  <anchor x="353.09090909090907" y="411.45454545454544" name="centerright"/>
  <anchor x="172.63636363636363" y="756.0" name="top"/>
  <anchor x="322.72727272727275" y="496.1818181818182" name="topright"/>
  <outline>
    <contour>
      <point x="54.54545454545455" y="-13.181818181818182" type="line"/>
      <point x="238.1818181818182" y="29.90909090909091" type="line"/>
      <point x="241.45454545454544" y="75.63636363636364" type="line"/>
      <point x="109.27272727272728" y="86.0909090909091" type="line"/>
      <point x="158.27272727272728" y="59.18181818181818" type="line"/>
      <point x="176.27272727272728" y="232.54545454545456"/>
      <point x="217.0" y="476.0909090909091"/>
      <point x="265.45454545454544" y="745.6363636363636" type="curve"/>
      <point x="236.54545454545456" y="770.0" type="line"/>
      <point x="52.36363636363636" y="739.1818181818181" type="line"/>
      <point x="55.36363636363636" y="692.3636363636364" type="line"/>
      <point x="180.63636363636363" y="675.0" type="line"/>
      <point x="130.9090909090909" y="699.2727272727273" type="line"/>
      <point x="122.63636363636364" y="576.0909090909091"/>
      <point x="81.54545454545455" y="212.0"/>
      <point x="23.545454545454547" y="3.7272727272727275" type="curve"/>
    </contour>
  </outline>
</glyph>
<glyph name="m" format="2">
  <advance width="866.6"/>
  <unicode hex="006D"/>
  <anchor x="403.27272727272725" y="0.0" name="bottom"/>
  <anchor x="463.27272727272725" y="494.0" name="top"/>
  <outline>
    <contour>
      <point x="73.9090909090909" y="-13.181818181818182" type="line"/>
      <point x="169.1818181818182" y="3.7272727272727275" type="line"/>
      <point x="171.9090909090909" y="27.363636363636363"/>
      <point x="175.63636363636363" y="51.0"/>
      <point x="179.0909090909091" y="74.63636363636364" type="curve"/>
      <point x="212.54545454545453" y="241.36363636363637"/>
      <point x="310.6363636363636" y="405.0909090909091"/>
      <point x="370.27272727272725" y="405.0909090909091" type="curve" smooth="yes"/>
      <point x="393.54545454545456" y="405.0909090909091"/>
      <point x="397.3636363636364" y="379.72727272727275"/>
      <point x="397.3636363636364" y="357.09090909090907" type="curve" smooth="yes"/>
      <point x="397.3636363636364" y="285.72727272727275"/>
      <point x="357.6363636363636" y="129.36363636363637"/>
      <point x="324.09090909090907" y="3.7272727272727275" type="curve"/>
      <point x="355.09090909090907" y="-13.181818181818182" type="line"/>
      <point x="450.0909090909091" y="3.7272727272727275" type="line"/>
      <point x="452.9090909090909" y="28.272727272727273"/>
      <point x="456.45454545454544" y="56.90909090909091"/>
      <point x="458.90909090909093" y="72.45454545454545" type="curve"/>
      <point x="492.3636363636364" y="239.63636363636363"/>
      <point x="591.3636363636364" y="405.0909090909091"/>
      <point x="649.7272727272727" y="405.0909090909091" type="curve" smooth="yes"/>
      <point x="672.0" y="405.0909090909091"/>
      <point x="676.5454545454545" y="380.0909090909091"/>
      <point x="676.5454545454545" y="357.09090909090907" type="curve" smooth="yes"/>
      <point x="676.5454545454545" y="285.0"/>
      <point x="636.7272727272727" y="128.63636363636363"/>
      <point x="603.5454545454545" y="3.7272727272727275" type="curve"/>
      <point x="634.2727272727273" y="-13.181818181818182" type="line"/>
      <point x="822.5454545454545" y="29.90909090909091" type="line"/>
      <point x="826.1818181818181" y="75.63636363636364" type="line"/>
      <point x="696.0" y="84.54545454545455" type="line"/>
      <point x="744.7272727272727" y="44.36363636363636" type="line"/>
      <point x="748.7272727272727" y="181.9090909090909"/>
      <point x="799.0" y="330.6363636363636"/>
      <point x="799.0" y="428.54545454545456" type="curve" smooth="yes"/>
      <point x="799.0" y="474.45454545454544"/>
      <point x="774.2727272727273" y="511.1818181818182"/>
      <point x="722.6363636363636" y="511.1818181818182" type="curve" smooth="yes"/>
      <point x="600.0909090909091" y="511.1818181818182"/>
      <point x="510.6363636363636" y="349.3636363636364"/>
      <point x="463.54545454545456" y="257.0" type="curve"/>
      <point x="473.27272727272725" y="250.36363636363637" type="line"/>
      <point x="515.9090909090909" y="374.3636363636364"/>
      <point x="551.2727272727273" y="511.1818181818182"/>
      <point x="443.1818181818182" y="511.1818181818182" type="curve" smooth="yes"/>
      <point x="321.27272727272725" y="511.1818181818182"/>
      <point x="231.45454545454547" y="359.9090909090909"/>
      <point x="186.36363636363637" y="254.0909090909091" type="curve"/>
      <point x="191.36363636363637" y="251.45454545454544" type="line"/>
      <point x="211.36363636363637" y="356.1818181818182"/>
      <point x="235.27272727272728" y="426.1818181818182"/>
      <point x="255.9090909090909" y="486.45454545454544" type="curve"/>
      <point x="224.1818181818182" y="511.1818181818182" type="line"/>
      <point x="44.09090909090909" y="467.45454545454544" type="line"/>
      <point x="44.09090909090909" y="421.6363636363636" type="line"/>
      <point x="170.0" y="414.3636363636364" type="line"/>
      <point x="120.0" y="449.27272727272725" type="line"/>
      <point x="110.36363636363636" y="303.09090909090907"/>
      <point x="91.9090909090909" y="190.27272727272728"/>
      <point x="42.90909090909091" y="3.7272727272727275" type="curve"/>
    </contour>
  </outline>
</glyph>
<glyph name="n" format="2">
  <advance width="588.4"/>
  <unicode hex="006E"/>
  <anchor x="264.09090909090907" y="0.0" name="bottom"/>
  <anchor x="328.45454545454544" y="494.0" name="top"/>
  <outline>
    <contour>
      <point x="73.27272727272727" y="-13.181818181818182" type="line"/>
      <point x="168.54545454545456" y="3.7272727272727275" type="line"/>
      <point x="171.27272727272728" y="26.454545454545453"/>
      <point x="174.0" y="48.90909090909091"/>
      <point x="178.45454545454544" y="73.63636363636364" type="curve"/>
      <point x="213.0" y="244.36363636363637"/>
      <point x="313.0" y="405.0909090909091"/>
      <point x="371.1818181818182" y="405.0909090909091" type="curve" smooth="yes"/>
      <point x="394.09090909090907" y="405.0909090909091"/>
      <point x="397.90909090909093" y="379.3636363636364"/>
      <point x="397.90909090909093" y="357.09090909090907" type="curve" smooth="yes"/>
      <point x="397.90909090909093" y="284.27272727272725"/>
      <point x="358.45454545454544" y="129.0"/>
      <point x="325.3636363636364" y="3.7272727272727275" type="curve"/>
      <point x="356.6363636363636" y="-13.181818181818182" type="line"/>
      <point x="544.9090909090909" y="29.90909090909091" type="line"/>
      <point x="548.5454545454545" y="75.63636363636364" type="line"/>
      <point x="417.3636363636364" y="86.0909090909091" type="line"/>
      <point x="466.45454545454544" y="45.27272727272727" type="line"/>
      <point x="470.1818181818182" y="181.9090909090909"/>
      <point x="520.7272727272727" y="330.6363636363636"/>
      <point x="520.7272727272727" y="428.54545454545456" type="curve" smooth="yes"/>
      <point x="520.7272727272727" y="474.45454545454544"/>
      <point x="495.3636363636364" y="511.1818181818182"/>
      <point x="443.72727272727275" y="511.1818181818182" type="curve" smooth="yes"/>
      <point x="323.54545454545456" y="511.1818181818182"/>
      <point x="233.72727272727272" y="367.54545454545456"/>
      <point x="187.0" y="254.72727272727272" type="curve"/>
      <point x="191.36363636363637" y="251.45454545454544" type="line"/>
      <point x="211.0" y="354.0"/>
      <point x="235.54545454545456" y="425.45454545454544"/>
      <point x="255.27272727272728" y="486.45454545454544" type="curve"/>
      <point x="223.54545454545456" y="511.1818181818182" type="line"/>
      <point x="43.45454545454545" y="467.45454545454544" type="line"/>
      <point x="43.45454545454545" y="421.6363636363636" type="line"/>
      <point x="169.36363636363637" y="414.3636363636364" type="line"/>
      <point x="120.0" y="449.27272727272725" type="line"/>
      <point x="110.27272727272727" y="300.54545454545456"/>
      <point x="92.36363636363636" y="195.0"/>
      <point x="42.90909090909091" y="3.7272727272727275" type="curve"/>
    </contour>
  </outline>
</glyph>
<glyph name="o" format="2">
  <advance width="494.40000000000003"/>
  <unicode hex="006F"/>
  <anchor x="212.63636363636363" y="0.0" name="bottom"/>
  <anchor x="247.63636363636363" y="247.72727272727272" name="center"/>
  <anchor x="276.54545454545456" y="3.909090909090909" name="ogonek"/>
  <anchor x="282.27272727272725" y="494.0" name="top"/>
  <anchor x="382.72727272727275" y="441.45454545454544" name="topright"/>
  <outline>
    <contour>
      <point x="186.0909090909091" y="-13.181818181818182" type="curve" smooth="yes"/>
      <point x="337.72727272727275" y="-13.181818181818182"/>
      <point x="464.0909090909091" y="143.45454545454547"/>
      <point x="464.0909090909091" y="331.27272727272725" type="curve" smooth="yes"/>
      <point x="464.0909090909091" y="447.54545454545456"/>
      <point x="409.6363636363636" y="511.1818181818182"/>
      <point x="308.45454545454544" y="511.1818181818182" type="curve" smooth="yes"/>
      <point x="157.45454545454547" y="511.1818181818182"/>
      <point x="30.454545454545453" y="354.54545454545456"/>
      <point x="30.454545454545453" y="167.45454545454547" type="curve" smooth="yes"/>
      <point x="30.454545454545453" y="51.90909090909091"/>
      <point x="85.9090909090909" y="-13.181818181818182"/>
    </contour>
    <contour>
      <point x="212.54545454545456" y="64.54545454545455" type="curve" smooth="yes"/>
      <point x="176.0909090909091" y="64.54545454545455"/>
      <point x="155.36363636363637" y="101.72727272727272"/>
      <point x="155.36363636363637" y="168.1818181818182" type="curve" smooth="yes"/>
      <point x="155.36363636363637" y="329.1818181818182"/>
      <point x="204.45454545454544" y="434.1818181818182"/>
      <point x="283.0" y="434.1818181818182" type="curve" smooth="yes"/>
      <point x="319.1818181818182" y="434.1818181818182"/>
      <point x="339.54545454545456" y="396.6363636363636"/>
      <point x="339.54545454545456" y="330.1818181818182" type="curve" smooth="yes"/>
      <point x="339.54545454545456" y="168.0909090909091"/>
      <point x="289.72727272727275" y="64.54545454545455"/>
    </contour>
  </outline>
</glyph>
<glyph name="p" format="2">
  <advance width="529.6"/>
  <unicode hex="0070"/>
  <anchor x="232.63636363636363" y="0.0" name="bottom"/>
  <anchor x="302.6363636363636" y="494.0" name="top"/>
  <outline>
    <contour>
      <point x="40.0" y="-275.09090909090907" type="line"/>
      <point x="134.9090909090909" y="-258.54545454545456" type="line"/>
      <point x="147.27272727272728" y="-146.27272727272728"/>
      <point x="159.63636363636363" y="-52.90909090909091"/>
      <point x="173.0" y="42.90909090909091" type="curve"/>
      <point x="179.54545454545456" y="216.1818181818182"/>
      <point x="289.90909090909093" y="410.1818181818182"/>
      <point x="347.27272727272725" y="410.1818181818182" type="curve" smooth="yes"/>
      <point x="371.45454545454544" y="410.1818181818182"/>
      <point x="381.6363636363636" y="376.9090909090909"/>
      <point x="381.6363636363636" y="333.54545454545456" type="curve" smooth="yes"/>
      <point x="381.6363636363636" y="214.72727272727272"/>
      <point x="329.6363636363636" y="71.72727272727272"/>
      <point x="288.72727272727275" y="71.72727272727272" type="curve" smooth="yes"/>
      <point x="247.27272727272728" y="71.72727272727272"/>
      <point x="185.36363636363637" y="99.0"/>
      <point x="166.54545454545456" y="107.0909090909091" type="curve"/>
      <point x="154.0909090909091" y="2.7272727272727275" type="line"/>
      <point x="183.0909090909091" y="-2.5454545454545454"/>
      <point x="243.0" y="-13.181818181818182"/>
      <point x="272.54545454545456" y="-13.181818181818182" type="curve" smooth="yes"/>
      <point x="379.0909090909091" y="-13.181818181818182"/>
      <point x="500.45454545454544" y="193.27272727272728"/>
      <point x="500.45454545454544" y="358.0" type="curve" smooth="yes"/>
      <point x="500.45454545454544" y="444.0"/>
      <point x="472.0909090909091" y="511.1818181818182"/>
      <point x="412.0909090909091" y="511.1818181818182" type="curve" smooth="yes"/>
      <point x="314.0" y="511.1818181818182"/>
      <point x="241.63636363636363" y="396.1818181818182"/>
      <point x="183.9090909090909" y="281.3636363636364" type="curve"/>
      <point x="192.63636363636363" y="282.6363636363636" type="line"/>
      <point x="209.0909090909091" y="367.0909090909091"/>
      <point x="234.0909090909091" y="431.27272727272725"/>
      <point x="252.45454545454544" y="486.45454545454544" type="curve"/>
      <point x="219.72727272727272" y="511.1818181818182" type="line"/>
      <point x="40.0" y="467.45454545454544" type="line"/>
      <point x="40.0" y="421.6363636363636" type="line"/>
      <point x="167.1818181818182" y="414.3636363636364" type="line"/>
      <point x="117.0909090909091" y="439.6363636363636" type="line"/>
      <point x="107.9090909090909" y="289.72727272727275"/>
      <point x="62.45454545454545" y="-48.54545454545455"/>
      <point x="9.636363636363637" y="-258.54545454545456" type="curve"/>
    </contour>
  </outline>
</glyph>
<glyph name="q" format="2">
  <advance width="510.8"/>
  <unicode hex="0071"/>
  <anchor x="219.72727272727272" y="0.0" name="bottom"/>
  <anchor x="279.72727272727275" y="494.0" name="top"/>
  <outline>
    <contour>
      <point x="273.54545454545456" y="-277.0" type="line"/>
      <point x="373.27272727272725" y="-254.45454545454547" type="line"/>
      <point x="386.3636363636364" y="-83.0909090909091"/>
      <point x="436.54545454545456" y="313.72727272727275"/>
      <point x="484.9090909090909" y="488.6363636363636" type="curve"/>
      <point x="451.45454545454544" y="511.1818181818182" type="line"/>
      <point x="356.54545454545456" y="486.90909090909093" type="line"/>
      <point x="354.54545454545456" y="439.09090909090907" type="line" smooth="yes"/>
      <point x="347.90909090909093" y="277.72727272727275"/>
      <point x="235.45454545454544" y="88.18181818181819"/>
      <point x="182.45454545454544" y="88.18181818181819" type="curve" smooth="yes"/>
      <point x="158.0" y="88.18181818181819"/>
      <point x="148.54545454545456" y="120.36363636363636"/>
      <point x="148.54545454545456" y="164.45454545454544" type="curve" smooth="yes"/>
      <point x="148.54545454545456" y="282.90909090909093"/>
      <point x="200.1818181818182" y="426.6363636363636"/>
      <point x="241.0" y="426.6363636363636" type="curve" smooth="yes"/>
      <point x="294.6363636363636" y="426.6363636363636"/>
      <point x="368.1818181818182" y="388.0"/>
      <point x="379.27272727272725" y="384.54545454545456" type="curve"/>
      <point x="390.1818181818182" y="492.72727272727275" type="line"/>
      <point x="370.1818181818182" y="493.72727272727275"/>
      <point x="294.09090909090907" y="511.1818181818182"/>
      <point x="257.54545454545456" y="511.1818181818182" type="curve" smooth="yes"/>
      <point x="150.63636363636363" y="511.1818181818182"/>
      <point x="28.90909090909091" y="305.45454545454544"/>
      <point x="29.636363636363637" y="140.0" type="curve" smooth="yes"/>
      <point x="30.0" y="53.63636363636364"/>
      <point x="57.0" y="-13.181818181818182"/>
      <point x="118.0" y="-13.181818181818182" type="curve" smooth="yes"/>
      <point x="213.27272727272728" y="-13.181818181818182"/>
      <point x="303.27272727272725" y="101.0"/>
      <point x="359.72727272727275" y="240.54545454545456" type="curve"/>
      <point x="350.27272727272725" y="257.6363636363636" type="line"/>
      <point x="340.0" y="164.54545454545456"/>
      <point x="315.72727272727275" y="73.54545454545455"/>
      <point x="295.45454545454544" y="-4.7272727272727275" type="curve"/>
      <point x="278.90909090909093" y="-94.18181818181819"/>
      <point x="260.09090909090907" y="-182.36363636363637"/>
      <point x="242.9090909090909" y="-260.09090909090907" type="curve"/>
    </contour>
  </outline>
</glyph>
<glyph name="r" format="2">
  <advance width="407.0"/>
  <unicode hex="0072"/>
  <anchor x="156.63636363636363" y="0.0" name="bottom"/>
  <anchor x="232.27272727272728" y="494.0" name="top"/>
  <outline>
    <contour>
      <point x="72.9090909090909" y="-13.181818181818182" type="line"/>
      <point x="168.1818181818182" y="3.7272727272727275" type="line"/>
      <point x="171.63636363636363" y="48.45454545454545"/>
      <point x="175.27272727272728" y="94.0"/>
      <point x="184.0909090909091" y="137.54545454545456" type="curve"/>
      <point x="208.63636363636363" y="248.27272727272728"/>
      <point x="269.54545454545456" y="357.45454545454544"/>
      <point x="323.09090909090907" y="357.45454545454544" type="curve" smooth="yes"/>
      <point x="335.90909090909093" y="357.45454545454544"/>
      <point x="361.72727272727275" y="347.1818181818182"/>
      <point x="375.3636363636364" y="341.27272727272725" type="curve"/>
      <point x="414.1818181818182" y="496.6363636363636" type="line"/>
      <point x="407.1818181818182" y="502.54545454545456"/>
      <point x="395.54545454545456" y="510.54545454545456"/>
      <point x="382.3636363636364" y="510.54545454545456" type="curve" smooth="yes"/>
      <point x="322.0" y="510.54545454545456"/>
      <point x="240.36363636363637" y="387.6363636363636"/>
      <point x="171.0" y="231.0" type="curve"/>
      <point x="187.36363636363637" y="245.27272727272728" type="line"/>
      <point x="199.45454545454547" y="324.3636363636364"/>
      <point x="224.27272727272728" y="400.54545454545456"/>
      <point x="255.27272727272728" y="486.45454545454544" type="curve"/>
      <point x="223.54545454545456" y="511.1818181818182" type="line"/>
      <point x="43.45454545454545" y="467.45454545454544" type="line"/>
      <point x="43.45454545454545" y="421.6363636363636" type="line"/>
      <point x="169.36363636363637" y="414.3636363636364" type="line"/>
      <point x="120.36363636363636" y="449.1818181818182" type="line"/>
      <point x="110.0" y="298.3636363636364"/>
      <point x="90.45454545454545" y="188.63636363636363"/>
      <point x="42.54545454545455" y="3.7272727272727275" type="curve"/>
    </contour>
  </outline>
</glyph>
<glyph name="s" format="2">
  <advance width="408.40000000000003"/>
  <unicode hex="0073"/>
  <anchor x="160.63636363636363" y="0.0" name="bottom"/>
  <anchor x="240.63636363636363" y="494.0" name="top"/>
  <outline>
    <contour>
      <point x="165.63636363636363" y="-13.181818181818182" type="curve" smooth="yes"/>
      <point x="271.3636363636364" y="-13.181818181818182"/>
      <point x="352.72727272727275" y="53.72727272727273"/>
      <point x="352.72727272727275" y="152.27272727272728" type="curve" smooth="yes"/>
      <point x="352.72727272727275" y="269.6363636363636"/>
      <point x="182.36363636363637" y="326.72727272727275"/>
      <point x="182.36363636363637" y="395.45454545454544" type="curve" smooth="yes"/>
      <point x="182.36363636363637" y="427.54545454545456"/>
      <point x="210.45454545454544" y="450.1818181818182"/>
      <point x="239.0" y="450.1818181818182" type="curve" smooth="yes"/>
      <point x="272.72727272727275" y="450.1818181818182"/>
      <point x="293.72727272727275" y="435.09090909090907"/>
      <point x="327.54545454545456" y="405.27272727272725" type="curve"/>
      <point x="292.3636363636364" y="482.09090909090907" type="line"/>
      <point x="303.1818181818182" y="340.09090909090907" type="line"/>
      <point x="349.45454545454544" y="337.09090909090907" type="line"/>
      <point x="385.27272727272725" y="464.0" type="line"/>
      <point x="364.27272727272725" y="496.1818181818182" type="line"/>
      <point x="325.45454545454544" y="503.54545454545456"/>
      <point x="285.72727272727275" y="511.1818181818182"/>
      <point x="245.9090909090909" y="511.1818181818182" type="curve" smooth="yes"/>
      <point x="145.36363636363637" y="511.1818181818182"/>
      <point x="72.36363636363636" y="452.3636363636364"/>
      <point x="72.36363636363636" y="366.45454545454544" type="curve" smooth="yes"/>
      <point x="72.36363636363636" y="228.72727272727272"/>
      <point x="234.1818181818182" y="190.72727272727272"/>
      <point x="234.1818181818182" y="117.9090909090909" type="curve" smooth="yes"/>
      <point x="234.1818181818182" y="73.0909090909091"/>
      <point x="206.9090909090909" y="50.45454545454545"/>
      <point x="168.36363636363637" y="50.45454545454545" type="curve" smooth="yes"/>
      <point x="130.9090909090909" y="50.45454545454545"/>
      <point x="105.0909090909091" y="70.72727272727272"/>
      <point x="67.36363636363636" y="113.0" type="curve"/>
      <point x="97.0" y="30.636363636363637" type="line"/>
      <point x="105.0" y="174.54545454545453" type="line"/>
      <point x="62.36363636363637" y="186.0909090909091" type="line"/>
      <point x="13.636363636363637" y="76.36363636363636" type="line"/>
      <point x="19.0" y="37.09090909090909" type="line"/>
      <point x="60.36363636363636" y="5.90909090909091"/>
      <point x="112.0909090909091" y="-13.181818181818182"/>
    </contour>
  </outline>
</glyph>
<glyph name="t" format="2">
  <advance width="404.45454545454544"/>
  <unicode hex="0074"/>
  <anchor x="160.36363636363637" y="0.0" name="bottom"/>
  <anchor x="158.9090909090909" y="271.09090909090907" name="center"/>
  <anchor x="213.1818181818182" y="546.0" name="top"/>
  <anchor x="365.1818181818182" y="545.1818181818181" name="topright"/>
  <outline>
    <contour>
      <point x="369.09090909090907" y="125.36363636363636" type="curve"/>
      <point x="327.3636363636364" y="158.0909090909091" type="line"/>
      <point x="270.72727272727275" y="59.63636363636364"/>
      <point x="182.45454545454544" y="30.545454545454547"/>
      <point x="197.27272727272728" y="139.36363636363637" type="curve" smooth="yes"/>
      <point x="212.45454545454544" y="252.0"/>
      <point x="226.63636363636363" y="340.6363636363636"/>
      <point x="247.1818181818182" y="459.54545454545456" type="curve"/>
      <point x="181.72727272727272" y="420.90909090909093" type="line"/>
      <point x="370.6363636363636" y="420.90909090909093" type="line"/>
      <point x="388.45454545454544" y="489.72727272727275" type="line"/>
      <point x="199.36363636363637" y="489.72727272727275" type="line"/>
      <point x="246.54545454545456" y="460.45454545454544" type="line"/>
      <point x="267.27272727272725" y="595.3636363636364" type="line"/>
      <point x="210.0" y="612.7272727272727" type="line"/>
      <point x="210.0" y="612.7272727272727"/>
      <point x="165.72727272727272" y="524.1818181818181"/>
      <point x="146.27272727272728" y="511.45454545454544" type="curve" smooth="yes"/>
      <point x="122.27272727272728" y="496.54545454545456"/>
      <point x="74.36363636363636" y="482.1818181818182"/>
      <point x="43.27272727272727" y="474.0" type="curve"/>
      <point x="37.36363636363637" y="420.90909090909093" type="line"/>
      <point x="171.9090909090909" y="420.90909090909093" type="line"/>
      <point x="127.0" y="462.1818181818182" type="line"/>
      <point x="109.36363636363636" y="317.0"/>
      <point x="98.0" y="246.9090909090909"/>
      <point x="76.63636363636364" y="132.9090909090909" type="curve" smooth="yes"/>
      <point x="40.63636363636364" y="-59.09090909090909"/>
      <point x="259.54545454545456" y="-63.09090909090909"/>
    </contour>
  </outline>
</glyph>
<glyph name="v" format="2">
  <advance width="510.6"/>
  <unicode hex="0076"/>
  <anchor x="221.63636363636363" y="0.0" name="bottom"/>
  <anchor x="290.90909090909093" y="494.0" name="top"/>
  <outline>
    <contour>
      <point x="145.0909090909091" y="-13.181818181818182" type="curve" smooth="yes"/>
      <point x="312.72727272727275" y="-13.181818181818182"/>
      <point x="493.6363636363636" y="239.54545454545453"/>
      <point x="503.3636363636364" y="488.6363636363636" type="curve"/>
      <point x="471.27272727272725" y="511.1818181818182" type="line"/>
      <point x="309.1818181818182" y="467.45454545454544" type="line"/>
      <point x="311.3636363636364" y="421.6363636363636" type="line"/>
      <point x="432.27272727272725" y="414.3636363636364" type="line"/>
      <point x="378.54545454545456" y="436.3636363636364" type="line"/>
      <point x="382.54545454545456" y="403.72727272727275"/>
      <point x="385.54545454545456" y="365.27272727272725"/>
      <point x="385.54545454545456" y="354.3636363636364" type="curve" smooth="yes"/>
      <point x="385.54545454545456" y="237.0909090909091"/>
      <point x="289.72727272727275" y="83.9090909090909"/>
      <point x="216.27272727272728" y="83.9090909090909" type="curve" smooth="yes"/>
      <point x="201.1818181818182" y="83.9090909090909"/>
      <point x="192.63636363636363" y="93.27272727272728"/>
      <point x="192.63636363636363" y="109.63636363636364" type="curve" smooth="yes"/>
      <point x="192.63636363636363" y="159.9090909090909"/>
      <point x="230.45454545454544" y="340.0"/>
      <point x="230.45454545454544" y="378.54545454545456" type="curve" smooth="yes"/>
      <point x="230.45454545454544" y="488.6363636363636" type="line"/>
      <point x="196.72727272727272" y="511.1818181818182" type="line"/>
      <point x="40.63636363636363" y="467.45454545454544" type="line"/>
      <point x="42.45454545454545" y="421.6363636363636" type="line"/>
      <point x="166.0" y="414.3636363636364" type="line"/>
      <point x="113.0" y="435.27272727272725" type="line"/>
      <point x="115.0" y="415.0"/>
      <point x="116.63636363636364" y="360.09090909090907"/>
      <point x="116.63636363636364" y="344.54545454545456" type="curve" smooth="yes"/>
      <point x="116.63636363636364" y="281.90909090909093"/>
      <point x="70.9090909090909" y="110.27272727272727"/>
      <point x="70.9090909090909" y="56.0" type="curve" smooth="yes"/>
      <point x="70.9090909090909" y="10.181818181818182"/>
      <point x="95.72727272727272" y="-13.181818181818182"/>
    </contour>
  </outline>
</glyph>
<glyph name="w" format="2">
  <advance width="789.6"/>
  <unicode hex="0077"/>
  <anchor x="364.90909090909093" y="0.0" name="bottom"/>
  <anchor x="424.90909090909093" y="494.0" name="top"/>
  <outline>
    <contour>
      <point x="143.0" y="-13.181818181818182" type="curve" smooth="yes"/>
      <point x="228.72727272727272" y="-13.181818181818182"/>
      <point x="318.27272727272725" y="50.09090909090909"/>
      <point x="383.6363636363636" y="153.1818181818182" type="curve"/>
      <point x="363.54545454545456" y="171.1818181818182" type="line"/>
      <point x="359.90909090909093" y="116.45454545454545"/>
      <point x="355.3636363636364" y="79.36363636363636"/>
      <point x="355.3636363636364" y="57.54545454545455" type="curve" smooth="yes"/>
      <point x="355.3636363636364" y="18.0"/>
      <point x="374.0" y="-13.181818181818182"/>
      <point x="419.09090909090907" y="-13.181818181818182" type="curve" smooth="yes"/>
      <point x="592.7272727272727" y="-13.181818181818182"/>
      <point x="772.3636363636364" y="234.0"/>
      <point x="781.2727272727273" y="488.6363636363636" type="curve"/>
      <point x="748.0909090909091" y="511.1818181818182" type="line"/>
      <point x="588.4545454545455" y="467.45454545454544" type="line"/>
      <point x="590.3636363636364" y="421.6363636363636" type="line"/>
      <point x="709.0909090909091" y="414.3636363636364" type="line"/>
      <point x="652.3636363636364" y="455.09090909090907" type="line"/>
      <point x="657.0909090909091" y="414.09090909090907"/>
      <point x="661.4545454545455" y="369.6363636363636"/>
      <point x="661.4545454545455" y="354.3636363636364" type="curve" smooth="yes"/>
      <point x="661.4545454545455" y="226.45454545454544"/>
      <point x="559.1818181818181" y="83.9090909090909"/>
      <point x="487.0" y="83.9090909090909" type="curve" smooth="yes"/>
      <point x="474.3636363636364" y="83.9090909090909"/>
      <point x="463.6363636363636" y="92.72727272727272"/>
      <point x="463.6363636363636" y="109.27272727272728" type="curve" smooth="yes"/>
      <point x="463.6363636363636" y="159.54545454545453"/>
      <point x="498.1818181818182" y="339.3636363636364"/>
      <point x="498.1818181818182" y="378.54545454545456" type="curve"/>
      <point x="492.9090909090909" y="493.6363636363636" type="line"/>
      <point x="463.27272727272725" y="510.1818181818182" type="line"/>
      <point x="369.09090909090907" y="492.1818181818182" type="line"/>
      <point x="371.27272727272725" y="470.1818181818182"/>
      <point x="383.45454545454544" y="364.6363636363636"/>
      <point x="383.45454545454544" y="354.3636363636364" type="curve" smooth="yes"/>
      <point x="383.45454545454544" y="224.63636363636363"/>
      <point x="291.27272727272725" y="83.9090909090909"/>
      <point x="214.0909090909091" y="83.9090909090909" type="curve" smooth="yes"/>
      <point x="201.54545454545456" y="83.9090909090909"/>
      <point x="190.72727272727272" y="93.45454545454545"/>
      <point x="190.72727272727272" y="109.63636363636364" type="curve" smooth="yes"/>
      <point x="190.72727272727272" y="159.9090909090909"/>
      <point x="227.0909090909091" y="338.72727272727275"/>
      <point x="229.63636363636363" y="378.54545454545456" type="curve" smooth="yes"/>
      <point x="230.27272727272728" y="488.6363636363636" type="line"/>
      <point x="196.0909090909091" y="511.1818181818182" type="line"/>
      <point x="41.54545454545455" y="467.45454545454544" type="line"/>
      <point x="43.09090909090909" y="421.6363636363636" type="line"/>
      <point x="164.45454545454547" y="414.3636363636364" type="line"/>
      <point x="110.45454545454545" y="445.90909090909093" type="line"/>
      <point x="113.45454545454545" y="419.45454545454544"/>
      <point x="114.45454545454545" y="369.72727272727275"/>
      <point x="114.45454545454545" y="347.09090909090907" type="curve" smooth="yes"/>
      <point x="114.45454545454545" y="278.6363636363636"/>
      <point x="69.45454545454545" y="111.9090909090909"/>
      <point x="69.45454545454545" y="56.09090909090909" type="curve" smooth="yes"/>
      <point x="69.45454545454545" y="16.545454545454547"/>
      <point x="88.72727272727272" y="-13.181818181818182"/>
    </contour>
  </outline>
</glyph>
<glyph name="x" format="2">
  <advance width="535.0"/>
  <unicode hex="0078"/>
  <anchor x="234.0" y="0.0" name="bottom"/>
  <anchor x="303.6363636363636" y="494.0" name="top"/>
  <outline>
    <contour>
      <point x="321.45454545454544" y="-13.181818181818182" type="line"/>
      <point x="482.54545454545456" y="29.90909090909091" type="line"/>
      <point x="486.54545454545456" y="75.63636363636364" type="line"/>
      <point x="341.3636363636364" y="86.0909090909091" type="line"/>
      <point x="401.1818181818182" y="66.54545454545455" type="line"/>
      <point x="371.9090909090909" y="143.54545454545456"/>
      <point x="294.6363636363636" y="326.09090909090907"/>
      <point x="250.0909090909091" y="489.0" type="curve"/>
      <point x="216.36363636363637" y="511.1818181818182" type="line"/>
      <point x="55.45454545454545" y="468.6363636363636" type="line"/>
      <point x="65.0" y="423.45454545454544" type="line"/>
      <point x="184.36363636363637" y="416.54545454545456" type="line"/>
      <point x="115.36363636363636" y="445.27272727272725" type="line"/>
      <point x="188.63636363636363" y="329.90909090909093"/>
      <point x="261.09090909090907" y="109.9090909090909"/>
      <point x="291.90909090909093" y="3.7272727272727275" type="curve"/>
    </contour>
    <contour>
      <point x="55.09090909090909" y="-13.181818181818182" type="line"/>
      <point x="144.45454545454547" y="54.27272727272727" type="line"/>
      <point x="176.27272727272728" y="92.0909090909091"/>
      <point x="218.45454545454547" y="149.36363636363637"/>
      <point x="250.1818181818182" y="188.0909090909091" type="curve"/>
      <point x="220.45454545454547" y="262.72727272727275" type="line"/>
      <point x="182.0" y="214.63636363636363"/>
      <point x="115.54545454545455" y="128.27272727272728"/>
      <point x="106.0" y="121.36363636363636" type="curve" smooth="yes"/>
      <point x="97.0909090909091" y="115.0909090909091"/>
      <point x="34.45454545454545" y="87.27272727272728"/>
      <point x="5.090909090909091" y="75.72727272727272" type="curve"/>
      <point x="28.363636363636363" y="6.2727272727272725" type="line"/>
    </contour>
    <contour>
      <point x="315.27272727272725" y="232.45454545454547" type="line"/>
      <point x="348.0" y="271.54545454545456"/>
      <point x="422.45454545454544" y="370.72727272727275"/>
      <point x="435.9090909090909" y="379.1818181818182" type="curve" smooth="yes"/>
      <point x="445.54545454545456" y="385.1818181818182"/>
      <point x="484.0909090909091" y="401.6363636363636"/>
      <point x="515.7272727272727" y="414.0" type="curve"/>
      <point x="508.72727272727275" y="491.72727272727275" type="line"/>
      <point x="481.09090909090907" y="511.1818181818182" type="line"/>
      <point x="392.09090909090907" y="442.09090909090907" type="line"/>
      <point x="348.1818181818182" y="388.72727272727275"/>
      <point x="316.54545454545456" y="345.27272727272725"/>
      <point x="286.54545454545456" y="307.6363636363636" type="curve"/>
    </contour>
  </outline>
</glyph>
